<?xml version="1.0" encoding="UTF-8" standalone="no"?>
<svg width="100px" height="100px" viewBox="0 0 100 100" version="1.1" xmlns="http://www.w3.org/2000/svg" xmlns:xlink="http://www.w3.org/1999/xlink" xmlns:sketch="http://www.bohemiancoding.com/sketch/ns">
    <!-- Generator: Sketch 3.0.4 (8053) - http://www.bohemiancoding.com/sketch -->
    <title>signature-expired</title>
    <desc>Created with Sketch.</desc>
    <defs></defs>
    <g id="Page-1" stroke="none" stroke-width="1" fill="none" fill-rule="evenodd" sketch:type="MSPage">
        <g id="signature-expired" sketch:type="MSArtboardGroup" fill="#000000">
            <path d="M90.029,-0.384 L10,-0.384 C4.477,-0.384 0,4.094 0,9.616 L0,89.594 C0,95.117 4.477,99.594 10,99.594 L90.029,99.594 C95.556,99.594 100.035,95.117 100.035,89.594 L100.035,9.616 C100.035,4.094 95.557,-0.384 90.029,-0.384 L90.029,-0.384 Z M15.002,29.256 C14.545,28.194 15.076,24.929 15.988,23.638 C16.902,22.347 22.365,17.942 24.873,16.726 C27.381,15.512 30.275,17.638 30.275,17.638 L34.914,23.638 C27.615,26.066 20.396,35.329 20.396,35.329 C20.396,35.329 15.459,30.319 15.002,29.256 L15.002,29.256 Z M49.924,83.141 C34.467,83.141 21.945,70.614 21.945,55.179 C21.945,40.482 33.308,28.445 47.744,27.333 L47.744,23.084 L42.926,23.084 L42.926,16.069 L56.384,16.069 L56.384,23.084 L52.101,23.084 L52.101,27.333 C66.533,28.444 77.902,40.481 77.902,55.179 C77.902,70.613 65.375,83.141 49.924,83.141 L49.924,83.141 Z M85.035,29.258 C84.578,30.32 79.637,35.331 79.637,35.331 C79.637,35.331 72.414,26.067 65.116,23.64 L69.755,17.64 C69.755,17.64 72.65,15.512 75.159,16.726 C77.667,17.945 83.134,22.349 84.046,23.64 C84.959,24.929 85.49,28.194 85.035,29.258 L85.035,29.258 Z M49.459,63.892 C54.1307767,63.892 57.918,60.110597 57.918,55.446 C57.918,50.781403 54.1307767,47 49.459,47 C44.7872233,47 41,50.781403 41,55.446 C41,60.110597 44.7872233,63.892 49.459,63.892 Z" sketch:type="MSShapeGroup"></path>
        </g>
    </g>
</svg>