<?xml version="1.0" encoding="UTF-8" standalone="no"?>
<svg
   xmlns:dc="http://purl.org/dc/elements/1.1/"
   xmlns:cc="http://creativecommons.org/ns#"
   xmlns:rdf="http://www.w3.org/1999/02/22-rdf-syntax-ns#"
   xmlns:svg="http://www.w3.org/2000/svg"
   xmlns="http://www.w3.org/2000/svg"
   xmlns:sodipodi="http://sodipodi.sourceforge.net/DTD/sodipodi-0.dtd"
   xmlns:inkscape="http://www.inkscape.org/namespaces/inkscape"
   version="1.1"
   width="24"
   height="24"
   viewBox="0 0 24 24"
   id="svg2"
   inkscape:version="0.48.5 r10040"
   sodipodi:docname="ic_action_encrypt_save.svg">
  <metadata
     id="metadata10">
    <rdf:RDF>
      <cc:Work
         rdf:about="">
        <dc:format>image/svg+xml</dc:format>
        <dc:type
           rdf:resource="http://purl.org/dc/dcmitype/StillImage" />
      </cc:Work>
    </rdf:RDF>
  </metadata>
  <defs
     id="defs8" />
  <sodipodi:namedview
     pagecolor="#ffffff"
     bordercolor="#666666"
     borderopacity="1"
     objecttolerance="10"
     gridtolerance="10"
     guidetolerance="10"
     inkscape:pageopacity="0"
     inkscape:pageshadow="2"
     inkscape:window-width="2558"
     inkscape:window-height="1419"
     id="namedview6"
     showgrid="false"
     inkscape:zoom="9.8333333"
     inkscape:cx="-4.7288134"
     inkscape:cy="11.949153"
     inkscape:window-x="0"
     inkscape:window-y="19"
     inkscape:window-maximized="1"
     inkscape:current-layer="svg2" />
  <path
     inkscape:connector-curvature="0"
     d="M 12.355932,11.847458 H 4.7288135 V 8.7966102 H 12.355932 M 10.067797,19.474576 a 2.2881356,2.2881356 0 0 1 -2.288136,-2.288135 2.2881356,2.2881356 0 0 1 2.288136,-2.288136 2.2881356,2.2881356 0 0 1 2.288135,2.288136 2.2881356,2.2881356 0 0 1 -2.288135,2.288135 M 13.881356,7.2711864 H 4.7288135 c -0.8466101,0 -1.5254237,0.6864407 -1.5254237,1.5254238 V 19.474576 A 1.5254237,1.5254237 0 0 0 4.7288135,21 H 15.40678 a 1.5254237,1.5254237 0 0 0 1.525424,-1.525424 V 10.322034 L 13.881356,7.2711864 z"
     id="path4-7"
     style="fill:#000000;fill-opacity:1" />
  <path
     id="path3076-1"
     d="m 17.363197,9.8980016 a 0.84079901,0.84079901 0 0 0 0.840798,-0.8408 c 0,-0.466643 -0.378359,-0.840799 -0.840798,-0.840799 a 0.84079901,0.84079901 0 0 0 -0.8408,0.840799 0.84079901,0.84079901 0 0 0 0.8408,0.8408 m 2.522396,-3.783596 a 0.84079901,0.84079901 0 0 1 0.8408,0.840799 V 11.159199 A 0.84079901,0.84079901 0 0 1 19.885593,12 H 14.840799 A 0.84079901,0.84079901 0 0 1 14,11.159199 V 6.9552046 c 0,-0.466644 0.37836,-0.840799 0.840799,-0.840799 h 0.4204 v -0.840799 a 2.1019975,2.1019975 0 0 1 2.101998,-2.101997 2.1019975,2.1019975 0 0 1 2.101997,2.101997 v 0.840799 h 0.420399 m -2.522396,-2.101998 a 1.2611986,1.2611986 0 0 0 -1.261198,1.261199 v 0.840799 h 2.522396 v -0.840799 a 1.2611986,1.2611986 0 0 0 -1.261198,-1.261199 z"
     inkscape:connector-curvature="0"
     style="fill:#000000;fill-opacity:1" />
</svg>
