<?xml version="1.0" encoding="UTF-8" standalone="no"?>
<svg
   xmlns:dc="http://purl.org/dc/elements/1.1/"
   xmlns:cc="http://creativecommons.org/ns#"
   xmlns:rdf="http://www.w3.org/1999/02/22-rdf-syntax-ns#"
   xmlns:svg="http://www.w3.org/2000/svg"
   xmlns="http://www.w3.org/2000/svg"
   xmlns:sodipodi="http://sodipodi.sourceforge.net/DTD/sodipodi-0.dtd"
   xmlns:inkscape="http://www.inkscape.org/namespaces/inkscape"
   version="1.1"
   width="24"
   height="24"
   viewBox="0 0 24 24"
   id="svg2"
   inkscape:version="0.48.5 r10040"
   sodipodi:docname="ic_action_encrypt_paste.svg">
  <metadata
     id="metadata10">
    <rdf:RDF>
      <cc:Work
         rdf:about="">
        <dc:format>image/svg+xml</dc:format>
        <dc:type
           rdf:resource="http://purl.org/dc/dcmitype/StillImage" />
      </cc:Work>
    </rdf:RDF>
  </metadata>
  <defs
     id="defs8" />
  <sodipodi:namedview
     pagecolor="#ffffff"
     bordercolor="#666666"
     borderopacity="1"
     objecttolerance="10"
     gridtolerance="10"
     guidetolerance="10"
     inkscape:pageopacity="0"
     inkscape:pageshadow="2"
     inkscape:window-width="2558"
     inkscape:window-height="1419"
     id="namedview6"
     showgrid="false"
     inkscape:zoom="9.8333333"
     inkscape:cx="0.10169504"
     inkscape:cy="12"
     inkscape:window-x="0"
     inkscape:window-y="19"
     inkscape:window-maximized="1"
     inkscape:current-layer="svg2" />
  <path
     id="path3076"
     d="m 17.363197,9.8980016 a 0.84079901,0.84079901 0 0 0 0.840798,-0.8408 c 0,-0.466643 -0.378359,-0.840799 -0.840798,-0.840799 a 0.84079901,0.84079901 0 0 0 -0.8408,0.840799 0.84079901,0.84079901 0 0 0 0.8408,0.8408 m 2.522396,-3.783596 a 0.84079901,0.84079901 0 0 1 0.8408,0.840799 V 11.159199 A 0.84079901,0.84079901 0 0 1 19.885593,12 H 14.840799 A 0.84079901,0.84079901 0 0 1 14,11.159199 V 6.9552046 c 0,-0.466644 0.37836,-0.840799 0.840799,-0.840799 h 0.4204 v -0.840799 a 2.1019975,2.1019975 0 0 1 2.101998,-2.101997 2.1019975,2.1019975 0 0 1 2.101997,2.101997 v 0.840799 h 0.420399 m -2.522396,-2.101998 a 1.2611986,1.2611986 0 0 0 -1.261198,1.261199 v 0.840799 h 2.522396 v -0.840799 a 1.2611986,1.2611986 0 0 0 -1.261198,-1.261199 z"
     inkscape:connector-curvature="0"
     style="fill:#000000" />
  <path
     id="path3053"
     d="M 15.283513,19.502312 H 6.4607096 V 9.4191068 H 7.7211105 V 11.309707 H 14.023111 V 9.4191068 h 1.260402 M 10.87211,8.1587061 a 0.63020031,0.63020031 0 0 1 0.630201,0.6302004 0.63020031,0.63020031 0 0 1 -0.630201,0.6302003 0.63020031,0.63020031 0 0 1 -0.6302,-0.6302003 0.63020031,0.63020031 0 0 1 0.6302,-0.6302004 m 4.411405,0 h -2.63424 C 12.384592,7.427674 11.691372,6.8983055 10.87211,6.8983055 c -0.819259,0 -1.5124797,0.5293685 -1.7771628,1.2604006 H 6.4607096 A 1.2604005,1.2604005 0 0 0 5.200309,9.4191068 V 19.502312 a 1.2604005,1.2604005 0 0 0 1.2604006,1.260399 h 8.8228034 a 1.2604005,1.2604005 0 0 0 1.2604,-1.260399 V 9.4191068 a 1.2604005,1.2604005 0 0 0 -1.2604,-1.2604007 z"
     inkscape:connector-curvature="0" />
</svg>
