<?xml version="1.0" encoding="UTF-8" standalone="no"?>
<svg
   xmlns:dc="http://purl.org/dc/elements/1.1/"
   xmlns:cc="http://creativecommons.org/ns#"
   xmlns:rdf="http://www.w3.org/1999/02/22-rdf-syntax-ns#"
   xmlns:svg="http://www.w3.org/2000/svg"
   xmlns="http://www.w3.org/2000/svg"
   xmlns:sodipodi="http://sodipodi.sourceforge.net/DTD/sodipodi-0.dtd"
   xmlns:inkscape="http://www.inkscape.org/namespaces/inkscape"
   version="1.1"
   width="24"
   height="24"
   viewBox="0 0 24 24"
   id="svg2"
   inkscape:version="0.48.3.1 r9886"
   sodipodi:docname="ic_action_encrypt_save.svg">
  <metadata
     id="metadata10">
    <rdf:RDF>
      <cc:Work
         rdf:about="">
        <dc:format>image/svg+xml</dc:format>
        <dc:type
           rdf:resource="http://purl.org/dc/dcmitype/StillImage" />
      </cc:Work>
    </rdf:RDF>
  </metadata>
  <defs
     id="defs8" />
  <sodipodi:namedview
     pagecolor="#ffffff"
     bordercolor="#666666"
     borderopacity="1"
     objecttolerance="10"
     gridtolerance="10"
     guidetolerance="10"
     inkscape:pageopacity="0"
     inkscape:pageshadow="2"
     inkscape:window-width="1364"
     inkscape:window-height="747"
     id="namedview6"
     showgrid="false"
     inkscape:zoom="9.8333333"
     inkscape:cx="12"
     inkscape:cy="12"
     inkscape:window-x="0"
     inkscape:window-y="19"
     inkscape:window-maximized="1"
     inkscape:current-layer="svg2" />
  <path
     d="M 19.271186,4.830509 H 14.864407 V 3.067797 h 4.406779 m -1.322034,6.169491 a 1.3220339,1.3220339 0 0 1 -1.322033,-1.322034 1.3220339,1.3220339 0 0 1 1.322033,-1.322033 1.3220339,1.3220339 0 0 1 1.322034,1.322033 1.3220339,1.3220339 0 0 1 -1.322034,1.322034 m 2.20339,-7.050847 h -5.288135 c -0.489153,0 -0.881356,0.39661 -0.881356,0.881356 v 6.169491 a 0.8813559,0.8813559 0 0 0 0.881356,0.881356 h 6.169491 A 0.8813559,0.8813559 0 0 0 21.915254,9.237288 V 3.949153 L 20.152542,2.186441 z"
     id="path4"
     inkscape:connector-curvature="0" />
  <path
     id="path3076"
     d="m 8.9903145,18.071731 a 1.679782,1.679782 0 0 0 1.6797815,-1.679783 c 0,-0.932279 -0.7559008,-1.679782 -1.6797815,-1.679782 a 1.679782,1.679782 0 0 0 -1.6797836,1.679782 1.679782,1.679782 0 0 0 1.6797836,1.679783 m 5.0393455,-7.55902 a 1.679782,1.679782 0 0 1 1.679783,1.679782 v 8.398908 A 1.679782,1.679782 0 0 1 14.02966,22.271187 H 3.9509682 A 1.679782,1.679782 0 0 1 2.2711864,20.591401 v -8.398908 c 0,-0.932279 0.7559033,-1.679782 1.6797818,-1.679782 H 4.79086 V 8.8329293 A 4.199455,4.199455 0 0 1 8.9903145,4.6334745 4.199455,4.199455 0 0 1 13.189769,8.8329293 V 10.512711 H 14.02966 M 8.9903145,6.3132557 A 2.5196731,2.5196731 0 0 0 6.4706427,8.8329293 V 10.512711 H 11.509988 V 8.8329293 A 2.5196731,2.5196731 0 0 0 8.9903145,6.3132557 z"
     inkscape:connector-curvature="0"
     style="fill:#1a1a1a" />
</svg>
