<?xml version="1.0" encoding="UTF-8" standalone="no"?>
<svg
   xmlns:dc="http://purl.org/dc/elements/1.1/"
   xmlns:cc="http://creativecommons.org/ns#"
   xmlns:rdf="http://www.w3.org/1999/02/22-rdf-syntax-ns#"
   xmlns:svg="http://www.w3.org/2000/svg"
   xmlns="http://www.w3.org/2000/svg"
   xmlns:sodipodi="http://sodipodi.sourceforge.net/DTD/sodipodi-0.dtd"
   xmlns:inkscape="http://www.inkscape.org/namespaces/inkscape"
   version="1.1"
   width="24"
   height="24"
   viewBox="0 0 24 24"
   id="svg2"
   inkscape:version="0.48.3.1 r9886"
   sodipodi:docname="ic_action_encrypt_share.svg">
  <metadata
     id="metadata10">
    <rdf:RDF>
      <cc:Work
         rdf:about="">
        <dc:format>image/svg+xml</dc:format>
        <dc:type
           rdf:resource="http://purl.org/dc/dcmitype/StillImage" />
      </cc:Work>
    </rdf:RDF>
  </metadata>
  <defs
     id="defs8" />
  <sodipodi:namedview
     pagecolor="#ffffff"
     bordercolor="#666666"
     borderopacity="1"
     objecttolerance="10"
     gridtolerance="10"
     guidetolerance="10"
     inkscape:pageopacity="0"
     inkscape:pageshadow="2"
     inkscape:window-width="1364"
     inkscape:window-height="747"
     id="namedview6"
     showgrid="false"
     inkscape:zoom="9.8333333"
     inkscape:cx="12"
     inkscape:cy="12"
     inkscape:window-x="0"
     inkscape:window-y="19"
     inkscape:window-maximized="1"
     inkscape:current-layer="svg2" />
  <path
     d="m 20.61017,8.8414128 c -0.382148,0 -0.724068,0.1508467 -0.985538,0.3871748 l -3.58514,-2.086723 c 0.02514,-0.1156503 0.04526,-0.2312996 0.04526,-0.3519774 0,-0.1206778 -0.02012,-0.2363281 -0.04526,-0.3519774 l 3.544914,-2.06661 c 0.271526,0.2514116 0.628532,0.4072878 1.025764,0.4072878 A 1.5084746,1.5084746 0 0 0 22.118644,3.2701132 1.5084746,1.5084746 0 0 0 20.61017,1.7616387 1.5084746,1.5084746 0 0 0 19.101695,3.2701132 c 0,0.1206777 0.02012,0.236327 0.04526,0.3519774 l -3.544916,2.06661 C 15.330509,5.437288 14.973504,5.2814128 14.576272,5.2814128 a 1.5084746,1.5084746 0 0 0 -1.508475,1.5084744 1.5084746,1.5084746 0 0 0 1.508475,1.5084745 c 0.397232,0 0.754237,-0.1558763 1.025763,-0.4072878 l 3.580113,2.086723 c -0.02514,0.1055931 -0.04023,0.2162141 -0.04023,0.3318651 0,0.809548 0.6587,1.46322 1.468249,1.46322 0.809548,0 1.468248,-0.653672 1.468248,-1.46322 A 1.4682486,1.4682486 0 0 0 20.610171,8.8414128 z"
     id="path4"
     inkscape:connector-curvature="0" />
  <path
     id="path3076"
     d="m 8.8970941,17.842917 a 1.679782,1.679782 0 0 0 1.6797819,-1.679783 c 0,-0.932279 -0.7559012,-1.679782 -1.6797819,-1.679782 a 1.679782,1.679782 0 0 0 -1.6797836,1.679782 1.679782,1.679782 0 0 0 1.6797836,1.679783 m 5.0393459,-7.55902 a 1.679782,1.679782 0 0 1 1.679783,1.679782 v 8.398908 A 1.679782,1.679782 0 0 1 13.93644,22.042373 H 3.8577478 A 1.679782,1.679782 0 0 1 2.177966,20.362587 v -8.398908 c 0,-0.932279 0.7559033,-1.679782 1.6797818,-1.679782 H 4.6976396 V 8.6041153 A 4.199455,4.199455 0 0 1 8.8970941,4.4046605 4.199455,4.199455 0 0 1 13.096549,8.6041153 V 10.283897 H 13.93644 M 8.8970941,6.0844417 A 2.5196731,2.5196731 0 0 0 6.3774223,8.6041153 V 10.283897 H 11.416768 V 8.6041153 A 2.5196731,2.5196731 0 0 0 8.8970941,6.0844417 z"
     inkscape:connector-curvature="0"
     style="fill:#1a1a1a" />
</svg>
