<?xml version="1.0" encoding="iso-8859-1"?>
<!-- Generator: Adobe Illustrator 16.0.0, SVG Export Plug-In . SVG Version: 6.00 Build 0)  -->
<!DOCTYPE svg PUBLIC "-//W3C//DTD SVG 1.1//EN" "http://www.w3.org/Graphics/SVG/1.1/DTD/svg11.dtd">
<svg version="1.1" id="Capa_1" xmlns="http://www.w3.org/2000/svg" xmlns:xlink="http://www.w3.org/1999/xlink" x="0px" y="0px"
	 width="190.282px" height="190.282px" viewBox="0 0 190.282 190.282" style="enable-background:new 0 0 190.282 190.282;"
	 xml:space="preserve">
<g>
	<g id="_x31_48_28_">
		<g>
			<rect x="161.592" y="134.46" width="15.346" height="14.609"/>
			<path d="M189.068,105.211c-0.711-1.793-1.833-3.438-3.355-4.941c-1.523-1.492-3.515-2.722-5.973-3.687
				c-2.457-0.96-5.479-1.437-9.074-1.437c-3.636,0-6.723,0.548-9.252,1.655c-2.533,1.106-4.615,2.544-6.23,4.312
				c-1.63,1.777-2.828,3.782-3.615,6.012c-0.782,2.239-1.255,4.515-1.402,6.83h15.417c-0.147-1.63,0.147-3.077,0.884-4.352
				c0.736-1.28,1.99-1.92,3.763-1.92c2.849,0,4.275,1.249,4.275,3.763c0,0.838-0.243,1.549-0.736,2.138
				c-0.497,0.59-1.097,1.098-1.812,1.514c-0.711,0.416-1.457,0.797-2.249,1.143c-0.793,0.351-1.473,0.665-2.067,0.965
				c-1.422,0.782-2.498,1.772-3.245,2.945c-0.736,1.183-1.249,2.387-1.549,3.615c-0.294,1.229-0.441,2.433-0.441,3.61
				c0,1.133,0.025,2.062,0.081,2.798h13.645c0-0.827,0.062-1.568,0.178-2.209c0.122-0.64,0.335-1.203,0.63-1.695
				c0.3-0.493,0.716-0.96,1.254-1.402c0.544-0.446,1.229-0.889,2.062-1.33c1.224-0.64,2.438-1.265,3.61-1.879
				c1.188-0.614,2.254-1.392,3.209-2.325c0.955-0.93,1.731-2.098,2.325-3.504c0.584-1.401,0.884-3.229,0.884-5.495
				C190.186,108.709,189.785,107.009,189.068,105.211z"/>
			<path d="M176.42,73.035c1.193,0,2.376,0.099,3.555,0.178c0.167-1.176,0.299-2.356,0.36-3.547
				c-1.158-21.498-16.463-36.785-37.942-37.945c-12.604-0.675-23.115,5.759-29.859,15.168C105.8,38.02,95.317,32.408,82.655,31.72
				c-21.439-1.152-36.869,18.199-37.933,37.945c-0.122,2.536,0.041,4.977,0.437,7.335c-1.343-0.19-2.709-0.32-4.103-0.398
				c-23.176-1.249-39.852,19.672-41.002,41c-1.181,21.805,17.266,37.851,37.222,40.628v0.381h101.679
				c-8.389-9.095-13.558-21.205-13.558-34.561C125.391,95.877,148.242,73.035,176.42,73.035z"/>
		</g>
	</g>
</g>
<g>
</g>
<g>
</g>
<g>
</g>
<g>
</g>
<g>
</g>
<g>
</g>
<g>
</g>
<g>
</g>
<g>
</g>
<g>
</g>
<g>
</g>
<g>
</g>
<g>
</g>
<g>
</g>
<g>
</g>
</svg>
