<?xml version="1.0" encoding="UTF-8" standalone="no"?>
<svg
   xmlns:dc="http://purl.org/dc/elements/1.1/"
   xmlns:cc="http://creativecommons.org/ns#"
   xmlns:rdf="http://www.w3.org/1999/02/22-rdf-syntax-ns#"
   xmlns:svg="http://www.w3.org/2000/svg"
   xmlns="http://www.w3.org/2000/svg"
   xmlns:sodipodi="http://sodipodi.sourceforge.net/DTD/sodipodi-0.dtd"
   xmlns:inkscape="http://www.inkscape.org/namespaces/inkscape"
   width="24"
   height="24"
   viewBox="0 0 24 24"
   id="svg2"
   version="1.1"
   inkscape:version="0.48.3.1 r9886"
   sodipodi:docname="ic_cloud_search_24px.svg">
  <metadata
     id="metadata10">
    <rdf:RDF>
      <cc:Work
         rdf:about="">
        <dc:format>image/svg+xml</dc:format>
        <dc:type
           rdf:resource="http://purl.org/dc/dcmitype/StillImage" />
      </cc:Work>
    </rdf:RDF>
  </metadata>
  <defs
     id="defs8" />
  <sodipodi:namedview
     pagecolor="#ffffff"
     bordercolor="#666666"
     borderopacity="1"
     objecttolerance="10"
     gridtolerance="10"
     guidetolerance="10"
     inkscape:pageopacity="0"
     inkscape:pageshadow="2"
     inkscape:window-width="1364"
     inkscape:window-height="747"
     id="namedview6"
     showgrid="false"
     inkscape:zoom="9.8333333"
     inkscape:cx="12"
     inkscape:cy="12"
     inkscape:window-x="0"
     inkscape:window-y="19"
     inkscape:window-maximized="1"
     inkscape:current-layer="svg2" />
  <path
     d="M 12 4 C 9.11 4 6.59375 5.63125 5.34375 8.03125 C 2.33375 8.35125 -1.1842379e-15 10.91 0 14 C 0 17.31 2.69 20 6 20 L 19 20 C 21.76 20 24 17.76 24 15 C 24 12.36 21.94375 10.21125 19.34375 10.03125 C 18.66375 6.58125 15.64 4 12 4 z M 11 6.8125 C 13.421061 6.8125 15.375 8.7664396 15.375 11.1875 C 15.375 12.273268 14.973402 13.293695 14.3125 14.0625 L 14.5 14.21875 L 15.03125 14.21875 L 18.40625 17.59375 L 17.40625 18.625 L 14.03125 15.25 L 14.03125 14.71875 L 13.84375 14.53125 C 13.074945 15.192153 12.085769 15.59375 11 15.59375 C 8.5789402 15.59375 6.625 13.608561 6.625 11.1875 C 6.625 8.7664396 8.5789402 6.8125 11 6.8125 z M 11 8.15625 C 9.3207692 8.15625 7.96875 9.5082682 7.96875 11.1875 C 7.96875 12.866731 9.3207692 14.21875 11 14.21875 C 12.679232 14.21875 14.03125 12.866731 14.03125 11.1875 C 14.03125 9.5082682 12.679232 8.15625 11 8.15625 z "
     id="path4"
     style="fill:#ffffff" />
</svg>
