<?xml version="1.0" encoding="UTF-8" standalone="no"?>
<!-- Generator: Adobe Illustrator 15.0.0, SVG Export Plug-In . SVG Version: 6.00 Build 0)  -->

<svg
   xmlns:dc="http://purl.org/dc/elements/1.1/"
   xmlns:cc="http://creativecommons.org/ns#"
   xmlns:rdf="http://www.w3.org/1999/02/22-rdf-syntax-ns#"
   xmlns:svg="http://www.w3.org/2000/svg"
   xmlns="http://www.w3.org/2000/svg"
   xmlns:sodipodi="http://sodipodi.sourceforge.net/DTD/sodipodi-0.dtd"
   xmlns:inkscape="http://www.inkscape.org/namespaces/inkscape"
   version="1.1"
   x="0px"
   y="0px"
   width="626px"
   height="626px"
   viewBox="0 0 626 626"
   enable-background="new 0 0 626 626"
   xml:space="preserve"
   id="svg2"
   inkscape:version="0.48.5 r10040"
   sodipodi:docname="ic_stat_notify.svg"><metadata
     id="metadata36"><rdf:RDF><cc:Work
         rdf:about=""><dc:format>image/svg+xml</dc:format><dc:type
           rdf:resource="http://purl.org/dc/dcmitype/StillImage" /><dc:title /></cc:Work></rdf:RDF></metadata><defs
     id="defs34" /><sodipodi:namedview
     pagecolor="#ffffff"
     bordercolor="#666666"
     borderopacity="1"
     objecttolerance="10"
     gridtolerance="10"
     guidetolerance="10"
     inkscape:pageopacity="0"
     inkscape:pageshadow="2"
     inkscape:window-width="2558"
     inkscape:window-height="1419"
     id="namedview32"
     showgrid="false"
     inkscape:zoom="1.066308"
     inkscape:cx="338.58371"
     inkscape:cy="291.05308"
     inkscape:window-x="0"
     inkscape:window-y="19"
     inkscape:window-maximized="1"
     inkscape:current-layer="svg2" /><rect
     style="fill:#000000;fill-opacity:1;stroke:none"
     id="rect3061"
     width="991.27081"
     height="833.71783"
     x="-1041.9932"
     y="-121.61116" /><path
     style="fill:#ffffff;fill-opacity:1;fill-rule:nonzero;stroke:none"
     d="M 313 67.96875 C 177.67445 67.96875 67.96875 177.67445 67.96875 313 C 67.96875 448.32555 177.67445 558.03125 313 558.03125 C 346.28067 558.03125 378.00686 551.39443 406.9375 539.375 L 361.03125 494.28125 L 349.28125 481.6875 C 337.58171 484.19233 325.44744 485.5 313 485.5 C 217.73326 485.5 140.5 408.26674 140.5 313 C 140.5 217.73326 217.73326 140.5 313 140.5 C 408.26674 140.5 485.5 217.73326 485.5 313 C 485.5 335.18469 481.31599 356.39409 473.6875 375.875 C 501.45629 405.73338 520.78366 426.83966 526.625 433.09375 C 546.61998 397.60419 558.03125 356.63734 558.03125 313 C 558.03125 177.67445 448.32555 67.96875 313 67.96875 z M 464.3125 395.90625 C 448.62246 424.4791 425.05924 448.1265 396.5625 463.9375 C 419.18842 453.23201 445.28941 433.65488 464.3125 395.90625 z "
     id="path4081" /><path
     style="fill:#94c061;fill-rule:evenodd"
     inkscape:connector-curvature="0"
     id="path14"
     d="m 415.298,-360.17398 -79.39409,79.13921 c -47.06722,-48.09353 -70.60084,-105.92166 -70.60084,-173.48607 0,-0.28376 0,-0.53694 0,-0.76463 0.15123,-61.1806 19.69177,-114.42094 58.62164,-159.72272 3.23693,-3.76198 6.6064,-7.47128 10.11011,-11.12961 1.36784,-1.42222 2.75606,-2.83933 4.16298,-4.24795 7.6463,-7.6463 15.60525,-14.72677 23.87345,-21.23972 0.28037,-0.2209 0.56413,-0.44859 0.84959,-0.67967 0.57093,-0.44859 1.13675,-0.88697 1.69918,-1.31687 0.26167,-0.2022 0.51655,-0.3993 0.76463,-0.59471 l 22.34419,-15.20764 c 1.27778,-0.77823 2.56746,-1.54286 3.86563,-2.29389 l 0,0.0425 c 0.69666,-0.40441 1.38993,-0.81391 2.08149,-1.23191 l 2.08149,-1.14694 c 0.79692,-0.4248 1.58874,-0.84959 2.37885,-1.27438 7.68708,-4.10522 15.56108,-7.75675 23.61858,-10.9597 6.87317,-2.72039 13.88398,-5.11283 21.02732,-7.17903 1.99994,-0.57772 4.01006,-1.12995 6.03208,-1.6567 20.62972,-5.38129 42.3775,-8.07109 65.24844,-8.07109 15.63073,0 30.72623,1.27438 45.28139,3.82315 5.09753,0.84959 10.19507,1.89798 15.2926,3.14348 12.84069,3.08401 25.25828,7.18922 37.25447,12.31904 23.88359,7.88391 -10.10015,24.79841 4.817,34.16003 -4.83471,78.85212 20.58246,73.23946 -44.79016,57.68053 -0.3959,-0.11214 -0.76463,-0.1988 -1.10446,-0.25487 -2.43662,-0.56583 -4.9548,-1.07558 -7.56134,-1.52926 -0.33814,-0.0561 -0.59472,-0.085 -0.76293,-0.085 -9.00735,-1.18943 -14.01822,-1.81303 -15.03943,-1.8691 l -0.085,0 c -32.2283,-2.15286 -61.39809,4.72881 -87.50766,20.64501 -7.19262,4.36179 -14.13036,9.43044 -20.81493,15.20765 -0.16992,0.11214 -0.28376,0.25487 -0.33983,0.42479 -0.22599,0.16992 -0.48087,0.39591 -0.76463,0.67967 -0.90057,0.78502 -1.79433,1.57854 -2.67451,2.37885 -3.48501,3.17576 -6.76952,6.46197 -9.85523,9.85523 -2.0628,-2.54707 -4.00156,-5.15191 -5.81969,-7.81622 1.73147,-1.93536 3.03304,-3.9166 3.90811,-5.94712 0.73745,-1.47489 1.33216,-3.00415 1.78414,-4.58778 0.79352,-2.6762 1.18943,-5.50704 1.18943,-8.49589 0,-7.49337 -2.46381,-14.00802 -7.39143,-19.54054 l -0.25488,-0.29736 c -0.12064,-0.11215 -0.27696,-0.26847 -0.46727,-0.46727 -0.11724,-0.12914 -0.24468,-0.27017 -0.38231,-0.4248 -0.0867,-0.0867 -0.17332,-0.17162 -0.25488,-0.25488 -1.07558,-1.07558 -2.23782,-2.0679 -3.48332,-2.97356 -3.84014,-2.8801 -8.10168,-4.63535 -12.78631,-5.26745 l -0.0425,0 c -0.73404,-0.16992 -1.52586,-0.25318 -2.37885,-0.25488 -0.73744,-0.11214 -1.47318,-0.16991 -2.20893,-0.16991 -0.56583,0 -1.10446,0.0578 -1.61422,0.16991 -1.13335,0 -2.23782,0.085 -3.31339,0.25488 l -0.085,0 c -0.43499,0.0697 -0.85979,0.15463 -1.27439,0.25488 l -3.73819,1.0195 c -0.74764,0.28037 -1.48508,0.59132 -2.20893,0.93455 -0.1988,0.085 -0.39591,0.16992 -0.59471,0.25488 -2.94128,1.35594 -5.66166,3.28111 -8.15606,5.7772 -0.33983,0.33984 -0.65078,0.70856 -0.93454,1.10447 -0.10535,0.11215 -0.20391,0.22599 -0.29736,0.33984 -3.23523,3.59715 -5.40169,7.6463 -6.49936,12.14912 -0.56582,2.37885 -0.84958,4.84265 -0.84958,7.39142 0,5.9896 1.54285,11.32842 4.63026,16.01475 1.11466,1.68049 2.43152,3.28112 3.95058,4.80018 2.57766,2.57765 5.3813,4.58778 8.41093,6.03208 3.82825,1.81302 8.02012,2.71869 12.57392,2.71869 3.58357,0 6.93944,-0.55224 10.06763,-1.6567 2.71699,3.67532 5.66336,7.25719 8.83573,10.7473 0.0663,-0.0901 0.13763,-0.17502 0.21239,-0.25488 -0.6066,0.81221 -1.20302,1.63291 -1.78413,2.46381 -1.18943,1.69918 -2.29389,3.39836 -3.3134,5.09753 -2.71869,4.1358 -5.23857,8.43982 -7.56134,12.91545 -0.0272,0.0561 -0.0561,0.11215 -0.085,0.16992 -1.72297,3.56997 -3.33719,7.16544 -4.84266,10.78978 -1.07558,2.72039 -2.0662,5.49344 -2.97356,8.32597 -3.85204,11.83818 -6.25807,24.44098 -7.22151,37.80671 -2.58614,36.25366 6.46198,68.69437 27.14437,97.31872 z m 272.71805,-271.95343 c -67.56645,59.01822 -26.3037,18.5581 -51.23021,-39.29349 18.15062,10.49243 35.22566,23.59139 51.23021,39.29349 z m -170.04522,100.93117 c -0.0969,-0.11724 -0.19541,-0.23109 -0.29736,-0.33983 0.43159,0.29905 0.85638,0.61 1.27438,0.93454 -0.32284,-0.2056 -0.64738,-0.4044 -0.97702,-0.59471 z"
     clip-rule="evenodd"
     sodipodi:nodetypes="ccscccccccccccccccccscccccccccccccccccccscccccccccscccccccccccscscsccccccccccccccccccc" /><path
     style="fill:#ffffff;fill-opacity:1;fill-rule:nonzero;stroke:none"
     d="m 311.15625,162.40625 c -27.54488,0.0769 -52.73447,7.08376 -75.5625,21.03125 -7.17053,4.38388 -14.10585,9.46363 -20.8125,15.21875 -0.16822,0.11215 -0.28765,0.26759 -0.34375,0.4375 -0.22599,0.16992 -0.46624,0.37248 -0.75,0.65625 -9.23333,8.0439 -17.18571,16.79238 -23.8125,26.25 -1.18942,1.69918 -2.29299,3.42582 -3.3125,5.125 -2.71868,4.1358 -5.23972,8.43061 -7.5625,12.90625 -1.75525,3.62435 -3.37699,7.25708 -4.90625,10.9375 -1.07728,2.73228 -2.09433,5.52651 -3,8.34375 -3.85373,11.84497 -6.25872,24.45356 -7.21875,37.8125 -2.46551,34.57997 5.6511,65.67368 24.34375,93.3125 3.64304,5.35072 7.69695,10.58657 12.125,15.6875 0.13594,0.15293 0.25842,0.31243 0.40625,0.46875 1.79603,2.05431 3.6428,4.02828 5.5,5.96875 3.69742,3.78237 7.48456,7.32689 11.40625,10.625 4.70162,4.02025 9.66532,7.72022 14.875,11.0625 17.04786,11.15681 36.11939,18.37004 57.1875,21.65625 10.23118,0.92672 14.45425,0.67625 25.1875,-0.8125 2.59124,-0.15462 5.03797,-0.3501 7.34375,-0.5625 8.66581,-0.79182 17.49435,-2.01315 26.5,-3.65625 l 2.375,2.40625 1.03125,1 58.4375,58.53125 25.9375,25.9375 -0.0937,0 34.15625,34.15625 c 1.99144,2.80364 4.23455,5.32638 6.71875,7.5625 10.3293,9.25882 24.91593,13.56177 43.8125,12.96875 19.99422,-0.68137 35.04377,-1.86332 45.125,-3.5625 1.6414,-0.34153 3.14066,-0.66016 4.5,-1 1.58703,-0.22769 3.04691,-0.81309 4.40625,-1.71875 0.51146,-0.33984 1.05917,-0.69784 1.625,-1.09375 l 0.25,-0.5 c 1.41541,-1.69918 2.32284,-3.54831 2.71875,-5.53125 2.32278,-9.91131 3.89398,-26.54019 4.6875,-49.875 0.50296,-17.38259 -3.67277,-31.01127 -12.5,-40.875 -2.13756,-2.36526 -4.54085,-4.49704 -7.21875,-6.4375 l -45.28125,11.875 -0.15625,0.1875 0,-0.1875 c -0.0748,0.0119 -0.15245,0.0455 -0.21875,0.0625 -0.60661,0.0663 -1.19437,0.0262 -1.75,-0.125 -0.56582,-0.33984 -1.00391,-0.80918 -1.34375,-1.375 -0.11382,-0.11215 -0.1875,-0.23633 -0.1875,-0.40625 -0.22773,-0.56752 -0.26366,-1.15292 -0.0937,-1.71875 l 0.0937,-0.0937 L 527.25,452.5 c 0.16817,-0.73574 0.13394,-1.44533 -0.0937,-2.125 -0.45198,-0.6219 -0.96543,-1.05998 -1.53125,-1.34375 -0.6236,-0.45363 -1.2938,-0.48966 -2.03125,-0.0937 l -43.03125,11.3125 -0.0312,0 0,0.0625 c -0.6236,0.11214 -1.28908,0.0714 -1.96875,-0.15625 -0.32624,-0.16142 -0.60417,-0.39864 -0.84375,-0.6875 -0.1954,-0.22259 -0.35726,-0.46284 -0.5,-0.75 l 0,-0.25 c -0.22769,-0.56582 -0.22769,-1.15766 0,-1.78125 l -0.0937,0.15625 11.8125,-43.40625 c 0.17162,-0.67797 0.0898,-1.38756 -0.25,-2.125 -0.28377,-0.6219 -0.71542,-1.17132 -1.28125,-1.625 -0.22769,-0.0578 -13.86279,-14.91591 -40.9375,-44.59375 3.34229,-6.51465 6.85725,-17.19233 10.59375,-32.03125 0.54372,-2.20043 1.05311,-4.36753 1.5,-6.5 0.92944,-4.52151 1.63902,-8.89981 2.125,-13.15625 0.79521,-7.17734 0.95132,-13.99931 0.46875,-20.4375 0.0561,-0.6236 0.0561,-1.33148 0,-2.125 -0.67967,-4.47563 -1.50701,-8.92418 -2.46875,-13.34375 -4.53,-19.4267 -13.16241,-37.58911 -25.90625,-54.46875 -2.265,-2.8886 -4.5916,-5.72997 -6.96875,-8.5625 -2.49269,-2.8886 -5.01373,-5.64516 -7.5625,-8.25 -0.77482,-0.77822 -1.56043,-1.53191 -2.34375,-2.28125 -3.16897,-3.06192 -12.49571,-11.12846 -15.8125,-13.84375 -0.0175,0.0325 -0.0449,0.0613 -0.0625,0.0937 0.019,0.0117 0.0435,0.0195 0.0625,0.0312 -15.80815,26.64295 -82.81482,28.45557 -77.23469,63.0171 1.07615,6.6653 -9.75353,-8.45181 -15.70281,7.6704 -0.007,0.0297 -0.0274,0.0654 -0.0312,0.0937 -1.8708,8.27839 -7.67138,20.68401 -14.4375,26.59375 -0.11215,0.0561 -0.26588,0.21151 -0.4375,0.4375 -0.16818,0.0561 -0.25,0.13786 -0.25,0.25 -0.16991,0.0561 -0.28765,0.13786 -0.34375,0.25 -0.73745,0.6253 -1.45006,1.2514 -2.1875,1.875 -0.17162,0.0561 -0.36133,0.17214 -0.53125,0.34375 -4.1341,3.05682 -8.31456,5.11192 -12.5625,6.1875 l -4.84375,1.03125 c -0.45368,0 -0.88534,0.0754 -1.28125,0.1875 -1.69917,0.16817 -3.43867,0.25 -5.25,0.25 l -0.53125,0 -0.5,0 -0.5,0 c -0.22769,-0.11551 -0.49918,-0.1875 -0.78125,-0.1875 l -0.40625,0 c -8.51118,-0.56073 -15.87986,-3.3597 -22.09375,-8.40625 -1.6669,-1.36614 -3.24283,-2.90476 -4.75,-4.59375 -0.22769,-0.24468 -0.46151,-0.48662 -0.6875,-0.75 l -0.1875,0 c -0.0289,-0.0305 -0.0319,-0.0666 -0.0625,-0.0937 -4.58608,-5.32523 -7.61414,-11.08331 -9.03125,-17.3125 -0.25658,-1.22681 -0.45442,-2.48581 -0.59375,-3.75 -0.32288,-2.64052 -0.40293,-5.35941 -0.25,-8.15625 l 0,-0.25 c 0.0884,-1.33046 0.2438,-2.63187 0.4375,-3.90625 0.0782,-0.47067 0.1599,-0.94238 0.25,-1.40625 0.0255,-0.15463 0.0615,-0.31412 0.0937,-0.46875 0.29226,-1.45619 0.65027,-2.87367 1.09375,-4.25 0.65759,-2.03052 1.48663,-3.96039 2.46875,-5.8125 l 0.0937,-0.21875 c 0.54714,-1.01271 1.14066,-2.00022 1.78125,-2.96875 2.04071,-3.05003 4.56175,-5.84898 7.5625,-8.40625 0.33814,-0.33983 0.69784,-0.65374 1.09375,-0.9375 5.45945,-4.83246 11.52672,-7.94703 18.1875,-9.34375 3.56657,-0.74593 7.30895,-1.01744 11.21875,-0.78125 8.17475,0.68817 15.1908,3.12846 21.09375,7.28125 0.43159,0.29906 0.86325,0.61466 1.28125,0.9375 0.59132,0.44519 1.18247,0.88564 1.75,1.375 0.31435,0.28037 0.62825,0.58954 0.9375,0.875 3.45613,3.28621 6.01957,6.87144 7.71875,10.78125 0.16991,0.33814 0.32838,0.65374 0.5,0.9375 1.54625,2.85802 2.72518,5.85246 3.5,8.96875 1.95589,6.42618 1.94908,8.21988 1.25777,14.57075 0.69428,-7.86605 29.12532,9.42629 47.82432,-0.87225 29.74605,-16.38273 53.89536,-60.71838 46.58793,-70.41036 -12.44511,-10.39363 -38.41388,-20.78513 -53.70127,-24.31939 -0.39591,-0.11385 -0.75391,-0.1939 -1.09375,-0.25 -2.43492,-0.56582 -4.95596,-1.07757 -7.5625,-1.53125 -0.33814,-0.0561 -0.61133,-0.0625 -0.78125,-0.0625 -9.00734,-1.18942 -14.01005,-1.8189 -15.03125,-1.875 l -0.0937,0 c -4.0313,-0.27208 -8.00252,-0.41724 -11.9375,-0.40625 z"
     id="path20"
     inkscape:connector-curvature="0"
     sodipodi:nodetypes="cccccccccccccccccccccccccccccccccccccccccccccccccccccccccccccccccccccccccccccscccccccccccscccscccccccccccccccccccccccccccccscccccccsc" /></svg>