<?xml version="1.0" encoding="UTF-8" standalone="no"?>
<!-- Created with Inkscape (http://www.inkscape.org/) -->

<svg
   xmlns:dc="http://purl.org/dc/elements/1.1/"
   xmlns:cc="http://creativecommons.org/ns#"
   xmlns:rdf="http://www.w3.org/1999/02/22-rdf-syntax-ns#"
   xmlns:svg="http://www.w3.org/2000/svg"
   xmlns="http://www.w3.org/2000/svg"
   xmlns:xlink="http://www.w3.org/1999/xlink"
   xmlns:sodipodi="http://sodipodi.sourceforge.net/DTD/sodipodi-0.dtd"
   xmlns:inkscape="http://www.inkscape.org/namespaces/inkscape"
   width="70.132355"
   height="71.075157"
   id="svg3275"
   version="1.1"
   inkscape:version="0.48.5 r10040"
   sodipodi:docname="New document 3">
  <defs
     id="defs3277">
    <radialGradient
       inkscape:collect="always"
       xlink:href="#linearGradient4114"
       id="radialGradient4120"
       gradientTransform="scale(1.64399,0.608276)"
       cx="15.115514"
       cy="63.965389"
       fx="15.115514"
       fy="63.965389"
       r="12.289036"
       gradientUnits="userSpaceOnUse" />
    <linearGradient
       inkscape:collect="always"
       id="linearGradient4114">
      <stop
         style="stop-color:#000000;stop-opacity:1;"
         offset="0"
         id="stop4116" />
      <stop
         style="stop-color:#000000;stop-opacity:0;"
         offset="1"
         id="stop4118" />
    </linearGradient>
    <radialGradient
       inkscape:collect="always"
       xlink:href="#linearGradient3962"
       id="radialGradient3968"
       gradientTransform="scale(0.999989,1.000011)"
       cx="18.247644"
       cy="15.716079"
       fx="18.247644"
       fy="15.716079"
       r="29.993349"
       gradientUnits="userSpaceOnUse" />
    <linearGradient
       id="linearGradient3962">
      <stop
         style="stop-color:#d3e9ff;stop-opacity:1.0000000;"
         offset="0.0000000"
         id="stop3964" />
      <stop
         style="stop-color:#d3e9ff;stop-opacity:1.0000000;"
         offset="0.15517241"
         id="stop4134" />
      <stop
         style="stop-color:#4074ae;stop-opacity:1.0000000;"
         offset="0.75000000"
         id="stop4346" />
      <stop
         style="stop-color:#36486c;stop-opacity:1.0000000;"
         offset="1.0000000"
         id="stop3966" />
    </linearGradient>
    <radialGradient
       inkscape:collect="always"
       xlink:href="#linearGradient4126"
       id="radialGradient4132"
       gradientTransform="scale(0.999989,1.000011)"
       cx="15.601279"
       cy="12.142302"
       fx="15.601279"
       fy="12.142302"
       r="43.526714"
       gradientUnits="userSpaceOnUse" />
    <linearGradient
       id="linearGradient4126">
      <stop
         style="stop-color:#ffffff;stop-opacity:1.0000000;"
         offset="0.0000000"
         id="stop4128" />
      <stop
         style="stop-color:#ffffff;stop-opacity:0.16494845;"
         offset="1.0000000"
         id="stop4130" />
    </linearGradient>
    <linearGradient
       inkscape:collect="always"
       xlink:href="#linearGradient6001"
       id="linearGradient6007"
       x1="-25.176178"
       y1="30.057165"
       x2="-22.252472"
       y2="21.041553"
       gradientUnits="userSpaceOnUse" />
    <linearGradient
       inkscape:collect="always"
       id="linearGradient6001">
      <stop
         style="stop-color:#ffffff;stop-opacity:1;"
         offset="0"
         id="stop6003" />
      <stop
         style="stop-color:#ffffff;stop-opacity:0;"
         offset="1"
         id="stop6005" />
    </linearGradient>
    <linearGradient
       inkscape:collect="always"
       xlink:href="#linearGradient6001"
       id="linearGradient6011"
       gradientUnits="userSpaceOnUse"
       x1="-25.176178"
       y1="30.057165"
       x2="-22.113543"
       y2="22.661524" />
    <radialGradient
       inkscape:collect="always"
       xlink:href="#linearGradient4825"
       id="radialGradient5987"
       gradientUnits="userSpaceOnUse"
       cx="12.071323"
       cy="12.493138"
       fx="12.071323"
       fy="12.493138"
       r="6.7175145" />
    <linearGradient
       inkscape:collect="always"
       id="linearGradient4825">
      <stop
         style="stop-color:#ffffff;stop-opacity:1;"
         offset="0"
         id="stop4827" />
      <stop
         style="stop-color:#ffffff;stop-opacity:0;"
         offset="1"
         id="stop4829" />
    </linearGradient>
    <linearGradient
       inkscape:collect="always"
       xlink:href="#linearGradient6001"
       id="linearGradient6015"
       gradientUnits="userSpaceOnUse"
       x1="-22.822565"
       y1="28.337734"
       x2="-22.113543"
       y2="22.661524" />
    <linearGradient
       inkscape:collect="always"
       xlink:href="#linearGradient6001"
       id="linearGradient6019"
       gradientUnits="userSpaceOnUse"
       x1="-21.658581"
       y1="15.649428"
       x2="-21.962101"
       y2="21.336346" />
    <radialGradient
       inkscape:collect="always"
       xlink:href="#linearGradient4825"
       id="radialGradient5983"
       gradientUnits="userSpaceOnUse"
       cx="12.071323"
       cy="12.493138"
       fx="12.071323"
       fy="12.493138"
       r="6.7175145" />
    <radialGradient
       inkscape:collect="always"
       xlink:href="#linearGradient4825"
       id="radialGradient5985"
       gradientUnits="userSpaceOnUse"
       cx="12.071323"
       cy="12.493138"
       fx="12.071323"
       fy="12.493138"
       r="6.7175145" />
    <radialGradient
       inkscape:collect="always"
       xlink:href="#linearGradient4825"
       id="radialGradient5989"
       gradientUnits="userSpaceOnUse"
       cx="12.071323"
       cy="12.493138"
       fx="12.071323"
       fy="12.493138"
       r="6.7175145" />
  </defs>
  <sodipodi:namedview
     id="base"
     pagecolor="#ffffff"
     bordercolor="#666666"
     borderopacity="1.0"
     inkscape:pageopacity="0.0"
     inkscape:pageshadow="2"
     inkscape:zoom="0.35"
     inkscape:cx="68.701965"
     inkscape:cy="-347.3207"
     inkscape:document-units="px"
     inkscape:current-layer="layer1"
     showgrid="false"
     fit-margin-top="0"
     fit-margin-left="0"
     fit-margin-right="0"
     fit-margin-bottom="0"
     inkscape:window-width="1280"
     inkscape:window-height="784"
     inkscape:window-x="0"
     inkscape:window-y="16"
     inkscape:window-maximized="0" />
  <metadata
     id="metadata3280">
    <rdf:RDF>
      <cc:Work
         rdf:about="">
        <dc:format>image/svg+xml</dc:format>
        <dc:type
           rdf:resource="http://purl.org/dc/dcmitype/StillImage" />
        <dc:title></dc:title>
      </cc:Work>
    </rdf:RDF>
  </metadata>
  <g
     inkscape:label="Layer 1"
     inkscape:groupmode="layer"
     id="layer1"
     transform="translate(-256.29803,-113.96632)">
    <g
       transform="matrix(1.6227144,0,0,1.6227144,251.95754,108.13469)"
       id="g3288">
      <path
         transform="matrix(1,0,0,1.243244,0,-10.27241)"
         d="m 45.052803,38.908627 c 0,4.128399 -9.045214,7.475128 -20.203051,7.475128 -11.157836,0 -20.2030502,-3.346729 -20.2030502,-7.475128 0,-4.1284 9.0452142,-7.475129 20.2030502,-7.475129 11.157837,0 20.203051,3.346729 20.203051,7.475129 z"
         sodipodi:ry="7.4751287"
         sodipodi:rx="20.203051"
         sodipodi:cy="38.908627"
         sodipodi:cx="24.849752"
         id="path4112"
         style="fill:url(#radialGradient4120);fill-opacity:1;stroke:none"
         sodipodi:type="arc" />
      <path
         inkscape:connector-curvature="0"
         id="path3214"
         d="m 43.959853,23.485499 c 0,10.709718 -8.682103,19.391723 -19.390348,19.391723 -10.709226,0 -19.3908387,-8.682103 -19.3908387,-19.391723 0,-10.709227 8.6816127,-19.3903473 19.3908387,-19.3903473 10.708245,0 19.390348,8.6811203 19.390348,19.3903473 l 0,0 z"
         style="fill:url(#radialGradient3968);fill-opacity:1;fill-rule:nonzero;stroke:#39396c;stroke-miterlimit:4;stroke-opacity:1" />
      <g
         transform="matrix(0.982371,0,0,0.982371,0.121079,0.232914)"
         style="fill:#204a87;fill-opacity:0.71345029;fill-rule:nonzero;stroke:none"
         id="g4136">
        <g
           style="fill:#204a87"
           id="g4138">
          <g
             style="fill:#204a87"
             id="g4142">
            <path
               inkscape:connector-curvature="0"
               style="fill:#204a87"
               id="path4144"
               d="m 44.0713,20.7144 c 0,0.2627 0,0 0,0 l -0.5449,0.6172 c -0.334,-0.3936 -0.709,-0.7246 -1.0898,-1.0703 l -0.8359,0.123 -0.7637,-0.8633 0,1.0684 0.6543,0.4951 0.4355,0.4932 0.582,-0.6582 c 0.1465,0.2744 0.291,0.5488 0.4365,0.8232 l 0,0.8223 -0.6553,0.7402 -1.1992,0.8232 -0.9082,0.9063 -0.582,-0.6602 0.291,-0.7402 -0.5811,-0.6582 -0.9814,-2.0977 -0.8359,-0.9453 -0.2188,0.2461 0.3281,1.1934 0.6172,0.6992 c 0.3525,1.0176 0.7012,1.9902 1.1641,2.9629 0.7178,0 1.3945,-0.0762 2.1074,-0.166 l 0,0.5762 -0.8721,2.1392 -0.7998,0.9043 -0.6543,1.4004 c 0,0.7676 0,1.5352 0,2.3027 l 0.2188,0.9063 -0.3633,0.4102 -0.8008,0.4941 -0.8359,0.6992 0.6914,0.7813 -0.9453,0.8242 0.1816,0.5332 -1.418,1.6055 -0.9443,0 -0.7998,0.4941 -0.5098,0 0,-0.6582 -0.2168,-1.3184 c -0.2813,-0.8262 -0.5742,-1.6465 -0.8721,-2.4668 0,-0.6055 0.0361,-1.2051 0.0723,-1.8105 l 0.3643,-0.8223 -0.5098,-0.9883 0.0371,-1.3574 -0.6914,-0.7813 0.3457,-1.1309 -0.5625,-0.6382 -0.9824,0 -0.3271,-0.3701 -0.9814,0.6177 -0.3994,-0.4536 -0.9092,0.7817 c -0.6172,-0.6997 -1.2354,-1.3989 -1.8535,-2.0981 l -0.7266,-1.7285 0.6543,-0.9863 -0.3633,-0.4111 0.7988,-1.8936 c 0.6563,-0.8164 1.3418,-1.5996 2.0352,-2.3857 l 1.2363,-0.3291 1.3809,-0.1641 0.9453,0.2471 1.3447,1.3564 0.4727,-0.5342 0.6533,-0.082 1.2363,0.4111 0.9453,0 0.6543,-0.5762 0.291,-0.4111 -0.6553,-0.4111 -1.0908,-0.082 c -0.3027,-0.4199 -0.584,-0.8613 -0.9434,-1.2344 l -0.3643,0.1641 -0.1455,1.0703 -0.6543,-0.7402 -0.1445,-0.8242 -0.7266,-0.5742 -0.292,0 0.7275,0.8223 -0.291,0.7402 -0.5811,0.1641 0.3633,-0.7402 -0.6553,-0.3281 -0.5801,-0.6582 -1.0918,0.2461 -0.1445,0.3281 -0.6543,0.4121 -0.3633,0.9053 -0.9082,0.4521 -0.4004,-0.4521 -0.4355,0 0,-1.4814 0.9453,-0.4941 0.7266,0 -0.1465,-0.5752 -0.5801,-0.5762 0.9805,-0.2061 0.5449,-0.6162 0.4355,-0.7412 0.8008,0 -0.2188,-0.5752 0.5098,-0.3291 0,0.6582 1.0898,0.2461 1.0898,-0.9043 0.0732,-0.4121 0.9443,-0.6577 c -0.3418,0.0425 -0.6836,0.0737 -1.0176,0.1646 l 0,-0.7411 0.3633,-0.8228 -0.3633,0 -0.7984,0.7402 -0.2188,0.4116 0.2188,0.5767 -0.3643,0.9863 -0.5811,-0.3291 -0.5078,-0.5752 -0.8008,0.5752 -0.291,-1.3159 1.3809,-0.9048 0,-0.4941 0.873,-0.5757 1.3809,-0.3296 0.9453,0.3296 1.7441,0.3291 -0.4355,0.4932 -0.9453,0 0.9453,0.9873 0.7266,-0.8223 0.2207,-0.3618 c 0,0 2.7871,2.498 4.3799,5.2305 1.5928,2.7334 2.3408,5.9551 2.3408,6.6094 z" />
          </g>
        </g>
        <g
           style="fill:#204a87"
           id="g4146">
          <g
             style="fill:#204a87"
             id="g4150">
            <path
               inkscape:connector-curvature="0"
               style="fill:#204a87"
               id="path4152"
               d="m 26.0703,9.2363 -0.0732,0.4932 0.5098,0.3291 0.8711,-0.5757 -0.4355,-0.4937 -0.582,0.3296 -0.29,-0.0825" />
          </g>
        </g>
        <g
           style="fill:#204a87"
           id="g4154">
          <g
             style="fill:#204a87"
             id="g4158">
            <path
               inkscape:connector-curvature="0"
               style="fill:#204a87"
               id="path4160"
               d="m 26.8701,5.8633 -1.8906,-0.7407 -2.1797,0.2466 -2.6904,0.7402 -0.5088,0.4941 1.6719,1.1514 0,0.6582 -0.6543,0.6582 0.873,1.729 0.5801,-0.3301 0.7285,-1.1514 c 1.123,-0.3472 2.1299,-0.7407 3.1973,-1.2344 l 0.873,-2.2212" />
          </g>
        </g>
        <g
           style="fill:#204a87"
           id="g4162">
          <g
             style="fill:#204a87"
             id="g4166">
            <path
               inkscape:connector-curvature="0"
               style="fill:#204a87"
               id="path4168"
               d="m 28.833,12.7749 -0.291,-0.7412 -0.5098,0.165 0.1465,0.9043 0.6543,-0.3281" />
          </g>
        </g>
        <g
           style="fill:#204a87"
           id="g4170">
          <g
             style="fill:#204a87"
             id="g4174">
            <path
               inkscape:connector-curvature="0"
               style="fill:#204a87"
               id="path4176"
               d="m 29.123,12.6089 -0.1455,0.9883 0.7998,-0.165 0.5811,-0.5752 -0.5088,-0.4941 C 29.6787,11.9078 29.4824,11.483 29.2685,11.0465 l -0.4355,0 0,0.4932 0.29,0.3291 0,0.7402" />
          </g>
        </g>
        <g
           style="fill:#204a87"
           id="g4178">
          <g
             style="fill:#204a87"
             id="g4182">
            <path
               inkscape:connector-curvature="0"
               style="fill:#204a87"
               id="path4184"
               d="m 18.3652,28.2422 -0.582,-1.1523 -1.0903,-0.2466 -0.5815,-1.5625 -1.4536,0.1641 -1.2354,-0.9043 -1.3091,1.1514 0,0.1816 c -0.396,-0.1143 -0.8828,-0.1299 -1.2354,-0.3467 l -0.291,-0.8223 0,-0.9053 -0.8721,0.082 c 0.0728,-0.5762 0.145,-1.1514 0.2183,-1.7275 l -0.5093,0 -0.5083,0.6582 -0.5093,0.2461 -0.7271,-0.4102 -0.0728,-0.9053 0.1455,-0.9873 1.0908,-0.8223 0.8721,0 0.145,-0.4941 1.0903,0.2461 0.7998,0.9883 0.1455,-1.6465 1.3813,-1.1514 0.5088,-1.2344 1.0176,-0.4111 0.5815,-0.8223 1.3081,-0.248 0.6548,-0.9863 c -0.6543,0 -1.3086,0 -1.9629,0 l 1.2358,-0.5762 0.8716,0 1.2363,-0.4121 0.1455,-0.4922 -0.4365,-0.4121 -0.5088,-0.165 0.1455,-0.4932 -0.3633,-0.7402 -0.8726,0.3281 0.1455,-0.6577 -1.0176,-0.5762 -0.7993,1.3979 0.0723,0.4941 -0.7993,0.3301 -0.5093,1.0693 -0.2178,-0.9873 -1.3813,-0.5762 -0.2183,-0.7402 1.8174,-1.0703 0.7998,-0.7402 0.0728,-0.9048 -0.436,-0.2471 -0.5815,-0.0825 -0.3633,0.9053 c 0,0 -0.6079,0.1191 -0.7642,0.1577 -1.9961,1.8394 -6.0293,5.8101 -6.9663,13.3062 0.0371,0.1738 0.6792,1.1816 0.6792,1.1816 l 1.5264,0.9043 1.5264,0.4121 0.6548,0.8232 1.0171,0.7402 0.5815,-0.082 0.436,0.1963 0,0.1328 -0.5811,1.563 -0.4365,0.6582 0.1455,0.3301 -0.3633,1.2324 1.3086,2.3867 1.3081,1.1523 0.582,0.8223 -0.0732,1.7285 0.4365,0.9863 -0.4365,1.8926 c 0,0 -0.0342,-0.0117 0.0215,0.1777 0.0562,0.1895 2.3291,1.4512 2.4736,1.3438 0.144,-0.1094 0.2671,-0.2051 0.2671,-0.2051 l -0.145,-0.4102 0.5811,-0.5762 0.2183,-0.5762 0.9453,-0.3301 0.7266,-1.8105 -0.2178,-0.4922 0.5078,-0.7402 1.0908,-0.248 0.582,-1.3164 -0.1455,-1.6445 0.8721,-1.2344 0.1455,-1.2344 C 20.7331,29.4607 19.5495,28.8513 18.365,28.242" />
          </g>
        </g>
        <g
           style="fill:#204a87"
           id="g4186">
          <g
             style="fill:#204a87"
             id="g4190">
            <path
               inkscape:connector-curvature="0"
               style="fill:#204a87"
               id="path4192"
               d="m 16.7656,9.5649 0.7266,0.4937 0.582,0 0,-0.5757 -0.7266,-0.3291 -0.582,0.4111" />
          </g>
        </g>
        <g
           style="fill:#204a87"
           id="g4194">
          <g
             style="fill:#204a87"
             id="g4198">
            <path
               inkscape:connector-curvature="0"
               style="fill:#204a87"
               id="path4200"
               d="m 14.876,8.9072 -0.3638,0.9048 0.7271,0 0.3638,-0.8228 C 15.9166,8.7675 16.2286,8.5444 16.5479,8.331 l 0.7271,0.2471 c 0.4844,0.3291 0.9688,0.6582 1.4536,0.9868 L 19.4561,8.9072 18.6558,8.5781 18.292,7.8374 16.9111,7.6728 16.8383,7.2612 16.184,7.4262 15.8936,8.002 15.5298,7.2613 l -0.145,0.3291 0.0728,0.8228 -0.5816,0.494" />
          </g>
        </g>
        <g
           style="fill:#204a87"
           id="g4202">
          <g
             id="g4204"
             style="opacity:0.75;fill:#204a87">
            <path
               inkscape:connector-curvature="0"
               style="fill:#204a87"
               d=""
               id="path4206" />
          </g>
          <g
             style="fill:#204a87"
             id="g4208">
            <path
               inkscape:connector-curvature="0"
               style="fill:#204a87"
               d=""
               id="path4210" />
          </g>
        </g>
        <g
           style="fill:#204a87"
           id="g4212">
          <g
             id="g4214"
             style="opacity:0.75;fill:#204a87">
            <path
               inkscape:connector-curvature="0"
               style="fill:#204a87"
               d=""
               id="path4216" />
          </g>
          <g
             style="fill:#204a87"
             id="g4218">
            <path
               inkscape:connector-curvature="0"
               style="fill:#204a87"
               d=""
               id="path4220" />
          </g>
        </g>
        <g
           style="fill:#204a87"
           id="g4222">
          <g
             style="fill:#204a87"
             id="g4226">
            <path
               inkscape:connector-curvature="0"
               style="fill:#204a87"
               id="path4228"
               d="M 17.4922,6.8496 17.856,6.521 18.5831,6.3564 c 0.498,-0.2422 0.998,-0.4053 1.5264,-0.5762 l -0.29,-0.4937 -0.9385,0.1348 -0.4434,0.4419 -0.731,0.106 -0.6499,0.3052 -0.3159,0.1528 -0.1929,0.2583 0.9443,0.1641" />
          </g>
        </g>
        <g
           style="fill:#204a87"
           id="g4230">
          <g
             style="fill:#204a87"
             id="g4234">
            <path
               inkscape:connector-curvature="0"
               style="fill:#204a87"
               id="path4236"
               d="m 18.7285,14.6665 0.4365,-0.6582 -0.6548,-0.4932 0.2183,1.1514" />
          </g>
        </g>
      </g>
      <path
         inkscape:connector-curvature="0"
         id="path4122"
         d="m 42.975093,23.485534 c 0,10.16582 -8.241178,18.406906 -18.4056,18.406906 -10.165354,0 -18.4060669,-8.241179 -18.4060669,-18.406906 0,-10.165354 8.2407129,-18.4056 18.4060669,-18.4056 10.164422,0 18.4056,8.240246 18.4056,18.4056 l 0,0 z"
         style="opacity:0.39560439;fill:none;stroke:url(#radialGradient4132);stroke-miterlimit:4;stroke-opacity:1" />
      <path
         transform="matrix(1.131034,0.613097,-0.476556,0.879144,54.09058,16.04435)"
         inkscape:r_cy="true"
         inkscape:r_cx="true"
         d="m -2.8284283,21.041553 c 0,5.223263 -7.0439603,9.457553 -15.7331257,9.457553 -8.689165,0 -15.733126,-4.23429 -15.733126,-9.457553 0,-5.223262 7.043961,-9.457552 15.733126,-9.457552 8.6891654,0 15.7331257,4.23429 15.7331257,9.457552 z"
         sodipodi:ry="9.4575529"
         sodipodi:rx="15.733126"
         sodipodi:cy="21.041553"
         sodipodi:cx="-18.561554"
         id="path5991"
         style="color:#000000;fill:none;stroke:url(#linearGradient6007);stroke-width:0.88164198;stroke-linecap:round;stroke-linejoin:round;stroke-miterlimit:4;stroke-opacity:1;stroke-dasharray:none;stroke-dashoffset:0;marker:none;visibility:visible;display:inline;overflow:visible"
         sodipodi:type="arc" />
      <path
         sodipodi:type="arc"
         style="color:#000000;fill:none;stroke:url(#linearGradient6011);stroke-width:0.88164198;stroke-linecap:round;stroke-linejoin:round;stroke-miterlimit:4;stroke-opacity:1;stroke-dasharray:none;stroke-dashoffset:0;marker:none;visibility:visible;display:inline;overflow:visible"
         id="path6009"
         sodipodi:cx="-18.561554"
         sodipodi:cy="21.041553"
         sodipodi:rx="15.733126"
         sodipodi:ry="9.4575529"
         d="m -2.8284283,21.041553 c 0,5.223263 -7.0439603,9.457553 -15.7331257,9.457553 -8.689165,0 -15.733126,-4.23429 -15.733126,-9.457553 0,-5.223262 7.043961,-9.457552 15.733126,-9.457552 8.6891654,0 15.7331257,4.23429 15.7331257,9.457552 z"
         inkscape:r_cx="true"
         inkscape:r_cy="true"
         transform="matrix(0.939326,-0.879086,0.683307,0.730131,32.31406,-4.451561)" />
      <g
         id="g4933"
         transform="matrix(-1.045772,0.767251,0.767251,1.045772,35.61651,-22.14396)"
         inkscape:r_cx="true"
         inkscape:r_cy="true">
        <path
           sodipodi:type="arc"
           style="color:#000000;fill:url(#radialGradient5987);fill-opacity:1;fill-rule:evenodd;stroke:none;stroke-width:1;marker:none;visibility:visible;display:inline;overflow:visible"
           id="path4935"
           sodipodi:cx="12.071323"
           sodipodi:cy="12.493138"
           sodipodi:rx="6.7175145"
           sodipodi:ry="6.7175145"
           d="m 18.788838,12.493138 c 0,3.709981 -3.007534,6.717515 -6.717515,6.717515 -3.7099804,0 -6.7175141,-3.007534 -6.7175141,-6.717515 0,-3.7099805 3.0075337,-6.7175142 6.7175141,-6.7175142 3.709981,0 6.717515,3.0075337 6.717515,6.7175142 z"
           inkscape:r_cx="true"
           inkscape:r_cy="true"
           transform="translate(14.95026,22.93047)" />
        <path
           transform="matrix(0.308271,0,0,0.308271,23.30035,31.57234)"
           inkscape:r_cy="true"
           inkscape:r_cx="true"
           d="m 18.788838,12.493138 c 0,3.709981 -3.007534,6.717515 -6.717515,6.717515 -3.7099804,0 -6.7175141,-3.007534 -6.7175141,-6.717515 0,-3.7099805 3.0075337,-6.7175142 6.7175141,-6.7175142 3.709981,0 6.717515,3.0075337 6.717515,6.7175142 z"
           sodipodi:ry="6.7175145"
           sodipodi:rx="6.7175145"
           sodipodi:cy="12.493138"
           sodipodi:cx="12.071323"
           id="path4937"
           style="color:#000000;fill:#ffffff;fill-opacity:1;fill-rule:evenodd;stroke:none;stroke-width:1;marker:none;visibility:visible;display:inline;overflow:visible"
           sodipodi:type="arc" />
      </g>
      <path
         transform="matrix(-1.280316,-0.126159,0.09806226,-0.99518,-2.405125,40.52387)"
         inkscape:r_cy="true"
         inkscape:r_cx="true"
         d="m -2.8284283,21.041553 c 0,5.223263 -7.0439603,9.457553 -15.7331257,9.457553 -8.689165,0 -15.733126,-4.23429 -15.733126,-9.457553 0,-5.223262 7.043961,-9.457552 15.733126,-9.457552 8.6891654,0 15.7331257,4.23429 15.7331257,9.457552 z"
         sodipodi:ry="9.4575529"
         sodipodi:rx="15.733126"
         sodipodi:cy="21.041553"
         sodipodi:cx="-18.561554"
         id="path6013"
         style="color:#000000;fill:none;stroke:url(#linearGradient6015);stroke-width:0.88164198;stroke-linecap:round;stroke-linejoin:round;stroke-miterlimit:4;stroke-opacity:1;stroke-dasharray:none;stroke-dashoffset:0;marker:none;visibility:visible;display:inline;overflow:visible"
         sodipodi:type="arc" />
      <path
         transform="matrix(0.917874,-0.858983,0.667701,0.713433,27.63317,-6.909069)"
         inkscape:r_cy="true"
         inkscape:r_cx="true"
         d="m -2.8284283,21.041553 c 0,5.223263 -7.0439603,9.457553 -15.7331257,9.457553 -8.689165,0 -15.733126,-4.23429 -15.733126,-9.457553 0,-5.223262 7.043961,-9.457552 15.733126,-9.457552 8.6891654,0 15.7331257,4.23429 15.7331257,9.457552 z"
         sodipodi:ry="9.4575529"
         sodipodi:rx="15.733126"
         sodipodi:cy="21.041553"
         sodipodi:cx="-18.561554"
         id="path6017"
         style="color:#000000;fill:none;stroke:url(#linearGradient6019);stroke-width:0.90226138;stroke-linecap:round;stroke-linejoin:round;stroke-miterlimit:4;stroke-opacity:1;stroke-dasharray:none;stroke-dashoffset:0;marker:none;visibility:visible;display:inline;overflow:visible"
         sodipodi:type="arc" />
      <g
         inkscape:r_cy="true"
         inkscape:r_cx="true"
         transform="matrix(-0.806276,0.59154,0.59154,0.806276,12.38564,-18.02921)"
         id="g5075">
        <path
           sodipodi:type="arc"
           style="color:#000000;fill:url(#radialGradient5983);fill-opacity:1;fill-rule:evenodd;stroke:none;stroke-width:1;marker:none;visibility:visible;display:inline;overflow:visible"
           id="path5077"
           sodipodi:cx="12.071323"
           sodipodi:cy="12.493138"
           sodipodi:rx="6.7175145"
           sodipodi:ry="6.7175145"
           d="m 18.788838,12.493138 c 0,3.709981 -3.007534,6.717515 -6.717515,6.717515 -3.7099804,0 -6.7175141,-3.007534 -6.7175141,-6.717515 0,-3.7099805 3.0075337,-6.7175142 6.7175141,-6.7175142 3.709981,0 6.717515,3.0075337 6.717515,6.7175142 z"
           inkscape:r_cx="true"
           inkscape:r_cy="true"
           transform="translate(14.95026,22.93047)" />
        <path
           transform="matrix(0.308271,0,0,0.308271,23.30035,31.57234)"
           inkscape:r_cy="true"
           inkscape:r_cx="true"
           d="m 18.788838,12.493138 c 0,3.709981 -3.007534,6.717515 -6.717515,6.717515 -3.7099804,0 -6.7175141,-3.007534 -6.7175141,-6.717515 0,-3.7099805 3.0075337,-6.7175142 6.7175141,-6.7175142 3.709981,0 6.717515,3.0075337 6.717515,6.7175142 z"
           sodipodi:ry="6.7175145"
           sodipodi:rx="6.7175145"
           sodipodi:cy="12.493138"
           sodipodi:cx="12.071323"
           id="path5079"
           style="color:#000000;fill:#ffffff;fill-opacity:1;fill-rule:evenodd;stroke:none;stroke-width:1;marker:none;visibility:visible;display:inline;overflow:visible"
           sodipodi:type="arc" />
      </g>
      <g
         id="g4945"
         transform="matrix(-0.806276,0.59154,0.59154,0.806276,13.4991,-31.50022)"
         inkscape:r_cx="true"
         inkscape:r_cy="true">
        <path
           transform="translate(14.95026,22.93047)"
           inkscape:r_cy="true"
           inkscape:r_cx="true"
           d="m 18.788838,12.493138 c 0,3.709981 -3.007534,6.717515 -6.717515,6.717515 -3.7099804,0 -6.7175141,-3.007534 -6.7175141,-6.717515 0,-3.7099805 3.0075337,-6.7175142 6.7175141,-6.7175142 3.709981,0 6.717515,3.0075337 6.717515,6.7175142 z"
           sodipodi:ry="6.7175145"
           sodipodi:rx="6.7175145"
           sodipodi:cy="12.493138"
           sodipodi:cx="12.071323"
           id="path4947"
           style="color:#000000;fill:url(#radialGradient5985);fill-opacity:1;fill-rule:evenodd;stroke:none;stroke-width:1;marker:none;visibility:visible;display:inline;overflow:visible"
           sodipodi:type="arc" />
        <path
           sodipodi:type="arc"
           style="color:#000000;fill:#ffffff;fill-opacity:1;fill-rule:evenodd;stroke:none;stroke-width:1;marker:none;visibility:visible;display:inline;overflow:visible"
           id="path4949"
           sodipodi:cx="12.071323"
           sodipodi:cy="12.493138"
           sodipodi:rx="6.7175145"
           sodipodi:ry="6.7175145"
           d="m 18.788838,12.493138 c 0,3.709981 -3.007534,6.717515 -6.717515,6.717515 -3.7099804,0 -6.7175141,-3.007534 -6.7175141,-6.717515 0,-3.7099805 3.0075337,-6.7175142 6.7175141,-6.7175142 3.709981,0 6.717515,3.0075337 6.717515,6.7175142 z"
           inkscape:r_cx="true"
           inkscape:r_cy="true"
           transform="matrix(0.308271,0,0,0.308271,23.30035,31.57234)" />
      </g>
      <g
         inkscape:r_cy="true"
         inkscape:r_cx="true"
         transform="matrix(-0.870227,0.638572,0.638458,0.870381,25.20503,-35.31278)"
         id="g4939">
        <path
           transform="translate(14.95026,22.93047)"
           inkscape:r_cy="true"
           inkscape:r_cx="true"
           d="m 18.788838,12.493138 c 0,3.709981 -3.007534,6.717515 -6.717515,6.717515 -3.7099804,0 -6.7175141,-3.007534 -6.7175141,-6.717515 0,-3.7099805 3.0075337,-6.7175142 6.7175141,-6.7175142 3.709981,0 6.717515,3.0075337 6.717515,6.7175142 z"
           sodipodi:ry="6.7175145"
           sodipodi:rx="6.7175145"
           sodipodi:cy="12.493138"
           sodipodi:cx="12.071323"
           id="path4941"
           style="color:#000000;fill:url(#radialGradient5989);fill-opacity:1;fill-rule:evenodd;stroke:none;stroke-width:1;marker:none;visibility:visible;display:inline;overflow:visible"
           sodipodi:type="arc" />
        <path
           sodipodi:type="arc"
           style="color:#000000;fill:#ffffff;fill-opacity:1;fill-rule:evenodd;stroke:none;stroke-width:1;marker:none;visibility:visible;display:inline;overflow:visible"
           id="path4943"
           sodipodi:cx="12.071323"
           sodipodi:cy="12.493138"
           sodipodi:rx="6.7175145"
           sodipodi:ry="6.7175145"
           d="m 18.788838,12.493138 c 0,3.709981 -3.007534,6.717515 -6.717515,6.717515 -3.7099804,0 -6.7175141,-3.007534 -6.7175141,-6.717515 0,-3.7099805 3.0075337,-6.7175142 6.7175141,-6.7175142 3.709981,0 6.717515,3.0075337 6.717515,6.7175142 z"
           inkscape:r_cx="true"
           inkscape:r_cy="true"
           transform="matrix(0.308271,0,0,0.308271,23.30035,31.57234)" />
      </g>
    </g>
  </g>
</svg>
