<?xml version="1.0" encoding="UTF-8" standalone="no"?>
<svg
   xmlns:dc="http://purl.org/dc/elements/1.1/"
   xmlns:cc="http://creativecommons.org/ns#"
   xmlns:rdf="http://www.w3.org/1999/02/22-rdf-syntax-ns#"
   xmlns:svg="http://www.w3.org/2000/svg"
   xmlns="http://www.w3.org/2000/svg"
   xmlns:sodipodi="http://sodipodi.sourceforge.net/DTD/sodipodi-0.dtd"
   xmlns:inkscape="http://www.inkscape.org/namespaces/inkscape"
   width="300"
   height="300"
   id="svg2"
   version="1.1"
   inkscape:version="0.48.5 r10040"
   sodipodi:docname="linked_twitter.svg">
  <metadata
     id="metadata10">
    <rdf:RDF>
      <cc:Work
         rdf:about="">
        <dc:format>image/svg+xml</dc:format>
        <dc:type
           rdf:resource="http://purl.org/dc/dcmitype/StillImage" />
      </cc:Work>
    </rdf:RDF>
  </metadata>
  <defs
     id="defs8" />
  <sodipodi:namedview
     pagecolor="#ffffff"
     bordercolor="#666666"
     borderopacity="1"
     objecttolerance="10"
     gridtolerance="10"
     guidetolerance="10"
     inkscape:pageopacity="0"
     inkscape:pageshadow="2"
     inkscape:window-width="1280"
     inkscape:window-height="784"
     id="namedview6"
     showgrid="false"
     inkscape:zoom="0.78666667"
     inkscape:cx="150"
     inkscape:cy="150"
     inkscape:window-x="0"
     inkscape:window-y="16"
     inkscape:window-maximized="0"
     inkscape:current-layer="svg2" />
  <path
     d="m 281.28401,68.569314 c -9.65988,4.28511 -20.04313,7.179922 -30.93839,8.482259 11.12106,-6.666601 19.66371,-17.223148 23.68494,-29.802782 -10.4095,6.174287 -21.93755,10.656323 -34.20867,13.071949 -9.82529,-10.4699 -23.82542,-17.010469 -39.31956,-17.010469 -29.74895,0 -53.86976,24.118185 -53.86976,53.86714 0,4.222089 0.47656,8.333909 1.39423,12.276369 C 103.25633,107.20751 63.563924,85.760954 36.994667,53.1697 c -4.636951,7.955811 -7.294139,17.208707 -7.294139,27.081265 0,18.68959 9.510213,35.177545 23.964582,44.837425 -8.830162,-0.27963 -17.136501,-2.70314 -24.399132,-6.73749 -0.0053,0.22449 -0.0053,0.4503 -0.0053,0.67742 0,26.09926 18.56881,47.8714 43.21213,52.82081 -4.520108,1.23144 -9.279153,1.88917 -14.1918,1.88917 -3.47115,0 -6.845148,-0.33871 -10.135126,-0.96625 6.855651,21.40061 26.749116,36.97614 50.322472,37.40938 -18.436212,14.44912 -41.662979,23.06004 -66.902329,23.06004 -4.348126,0 -8.635861,-0.25469 -12.850078,-0.75357 23.839862,15.28539 52.155197,24.20483 82.576325,24.20483 99.08398,0 153.26883,-82.08401 153.26883,-153.27014 0,-2.33554 -0.0525,-4.657955 -0.15623,-6.969866 10.52504,-7.593467 19.65715,-17.081362 26.87909,-27.88341 z"
     style="fill:#3aaae1"
     id="path4"
     inkscape:connector-curvature="0" />
</svg>
