<?xml version="1.0" encoding="UTF-8" standalone="no"?><!DOCTYPE svg PUBLIC "-//W3C//DTD SVG 1.1//EN" "http://www.w3.org/Graphics/SVG/1.1/DTD/svg11.dtd"><svg width="100%" height="100%" viewBox="0 0 2978 2978" version="1.1" xmlns="http://www.w3.org/2000/svg" xmlns:xlink="http://www.w3.org/1999/xlink" xml:space="preserve" xmlns:serif="http://www.serif.com/" style="fill-rule:evenodd;clip-rule:evenodd;stroke-linejoin:round;stroke-miterlimit:1.41421;"><rect id="Tavola-da-disegno1" serif:id="Tavola da disegno1" x="0" y="0" width="2978" height="2978" style="fill:none;"/><clipPath id="_clip1"><rect x="0" y="0" width="2978" height="2978"/></clipPath><g clip-path="url(#_clip1)"><path d="M1472.59,1249.55c0,0 3.817,3.236 10.352,10.352l54.412,54.412l430.297,0l1663.63,1663.69l-1388.05,0l-1249.55,-1249.55l0.001,-0.001l96.383,-96.383l-192.048,-192.048c10.166,-70.097 41.824,-133.272 88.065,-182.618l239.324,239.324l247.181,-247.18Z" style="fill:url(#_Linear2);"/><path id="Main" d="M1055.61,1200.51c51.688,-31.936 112.582,-50.371 177.749,-50.371c123.135,0 231.018,65.82 290.355,164.168l443.94,0l115.848,115.873l0,58.816l-115.848,115.873l-95.214,0l-47.492,-91.206l-13.937,0l-47.492,91.206l-14.214,0l-47.492,-91.206l-13.937,0l-47.493,91.206l-88.528,0c-47.376,130.031 -172.166,222.984 -318.496,222.984c-65.422,0 -126.539,-18.58 -178.357,-50.747l-0.564,-0.351c-95.999,-59.853 -159.936,-166.398 -159.936,-287.759c0,-121.598 64.188,-228.323 160.5,-288.11l0.608,-0.376Zm-1.033,201.418c-36.056,10.698 -62.388,44.105 -62.388,83.614c0,39.663 26.538,73.177 62.813,83.738c7.74,2.253 15.923,3.462 24.386,3.462c48.127,0 87.2,-39.073 87.2,-87.2c0,-48.127 -39.073,-87.2 -87.2,-87.2c-8.463,0 -16.646,1.208 -24.386,3.461l-0.425,0.125Z" style="fill:#818080;"/><clipPath id="_clip3"><path d="M1055.61,1200.51c51.688,-31.936 112.582,-50.371 177.749,-50.371c123.135,0 231.018,65.82 290.355,164.168l443.94,0l115.848,115.873l0,58.816l-115.848,115.873l-95.214,0l-47.492,-91.206l-13.937,0l-47.492,91.206l-14.214,0l-47.492,-91.206l-13.937,0l-47.493,91.206l-88.528,0c-47.376,130.031 -172.166,222.984 -318.496,222.984c-65.422,0 -126.539,-18.58 -178.357,-50.747l-0.564,-0.351c-95.999,-59.853 -159.936,-166.398 -159.936,-287.759c0,-121.598 64.188,-228.323 160.5,-288.11l0.608,-0.376Zm-1.033,201.418c-36.056,10.698 -62.388,44.105 -62.388,83.614c0,39.663 26.538,73.177 62.813,83.738c7.74,2.253 15.923,3.462 24.386,3.462c48.127,0 87.2,-39.073 87.2,-87.2c0,-48.127 -39.073,-87.2 -87.2,-87.2c-8.463,0 -16.646,1.208 -24.386,3.461l-0.425,0.125Z"/></clipPath><g clip-path="url(#_clip3)"><rect x="1447.79" y="1168.16" width="662.418" height="634.775" style="fill:#c1bebe;"/><path d="M2083.5,1396.84l0,71.871l-563.339,0l0,-92.98l347.261,0l21.109,21.109l194.969,0Z" style="fill:#989898;"/><rect x="1447.79" y="1429.51" width="662.418" height="373.427" style="fill:#dddbda;"/></g></g><defs><linearGradient id="_Linear2" x1="0" y1="0" x2="1" y2="0" gradientUnits="userSpaceOnUse" gradientTransform="matrix(1553.5,1553.5,-1553.5,1553.5,308.67,1272)"><stop offset="0" style="stop-color:#000;stop-opacity:1"/><stop offset="0.47" style="stop-color:#000;stop-opacity:0.223529"/><stop offset="1" style="stop-color:#000;stop-opacity:0"/></linearGradient></defs></svg>