<?xml version="1.0" encoding="UTF-8" standalone="no"?>
<!-- Created with Inkscape (http://www.inkscape.org/) -->

<svg
   xmlns:svg="http://www.w3.org/2000/svg"
   xmlns="http://www.w3.org/2000/svg"
   xmlns:xlink="http://www.w3.org/1999/xlink"
   version="1.0"
   width="128"
   height="128"
   id="svg2108">
  <defs
     id="defs3">
    <linearGradient
       id="linearGradient4356">
      <stop
         id="stop4358"
         style="stop-color:#000000;stop-opacity:1"
         offset="0" />
      <stop
         id="stop4360"
         style="stop-color:#000000;stop-opacity:0"
         offset="1" />
    </linearGradient>
    <linearGradient
       id="linearGradient4344">
      <stop
         id="stop4346"
         style="stop-color:#727e0a;stop-opacity:1"
         offset="0" />
      <stop
         id="stop4348"
         style="stop-color:#5b6508;stop-opacity:1"
         offset="1" />
    </linearGradient>
    <linearGradient
       id="linearGradient4338">
      <stop
         id="stop4340"
         style="stop-color:#e9b15e;stop-opacity:1"
         offset="0" />
      <stop
         id="stop4342"
         style="stop-color:#966416;stop-opacity:1"
         offset="1" />
    </linearGradient>
    <linearGradient
       id="linearGradient3824">
      <stop
         id="stop3826"
         style="stop-color:#ffffff;stop-opacity:1"
         offset="0" />
      <stop
         id="stop3828"
         style="stop-color:#c9c9c9;stop-opacity:1"
         offset="1" />
    </linearGradient>
    <linearGradient
       id="linearGradient3816">
      <stop
         id="stop3818"
         style="stop-color:#000000;stop-opacity:1"
         offset="0" />
      <stop
         id="stop3820"
         style="stop-color:#000000;stop-opacity:0"
         offset="1" />
    </linearGradient>
    <linearGradient
       id="linearGradient5048">
      <stop
         id="stop5050"
         style="stop-color:#000000;stop-opacity:0"
         offset="0" />
      <stop
         id="stop5056"
         style="stop-color:#000000;stop-opacity:1"
         offset="0.5" />
      <stop
         id="stop5052"
         style="stop-color:#000000;stop-opacity:0"
         offset="1" />
    </linearGradient>
    <linearGradient
       id="linearGradient5060">
      <stop
         id="stop5062"
         style="stop-color:#000000;stop-opacity:1"
         offset="0" />
      <stop
         id="stop5064"
         style="stop-color:#000000;stop-opacity:0"
         offset="1" />
    </linearGradient>
    <linearGradient
       id="linearGradient6732">
      <stop
         id="stop6734"
         style="stop-color:#ffffff;stop-opacity:1"
         offset="0" />
      <stop
         id="stop6736"
         style="stop-color:#dddddd;stop-opacity:1"
         offset="1" />
    </linearGradient>
    <linearGradient
       x1="22.686766"
       y1="36.3904"
       x2="21.408455"
       y2="35.739632"
       id="linearGradient6958"
       xlink:href="#linearGradient4356"
       gradientUnits="userSpaceOnUse"
       gradientTransform="matrix(-0.977685,0.210075,0.210075,0.977685,61.56807,-4.448329)" />
    <linearGradient
       x1="20.661695"
       y1="35.817974"
       x2="22.626925"
       y2="36.217758"
       id="linearGradient6956"
       xlink:href="#linearGradient4356"
       gradientUnits="userSpaceOnUse"
       gradientTransform="matrix(0.983375,0.181588,-0.181588,0.983375,12.69019,-3.154589)" />
    <linearGradient
       x1="30.935921"
       y1="29.553486"
       x2="30.935921"
       y2="35.803486"
       id="linearGradient6954"
       xlink:href="#linearGradient3824"
       gradientUnits="userSpaceOnUse"
       gradientTransform="translate(7.344424,-0.329669)" />
    <radialGradient
       cx="29.344931"
       cy="17.064077"
       r="9.1620579"
       fx="29.344931"
       fy="17.064077"
       id="radialGradient6952"
       xlink:href="#linearGradient4338"
       gradientUnits="userSpaceOnUse"
       gradientTransform="matrix(0.787998,0,0,0.787998,6.221198,3.617627)" />
    <radialGradient
       cx="31.112698"
       cy="19.008621"
       r="8.6620579"
       fx="31.112698"
       fy="19.008621"
       id="radialGradient6950"
       xlink:href="#linearGradient3816"
       gradientUnits="userSpaceOnUse" />
    <radialGradient
       cx="16.214741"
       cy="19.836468"
       r="13.56536"
       fx="16.214741"
       fy="19.836468"
       id="radialGradient6948"
       xlink:href="#linearGradient4344"
       gradientUnits="userSpaceOnUse"
       gradientTransform="matrix(1,0,0,0.681917,19.76231,14.9041)" />
    <linearGradient
       x1="302.85715"
       y1="366.64789"
       x2="302.85715"
       y2="609.50507"
       id="linearGradient5027"
       xlink:href="#linearGradient5048"
       gradientUnits="userSpaceOnUse"
       gradientTransform="matrix(2.774389,0,0,1.969706,-1892.179,-872.8854)" />
    <radialGradient
       cx="605.71429"
       cy="486.64789"
       r="117.14286"
       fx="605.71429"
       fy="486.64789"
       id="radialGradient5029"
       xlink:href="#linearGradient5060"
       gradientUnits="userSpaceOnUse"
       gradientTransform="matrix(2.774389,0,0,1.969706,-1891.633,-872.8854)" />
    <radialGradient
       cx="605.71429"
       cy="486.64789"
       r="117.14286"
       fx="605.71429"
       fy="486.64789"
       id="radialGradient5031"
       xlink:href="#linearGradient5060"
       gradientUnits="userSpaceOnUse"
       gradientTransform="matrix(-2.774389,0,0,1.969706,112.7623,-872.8854)" />
    <linearGradient
       x1="16.25"
       y1="12.25"
       x2="31.5"
       y2="36.625"
       id="linearGradient32693"
       xlink:href="#linearGradient6732"
       gradientUnits="userSpaceOnUse"
       gradientTransform="matrix(2.6999982,0,0,2.4371998,-0.4204883,15.61865)" />
  </defs>
  <g
     id="layer1"
     style="display:inline" />
  <g
     id="layer2"
     style="display:inline">
    <g
       transform="matrix(0.06083234,0,0,0.03621052,118.14945,106.06099)"
       id="g5022"
       style="display:inline">
      <rect
         width="1339.6335"
         height="478.35718"
         x="-1559.2523"
         y="-150.69685"
         id="rect4173"
         style="opacity:0.40206185;fill:url(#linearGradient5027);fill-opacity:1;fill-rule:nonzero;stroke:none;stroke-width:1;marker:none;visibility:visible;display:inline;overflow:visible" />
      <path
         d="m -219.61876,-150.68038 c 0,0 0,478.33079 0,478.33079 142.874166,0.90045 345.40022,-107.16966 345.40014,-239.196175 0,-132.026537 -159.436816,-239.134595 -345.40014,-239.134615 z"
         id="path5058"
         style="opacity:0.40206185;fill:url(#radialGradient5029);fill-opacity:1;fill-rule:nonzero;stroke:none;stroke-width:1;marker:none;visibility:visible;display:inline;overflow:visible" />
      <path
         d="m -1559.2523,-150.68038 c 0,0 0,478.33079 0,478.33079 -142.8742,0.90045 -345.4002,-107.16966 -345.4002,-239.196175 0,-132.026537 159.4368,-239.134595 345.4002,-239.134615 z"
         id="path5018"
         style="opacity:0.40206185;fill:url(#radialGradient5031);fill-opacity:1;fill-rule:nonzero;stroke:none;stroke-width:1;marker:none;visibility:visible;display:inline;overflow:visible" />
    </g>
    <rect
       width="106.98741"
       height="73.115997"
       rx="6.7022996"
       ry="6.7022996"
       x="10.379504"
       y="37.553448"
       id="rect5857"
       style="fill:url(#linearGradient32693);fill-opacity:1;fill-rule:evenodd;stroke:#939393;stroke-width:2.43719983;stroke-linecap:butt;stroke-linejoin:miter;stroke-miterlimit:4;stroke-opacity:1;stroke-dasharray:none;stroke-dashoffset:0;marker:none;visibility:visible;display:inline;overflow:visible" />
    <rect
       width="102.12093"
       height="67.611237"
       rx="4.2651005"
       ry="4.2651"
       x="12.802749"
       y="40.30584"
       id="rect6740"
       style="fill:none;stroke:#ffffff;stroke-width:2.43720031;stroke-linecap:butt;stroke-linejoin:miter;stroke-miterlimit:4;stroke-opacity:1;stroke-dasharray:none;stroke-dashoffset:0;marker:none;visibility:visible;display:inline;overflow:visible" />
    <g
       transform="matrix(1.0596945,0,0,1.0596945,-5.890737,37.41075)"
       id="g6935">
      <path
         d="m 32.623488,41.30637 10.606602,0 c 3.005204,0 5.980484,-1.101932 7.071067,-4.242641 1.035639,-2.982476 0.176777,-8.662058 -6.540737,-13.258252 l -12.551146,0 c -6.717514,4.24264 -7.556991,10.044831 -6.010407,13.435028 1.575595,3.45379 4.24264,4.065865 7.424621,4.065865 z"
         id="path2329"
         style="fill:url(#radialGradient6948);fill-opacity:1;fill-rule:evenodd;stroke:#404604;stroke-width:2.29990602px;stroke-linecap:round;stroke-linejoin:round;stroke-miterlimit:4;stroke-opacity:1;stroke-dasharray:none;stroke-dashoffset:0;marker:none;visibility:visible;display:inline;overflow:visible" />
      <path
         d="m 37.694681,26.457128 c 0,0 -2.151323,1.660335 -1.965991,3.660533 -2.041226,-1.800794 -2.099873,-5.251524 -2.099873,-5.251524 l 4.065864,1.590991 z"
         id="path3812"
         style="fill:#9db029;fill-opacity:1;fill-rule:evenodd;stroke:none;stroke-width:1px;marker:none;visibility:visible;display:inline;overflow:visible" />
      <path
         d="m 33.2112,39.482542 9.297094,0 c 2.378845,0 4.734002,-0.872261 5.59728,-3.358368 0.819787,-2.360854 -0.08536,-6.85667 -5.402777,-10.494902 l -10.38576,0 c -5.317416,3.358368 -6.207218,7.951238 -4.982982,10.634833 1.247203,2.733935 3.358368,3.218437 5.877145,3.218437 z"
         id="path3838"
         style="opacity:0.21518986;fill:none;stroke:#ffffff;stroke-width:2.29990482px;stroke-linecap:round;stroke-linejoin:round;stroke-miterlimit:4;stroke-opacity:1;stroke-dasharray:none;stroke-dashoffset:0;marker:none;visibility:visible;display:inline;overflow:visible" />
      <path
         d="m 38.673109,26.457128 c 0,0 2.151323,1.660335 1.965991,3.660533 2.041226,-1.800794 2.099873,-5.251524 2.099873,-5.251524 l -4.065864,1.590991 z"
         id="path3810"
         style="fill:#9db029;fill-opacity:1;fill-rule:evenodd;stroke:none;stroke-width:1px;marker:none;visibility:visible;display:inline;overflow:visible" />
      <path
         d="m 39.774755,19.008621 a 8.6620579,8.6620579 0 1 1 -17.324115,0 8.6620579,8.6620579 0 1 1 17.324115,0 z"
         transform="translate(6.512314,3.170331)"
         id="path3814"
         style="fill:url(#radialGradient6950);fill-opacity:1;fill-rule:evenodd;stroke:none;stroke-width:1px;marker:none;visibility:visible;display:inline;overflow:visible" />
      <path
         d="m 39.774755,19.008621 a 8.6620579,8.6620579 0 1 1 -17.324115,0 8.6620579,8.6620579 0 1 1 17.324115,0 z"
         transform="translate(6.637314,-0.329669)"
         id="path2327"
         style="fill:url(#radialGradient6952);fill-opacity:1;fill-rule:evenodd;stroke:#6f4709;stroke-width:2.29990602px;stroke-linecap:round;stroke-linejoin:round;stroke-miterlimit:4;stroke-opacity:1;stroke-dasharray:none;stroke-dashoffset:0;marker:none;visibility:visible;display:inline;overflow:visible" />
      <path
         d="m 39.774755,19.008621 a 8.6620579,8.6620579 0 1 1 -17.324115,0 8.6620579,8.6620579 0 1 1 17.324115,0 z"
         transform="matrix(0.747377,0,0,0.747377,14.49712,4.47236)"
         id="path3834"
         style="opacity:0.12658231;fill:none;stroke:#ffffff;stroke-width:3.07730651px;stroke-linecap:round;stroke-linejoin:round;stroke-miterlimit:4;stroke-opacity:1;stroke-dasharray:none;stroke-dashoffset:0;marker:none;visibility:visible;display:inline;overflow:visible" />
      <path
         d="m 42.346208,33.704972 4.24264,0 -2.474873,-2.298097 -0.53033,0.707107 -0.530331,-0.53033 -0.707106,2.12132 z"
         id="path4173"
         style="fill:url(#linearGradient6954);fill-opacity:1;fill-rule:evenodd;stroke:none;stroke-width:1px;marker:none;visibility:visible;display:inline;overflow:visible" />
      <path
         d="m 28.310268,40.272078 c -1.247607,-0.544969 -1.805994,-1.858277 -1.805994,-1.858277 0.841281,-4.069136 3.719925,-7.046216 3.719925,-7.046216 0,0 -2.279321,6.411514 -1.913931,8.904493 z"
         id="path4368"
         style="opacity:0.22784807;fill:url(#linearGradient6956);fill-opacity:1;fill-rule:evenodd;stroke:none;stroke-width:1px;marker:none;visibility:visible;display:inline;overflow:visible" />
      <path
         d="m 47.215975,39.413727 c 1.231251,-0.580978 1.80438,-2.002321 1.80438,-2.002321 -0.95912,-4.042983 -3.976149,-6.842821 -3.976149,-6.842821 0,0 2.464593,6.342602 2.171769,8.845142 z"
         id="path4370"
         style="opacity:0.22784807;fill:url(#linearGradient6958);fill-opacity:1;fill-rule:evenodd;stroke:none;stroke-width:1px;marker:none;visibility:visible;display:inline;overflow:visible" />
    </g>
    <path
       d="m 56.173243,55.231604 c -2e-6,0.918717 -0.215787,1.623282 -0.647352,2.113698 -0.431569,0.48715 -1.02007,0.730724 -1.765502,0.730724 -0.304061,0 -0.59504,-0.05722 -0.872944,-0.171647 l 0,-1.304512 c 0.245209,0.186361 0.516574,0.27954 0.814093,0.27954 0.366177,0 0.640813,-0.135681 0.823902,-0.407047 0.186356,-0.274633 0.279537,-0.684948 0.279537,-1.230949 l 0,-4.350004 1.368266,0 0,4.340197 m 3.820355,-2.51094 c 0.765047,5e-6 1.3748,0.235407 1.829257,0.706201 0.454448,0.470806 0.681675,1.103444 0.68168,1.897918 -5e-6,0.863137 -0.243579,1.536642 -0.730721,2.020519 -0.487153,0.480611 -1.141043,0.720914 -1.961671,0.720916 -0.755246,-2e-6 -1.369901,-0.237037 -1.84397,-0.711106 -0.470802,-0.47407 -0.706203,-1.095266 -0.706201,-1.863588 -2e-6,-0.863132 0.246842,-1.539908 0.740529,-2.030329 0.493686,-0.493681 1.157384,-0.740526 1.991097,-0.740531 m -0.112796,4.291156 c 0.398869,0 0.722544,-0.14222 0.971026,-0.426664 0.251744,-0.287711 0.377618,-0.678409 0.377623,-1.172098 -5e-6,-0.500223 -0.124244,-0.894191 -0.372719,-1.181908 -0.248482,-0.290977 -0.567253,-0.436468 -0.956313,-0.43647 -0.385799,2e-6 -0.712745,0.152032 -0.980837,0.456087 -0.268097,0.300792 -0.402142,0.698032 -0.402142,1.191716 0,0.48715 0.130777,0.871311 0.392335,1.152481 0.264824,0.277904 0.588499,0.416856 0.971027,0.416856 m 8.332196,0.912176 -1.314318,0 0,-2.751243 c -5e-6,-0.460989 -0.0703,-0.794474 -0.210882,-1.000451 -0.140589,-0.209241 -0.380892,-0.313865 -0.720914,-0.313868 -0.297521,3e-6 -0.544365,0.112799 -0.740528,0.338389 -0.19617,0.225594 -0.294253,0.513305 -0.294253,0.863134 l 0,2.864039 -1.329032,0 0,-7.434732 1.329032,0 0,3.114152 c 0.179819,-0.294246 0.403776,-0.514934 0.671873,-0.662063 0.271362,-0.147122 0.586863,-0.220684 0.946506,-0.220689 0.552535,5e-6 0.967753,0.171652 1.245662,0.514939 0.277897,0.343297 0.416849,0.858236 0.416854,1.544817 l 0,3.143576 m 6.022331,0 -1.314321,0 0,-2.751243 c -3e-6,-0.460989 -0.0703,-0.794474 -0.210879,-1.000451 -0.14059,-0.209241 -0.380895,-0.313865 -0.720914,-0.313868 -0.297524,3e-6 -0.544366,0.112799 -0.740531,0.338389 -0.19617,0.225594 -0.294253,0.513305 -0.29425,0.863134 l 0,2.864039 -1.329032,0 0,-5.021877 1.329032,0 0,0.701297 c 0.179816,-0.294246 0.403775,-0.514934 0.671872,-0.662063 0.27136,-0.147122 0.586863,-0.220684 0.946506,-0.220689 0.552533,5e-6 0.967754,0.171652 1.24566,0.514939 0.2779,0.343297 0.416852,0.858236 0.416857,1.544817 l 0,3.143576 m 4.300963,-7.032589 2.461896,0 c 1.190077,7e-6 2.082635,0.286083 2.67768,0.858231 0.598304,0.572159 0.897458,1.428754 0.897465,2.569788 -7e-6,1.101807 -0.33676,1.978019 -1.010261,2.628639 -0.670242,0.65062 -1.579149,0.975931 -2.726722,0.975931 l -2.300058,0 0,-7.032589 m 1.368265,5.948766 0.902369,0 c 0.738891,0 1.31922,-0.220686 1.740982,-0.662063 0.425023,-0.441374 0.637537,-1.044589 0.637544,-1.809643 -7e-6,-0.742161 -0.205982,-1.319217 -0.617927,-1.731175 -0.411955,-0.411945 -0.985743,-0.61792 -1.721365,-0.617925 l -0.941603,0 0,4.820806 m 8.180167,-4.119509 c 0.765046,5e-6 1.374797,0.235407 1.829257,0.706201 0.454448,0.470806 0.681675,1.103444 0.68168,1.897918 -5e-6,0.863137 -0.243579,1.536642 -0.730721,2.020519 -0.487153,0.480611 -1.141044,0.720914 -1.961671,0.720916 -0.755246,-2e-6 -1.369903,-0.237037 -1.84397,-0.711106 -0.470804,-0.47407 -0.706203,-1.095266 -0.706203,-1.863588 0,-0.863132 0.246844,-1.539908 0.740531,-2.030329 0.493686,-0.493681 1.157384,-0.740526 1.991097,-0.740531 m -0.112796,4.291156 c 0.398869,0 0.722544,-0.14222 0.971026,-0.426664 0.251744,-0.287711 0.377618,-0.678409 0.37762,-1.172098 -2e-6,-0.500223 -0.124241,-0.894191 -0.372716,-1.181908 -0.248482,-0.290977 -0.567253,-0.436468 -0.956316,-0.43647 -0.385796,2e-6 -0.712742,0.152032 -0.980834,0.456087 -0.268097,0.300792 -0.402145,0.698032 -0.402143,1.191716 -2e-6,0.48715 0.130776,0.871311 0.392334,1.152481 0.264823,0.277904 0.588498,0.416856 0.971029,0.416856 m 8.042852,-1.309417 -3.34465,0 c -3e-6,0.411955 0.125872,0.732359 0.377622,0.961219 0.255014,0.225595 0.608116,0.338391 1.059302,0.338388 0.496953,3e-6 0.975928,-0.148759 1.436924,-0.44628 l 0,1.088729 c -0.516579,0.268094 -1.09527,0.402142 -1.736078,0.402142 -0.774864,0 -1.381346,-0.227227 -1.81945,-0.681682 -0.434838,-0.454452 -0.652256,-1.075646 -0.652256,-1.863585 0,-0.850057 0.232131,-1.52683 0.696394,-2.030332 0.46753,-0.506759 1.082185,-0.76014 1.84397,-0.760145 0.670233,5e-6 1.193346,0.209248 1.569335,0.627732 0.379253,0.415226 0.568882,0.995553 0.568887,1.740985 l 0,0.622829 m -1.226046,-0.882752 c -2e-6,-0.349828 -0.08828,-0.622826 -0.264826,-0.818996 -0.173283,-0.196163 -0.420127,-0.294246 -0.740529,-0.294251 -0.290984,5e-6 -0.542732,0.101356 -0.755244,0.304058 -0.212516,0.199441 -0.331852,0.469171 -0.358005,0.809189 l 2.118604,0"
       id="text6970"
       style="font-size:4.12102222px;font-style:normal;font-variant:normal;font-weight:bold;font-stretch:normal;text-align:start;line-height:120.00000477%;writing-mode:lr-tb;text-anchor:start;fill:#000000;fill-opacity:1;stroke:none;font-family:Segoe" />
    <rect
       width="42.346348"
       height="4.8743997"
       rx="2.5133624"
       ry="2.5133624"
       x="55.337402"
       y="65.527267"
       id="rect6978"
       style="opacity:0.3976608;fill:#8d8d8d;fill-opacity:1;fill-rule:evenodd;stroke:none;stroke-width:1;marker:none;visibility:visible;display:inline;overflow:visible" />
    <rect
       width="34.120796"
       height="4.8743997"
       rx="2.5133624"
       ry="2.5133624"
       x="55.337402"
       y="72.892845"
       id="rect6980"
       style="opacity:0.3976608;fill:#8d8d8d;fill-opacity:1;fill-rule:evenodd;stroke:none;stroke-width:1;marker:none;visibility:visible;display:inline;overflow:visible" />
    <g
       transform="matrix(2.4371998,0,0,2.030999,4.1562049,29.023249)"
       id="g7033"
       style="opacity:0.48538011">
      <rect
         width="1"
         height="6"
         rx="0"
         ry="0"
         x="6"
         y="30"
         id="rect7003"
         style="fill:#000000;fill-opacity:1;fill-rule:evenodd;stroke:none;stroke-width:1;marker:none;visibility:visible;display:inline;overflow:visible" />
      <rect
         width="1.9375"
         height="3.6000135"
         rx="0"
         ry="0"
         x="8.0846453"
         y="30"
         id="rect7005"
         style="fill:#000000;fill-opacity:1;fill-rule:evenodd;stroke:none;stroke-width:1;marker:none;visibility:visible;display:inline;overflow:visible" />
      <rect
         width="1"
         height="3.6000135"
         x="11"
         y="30"
         id="rect7007"
         style="fill:#000000;fill-opacity:1;fill-rule:evenodd;stroke:none;stroke-width:1;marker:none;visibility:visible;display:inline;overflow:visible" />
      <rect
         width="2"
         height="3.6000135"
         x="13"
         y="30"
         id="rect7009"
         style="fill:#000000;fill-opacity:1;fill-rule:evenodd;stroke:none;stroke-width:1;marker:none;visibility:visible;display:inline;overflow:visible" />
      <rect
         width="1"
         height="3.6000135"
         x="16"
         y="30"
         id="rect7011"
         style="fill:#000000;fill-opacity:1;fill-rule:evenodd;stroke:none;stroke-width:1;marker:none;visibility:visible;display:inline;overflow:visible" />
      <rect
         width="1"
         height="3.6000135"
         x="18"
         y="30"
         id="rect7013"
         style="fill:#000000;fill-opacity:1;fill-rule:evenodd;stroke:none;stroke-width:1;marker:none;visibility:visible;display:inline;overflow:visible" />
      <rect
         width="1"
         height="3.6000135"
         x="21"
         y="30"
         id="rect7015"
         style="fill:#000000;fill-opacity:1;fill-rule:evenodd;stroke:none;stroke-width:1;marker:none;visibility:visible;display:inline;overflow:visible" />
      <rect
         width="2"
         height="3.6000135"
         x="23"
         y="30"
         id="rect7017"
         style="fill:#000000;fill-opacity:1;fill-rule:evenodd;stroke:none;stroke-width:1;marker:none;visibility:visible;display:inline;overflow:visible" />
      <rect
         width="2"
         height="3.6000135"
         x="26"
         y="30"
         id="rect7019"
         style="fill:#000000;fill-opacity:1;fill-rule:evenodd;stroke:none;stroke-width:1;marker:none;visibility:visible;display:inline;overflow:visible" />
      <rect
         width="1"
         height="3.6000135"
         x="29"
         y="30"
         id="rect7021"
         style="fill:#000000;fill-opacity:1;fill-rule:evenodd;stroke:none;stroke-width:1;marker:none;visibility:visible;display:inline;overflow:visible" />
      <rect
         width="1"
         height="3.6000135"
         x="31"
         y="30"
         id="rect7023"
         style="fill:#000000;fill-opacity:1;fill-rule:evenodd;stroke:none;stroke-width:1;marker:none;visibility:visible;display:inline;overflow:visible" />
      <rect
         width="1"
         height="3.6000135"
         x="33"
         y="30"
         id="rect7025"
         style="fill:#000000;fill-opacity:1;fill-rule:evenodd;stroke:none;stroke-width:1;marker:none;visibility:visible;display:inline;overflow:visible" />
      <rect
         width="2"
         height="3.6000135"
         x="35"
         y="30"
         id="rect7027"
         style="fill:#000000;fill-opacity:1;fill-rule:evenodd;stroke:none;stroke-width:1;marker:none;visibility:visible;display:inline;overflow:visible" />
      <rect
         width="2"
         height="3.6000135"
         x="39"
         y="30"
         id="rect7029"
         style="fill:#000000;fill-opacity:1;fill-rule:evenodd;stroke:none;stroke-width:1;marker:none;visibility:visible;display:inline;overflow:visible" />
      <rect
         width="1"
         height="6"
         x="42"
         y="30"
         id="rect7031"
         style="fill:#000000;fill-opacity:1;fill-rule:evenodd;stroke:none;stroke-width:1;marker:none;visibility:visible;display:inline;overflow:visible" />
    </g>
    <path
       d="m 25.938658,100.67253 c 0.182691,0.0391 0.325065,0.12033 0.427123,0.2438 0.103314,0.12348 0.154972,0.27593 0.154974,0.45736 -2e-6,0.27845 -0.09576,0.4939 -0.287269,0.64636 -0.191514,0.15245 -0.463663,0.22868 -0.816448,0.22868 -0.118436,0 -0.240652,-0.012 -0.366646,-0.0359 -0.124735,-0.0227 -0.25388,-0.0573 -0.387435,-0.10395 l 0,-0.36853 c 0.105836,0.0617 0.221751,0.10835 0.347747,0.13985 0.125994,0.0315 0.257659,0.0473 0.394994,0.0473 0.23939,0 0.421452,-0.0473 0.546189,-0.14174 0.125993,-0.0945 0.188991,-0.23184 0.188993,-0.41201 -2e-6,-0.16631 -0.05859,-0.29609 -0.175763,-0.38932 -0.115918,-0.0945 -0.277821,-0.14175 -0.485712,-0.14175 l -0.328847,0 0,-0.31373 0.343967,0 c 0.187731,10e-6 0.331365,-0.0372 0.430903,-0.1115 0.09953,-0.0756 0.149302,-0.18395 0.149304,-0.32507 -2e-6,-0.14489 -0.05166,-0.255765 -0.154974,-0.332625 -0.102057,-0.07811 -0.248841,-0.117173 -0.440353,-0.117176 -0.104576,3e-6 -0.216712,0.01134 -0.336406,0.03402 -0.119696,0.02268 -0.251361,0.05796 -0.394995,0.105835 l 0,-0.340186 c 0.144894,-0.04032 0.280338,-0.07055 0.406334,-0.09072 0.127254,-0.02016 0.246949,-0.03024 0.359086,-0.03024 0.289787,5e-6 0.519098,0.06615 0.687933,0.198444 0.168832,0.131036 0.253248,0.308688 0.25325,0.532955 -2e-6,0.15624 -0.04473,0.28853 -0.134184,0.39689 -0.08946,0.1071 -0.216714,0.18143 -0.381765,0.22301 m 1.636676,1.2001 1.332397,0 0,0.32129 -1.791649,0 0,-0.32129 c 0.144894,-0.14993 0.342076,-0.35089 0.591546,-0.60288 0.25073,-0.25325 0.408223,-0.41642 0.472482,-0.48949 0.122214,-0.13734 0.20726,-0.25325 0.25514,-0.34775 0.04914,-0.0958 0.07371,-0.18962 0.07371,-0.2816 -10e-7,-0.14993 -0.05292,-0.272148 -0.158754,-0.366645 -0.104577,-0.0945 -0.241282,-0.141743 -0.410114,-0.141746 -0.119696,3e-6 -0.246321,0.02079 -0.379875,0.06237 -0.132295,0.04158 -0.27404,0.104578 -0.425233,0.188993 l 0,-0.385545 c 0.153713,-0.06173 0.297348,-0.108353 0.430903,-0.139854 0.133554,-0.0315 0.255769,-0.04725 0.366646,-0.04725 0.292307,5e-6 0.525397,0.07308 0.699273,0.219233 0.17387,0.146157 0.260808,0.341449 0.26081,0.585876 -2e-6,0.11592 -0.02205,0.22616 -0.06615,0.33074 -0.04284,0.10332 -0.121587,0.22553 -0.23624,0.36664 -0.0315,0.0365 -0.131668,0.14238 -0.300499,0.31751 -0.168835,0.17387 -0.406966,0.41767 -0.714392,0.7314 m 3.184525,-2.167743 -0.963861,1.506273 0.963861,0 0,-1.506273 m -0.100166,-0.332626 0.480043,0 0,1.838899 0.402552,0 0,0.31751 -0.402552,0 0,0.66525 -0.379877,0 0,-0.66525 -1.27381,0 0,-0.36854 1.173644,-1.787869 m 1.519501,0 1.498712,0 0,0.321286 -1.149076,0 0,0.691713 c 0.05544,-0.0189 0.110875,-0.0328 0.166314,-0.0416 0.05544,-0.0101 0.110873,-0.0151 0.166312,-0.0151 0.314987,0 0.564458,0.0863 0.748411,0.25892 0.183952,0.17262 0.275927,0.40634 0.27593,0.70117 -3e-6,0.30364 -0.0945,0.53988 -0.283488,0.70872 -0.188995,0.16757 -0.455474,0.25136 -0.79944,0.25136 -0.118436,0 -0.239392,-0.0101 -0.362865,-0.0302 -0.122216,-0.0202 -0.248841,-0.0504 -0.379875,-0.0907 l 0,-0.38365 c 0.113394,0.0617 0.230569,0.10772 0.351525,0.13796 0.120956,0.0302 0.248841,0.0454 0.383657,0.0454 0.217968,0 0.390583,-0.0573 0.517839,-0.17198 0.127253,-0.11466 0.190881,-0.27026 0.190881,-0.46681 0,-0.19656 -0.06363,-0.35216 -0.190881,-0.46682 -0.127256,-0.11465 -0.299871,-0.17198 -0.517839,-0.17198 -0.102058,0 -0.204113,0.0113 -0.306169,0.034 -0.100797,0.0227 -0.204113,0.058 -0.309948,0.10583 l 0,-1.417439 m 4.509363,0.251358 c -0.196553,2e-6 -0.344596,0.09702 -0.444131,0.29105 -0.09828,0.192771 -0.147416,0.483191 -0.147416,0.871251 0,0.38681 0.04914,0.67723 0.147416,0.87126 0.09954,0.19277 0.247578,0.28916 0.444131,0.28916 0.197811,0 0.345856,-0.0964 0.444133,-0.28916 0.09954,-0.19403 0.149303,-0.48445 0.149306,-0.87126 -3e-6,-0.38806 -0.04977,-0.67848 -0.149306,-0.871251 -0.09828,-0.19403 -0.246322,-0.291048 -0.444133,-0.29105 m 0,-0.302388 c 0.316246,5e-6 0.557527,0.125369 0.723844,0.376096 0.167569,0.249472 0.251355,0.612343 0.251358,1.088593 -3e-6,0.47501 -0.08379,0.83787 -0.251358,1.0886 -0.166317,0.24947 -0.407598,0.37421 -0.723844,0.37421 -0.316248,0 -0.558158,-0.12474 -0.72573,-0.37421 -0.166314,-0.25073 -0.249472,-0.61359 -0.249472,-1.0886 0,-0.47625 0.08316,-0.839121 0.249472,-1.088593 0.167572,-0.250727 0.409482,-0.376091 0.72573,-0.376096 m 1.651795,0.05103 1.498712,0 0,0.321286 -1.149074,0 0,0.691713 c 0.05544,-0.0189 0.110874,-0.0328 0.166313,-0.0416 0.05544,-0.0101 0.110875,-0.0151 0.166314,-0.0151 0.314986,0 0.564456,0.0863 0.748411,0.25892 0.18395,0.17262 0.275927,0.40634 0.27593,0.70117 -3e-6,0.30364 -0.0945,0.53988 -0.283491,0.70872 -0.188992,0.16757 -0.455473,0.25136 -0.799438,0.25136 -0.118435,0 -0.239391,-0.0101 -0.362865,-0.0302 -0.122216,-0.0202 -0.248843,-0.0504 -0.379876,-0.0907 l 0,-0.38365 c 0.113395,0.0617 0.230571,0.10772 0.351527,0.13796 0.120953,0.0302 0.248838,0.0454 0.383654,0.0454 0.217971,0 0.390583,-0.0573 0.517839,-0.17198 0.127254,-0.11466 0.190882,-0.27026 0.190884,-0.46681 -2e-6,-0.19656 -0.06363,-0.35216 -0.190884,-0.46682 -0.127256,-0.11465 -0.299868,-0.17198 -0.517839,-0.17198 -0.102058,0 -0.204113,0.0113 -0.306168,0.034 -0.100796,0.0227 -0.204113,0.058 -0.309949,0.10583 l 0,-1.417439 m 2.464465,0 1.498712,0 0,0.321286 -1.149076,0 0,0.691713 c 0.05544,-0.0189 0.110875,-0.0328 0.166314,-0.0416 0.05544,-0.0101 0.110873,-0.0151 0.166312,-0.0151 0.314989,0 0.564458,0.0863 0.748413,0.25892 0.18395,0.17262 0.275925,0.40634 0.275928,0.70117 -3e-6,0.30364 -0.0945,0.53988 -0.283488,0.70872 -0.188995,0.16757 -0.455474,0.25136 -0.79944,0.25136 -0.118436,0 -0.23939,-0.0101 -0.362865,-0.0302 -0.122216,-0.0202 -0.248841,-0.0504 -0.379875,-0.0907 l 0,-0.38365 c 0.113396,0.0617 0.230569,0.10772 0.351525,0.13796 0.120956,0.0302 0.248841,0.0454 0.383657,0.0454 0.217968,0 0.390583,-0.0573 0.517839,-0.17198 0.127253,-0.11466 0.190881,-0.27026 0.190881,-0.46681 0,-0.19656 -0.06363,-0.35216 -0.190881,-0.46682 -0.127256,-0.11465 -0.299871,-0.17198 -0.517839,-0.17198 -0.102058,0 -0.204113,0.0113 -0.306169,0.034 -0.100797,0.0227 -0.204113,0.058 -0.309948,0.10583 l 0,-1.417439 m 2.364298,0 1.81433,0 0,0.162532 -1.024341,2.659127 -0.398774,0 0.963861,-2.500373 -1.355076,0 0,-0.321286 m 3.796863,0 1.498709,0 0,0.321286 -1.149074,0 0,0.691713 c 0.05544,-0.0189 0.110874,-0.0328 0.166313,-0.0416 0.05544,-0.0101 0.110875,-0.0151 0.166314,-0.0151 0.314986,0 0.564456,0.0863 0.74841,0.25892 0.183951,0.17262 0.275928,0.40634 0.275931,0.70117 -3e-6,0.30364 -0.0945,0.53988 -0.283491,0.70872 -0.188992,0.16757 -0.455473,0.25136 -0.799438,0.25136 -0.118436,0 -0.239391,-0.0101 -0.362865,-0.0302 -0.122216,-0.0202 -0.24884,-0.0504 -0.379876,-0.0907 l 0,-0.38365 c 0.113395,0.0617 0.230571,0.10772 0.351527,0.13796 0.120953,0.0302 0.248838,0.0454 0.383654,0.0454 0.217971,0 0.390583,-0.0573 0.517839,-0.17198 0.127254,-0.11466 0.190882,-0.27026 0.190884,-0.46681 -2e-6,-0.19656 -0.06363,-0.35216 -0.190884,-0.46682 -0.127256,-0.11465 -0.299868,-0.17198 -0.517839,-0.17198 -0.102055,0 -0.204113,0.0113 -0.306168,0.034 -0.100796,0.0227 -0.204111,0.058 -0.309946,0.10583 l 0,-1.417439 m 2.52683,2.500369 0.623674,0 0,-2.152625 -0.678482,0.136077 0,-0.347747 0.674705,-0.136074 0.381763,0 0,2.500369 0.623677,0 0,0.32129 -1.625337,0 0,-0.32129 m 3.214764,-2.249011 c -0.196553,2e-6 -0.344598,0.09702 -0.444133,0.29105 -0.09828,0.192771 -0.147414,0.483191 -0.147414,0.871251 0,0.38681 0.04914,0.67723 0.147414,0.87126 0.09954,0.19277 0.24758,0.28916 0.444133,0.28916 0.19781,0 0.345856,-0.0964 0.444133,-0.28916 0.09954,-0.19403 0.149303,-0.48445 0.149303,-0.87126 0,-0.38806 -0.04977,-0.67848 -0.149303,-0.871251 -0.09828,-0.19403 -0.246323,-0.291048 -0.444133,-0.29105 m 0,-0.302388 c 0.316246,5e-6 0.557526,0.125369 0.723841,0.376096 0.167572,0.249472 0.251358,0.612343 0.251361,1.088593 -3e-6,0.47501 -0.08379,0.83787 -0.251361,1.0886 -0.166315,0.24947 -0.407595,0.37421 -0.723841,0.37421 -0.316249,0 -0.558158,-0.12474 -0.725732,-0.37421 -0.166312,-0.25073 -0.24947,-0.61359 -0.24947,-1.0886 0,-0.47625 0.08316,-0.839121 0.24947,-1.088593 0.167574,-0.250727 0.409483,-0.376091 0.725732,-0.376096 m 2.511712,1.309719 c -0.171354,0 -0.307428,0.0586 -0.408223,0.17576 -0.09954,0.11718 -0.149306,0.27783 -0.149306,0.48194 0,0.20285 0.04977,0.36349 0.149306,0.48193 0.100795,0.11717 0.236869,0.17576 0.408223,0.17576 0.171352,0 0.306797,-0.0586 0.406335,-0.17576 0.100793,-0.11844 0.151192,-0.27908 0.151194,-0.48193 -2e-6,-0.20411 -0.0504,-0.36476 -0.151194,-0.48194 -0.09954,-0.11717 -0.234983,-0.17576 -0.406335,-0.17576 m 0.75786,-1.196324 0,0.347747 c -0.09576,-0.04536 -0.192773,-0.08 -0.291048,-0.103946 -0.09702,-0.02394 -0.193404,-0.0359 -0.289159,-0.03591 -0.25199,3e-6 -0.444763,0.08505 -0.578316,0.255141 -0.132296,0.17009 -0.207893,0.42712 -0.226791,0.77109 0.07433,-0.10961 0.167572,-0.1934 0.279707,-0.25136 0.112136,-0.0592 0.235612,-0.0888 0.370425,-0.0888 0.283488,0 0.50713,0.0863 0.670925,0.25892 0.165052,0.17136 0.247578,0.40508 0.24758,0.70117 -2e-6,0.28978 -0.08568,0.52225 -0.257029,0.69738 -0.171355,0.17513 -0.399406,0.2627 -0.684154,0.2627 -0.326329,0 -0.575798,-0.12474 -0.74841,-0.37421 -0.172615,-0.25073 -0.258921,-0.61359 -0.258921,-1.0886 0,-0.44602 0.105835,-0.801322 0.317509,-1.065915 0.21167,-0.265845 0.495789,-0.398769 0.852357,-0.398774 0.09575,5e-6 0.192139,0.0095 0.289159,0.02835 0.09827,0.0189 0.200328,0.04725 0.306166,0.08505 m 2.078919,-0.06236 1.498712,0 0,0.321286 -1.149076,0 0,0.691713 c 0.05544,-0.0189 0.110875,-0.0328 0.166314,-0.0416 0.05544,-0.0101 0.110876,-0.0151 0.166315,-0.0151 0.314986,0 0.564455,0.0863 0.74841,0.25892 0.18395,0.17262 0.275928,0.40634 0.275928,0.70117 0,0.30364 -0.0945,0.53988 -0.283488,0.70872 -0.188995,0.16757 -0.455474,0.25136 -0.799438,0.25136 -0.118438,0 -0.239392,-0.0101 -0.362867,-0.0302 -0.122216,-0.0202 -0.248841,-0.0504 -0.379875,-0.0907 l 0,-0.38365 c 0.113396,0.0617 0.230572,0.10772 0.351528,0.13796 0.120953,0.0302 0.248838,0.0454 0.383654,0.0454 0.217971,0 0.390583,-0.0573 0.517839,-0.17198 0.127253,-0.11466 0.190881,-0.27026 0.190884,-0.46681 -3e-6,-0.19656 -0.06363,-0.35216 -0.190884,-0.46682 -0.127256,-0.11465 -0.299868,-0.17198 -0.517839,-0.17198 -0.102058,0 -0.204113,0.0113 -0.306169,0.034 -0.100797,0.0227 -0.204113,0.058 -0.309948,0.10583 l 0,-1.417439 m 3.509594,0.332626 -0.963863,1.506273 0.963863,0 0,-1.506273 m -0.100166,-0.332626 0.480041,0 0,1.838899 0.402554,0 0,0.31751 -0.402554,0 0,0.66525 -0.379875,0 0,-0.66525 -1.273812,0 0,-0.36854 1.173646,-1.787869 m 2.332169,0.251358 c -0.196553,2e-6 -0.344598,0.09702 -0.444134,0.29105 -0.09828,0.192771 -0.147414,0.483191 -0.147414,0.871251 0,0.38681 0.04914,0.67723 0.147414,0.87126 0.09954,0.19277 0.247581,0.28916 0.444134,0.28916 0.19781,0 0.345855,-0.0964 0.444133,-0.28916 0.09953,-0.19403 0.1493,-0.48445 0.149303,-0.87126 -3e-6,-0.38806 -0.04977,-0.67848 -0.149303,-0.871251 -0.09828,-0.19403 -0.246323,-0.291048 -0.444133,-0.29105 m 0,-0.302388 c 0.316246,5e-6 0.557526,0.125369 0.723841,0.376096 0.167572,0.249472 0.251358,0.612343 0.25136,1.088593 -2e-6,0.47501 -0.08379,0.83787 -0.25136,1.0886 -0.166315,0.24947 -0.407595,0.37421 -0.723841,0.37421 -0.316249,0 -0.558161,-0.12474 -0.725733,-0.37421 -0.166314,-0.25073 -0.249469,-0.61359 -0.249469,-1.0886 0,-0.47625 0.08316,-0.839121 0.249469,-1.088593 0.167572,-0.250727 0.409484,-0.376091 0.725733,-0.376096 m 2.51171,1.309719 c -0.171355,0 -0.307429,0.0586 -0.408224,0.17576 -0.09954,0.11718 -0.149305,0.27783 -0.149305,0.48194 0,0.20285 0.04977,0.36349 0.149305,0.48193 0.100795,0.11717 0.236869,0.17576 0.408224,0.17576 0.171352,0 0.306794,-0.0586 0.406332,-0.17576 0.100795,-0.11844 0.151194,-0.27908 0.151194,-0.48193 0,-0.20411 -0.0504,-0.36476 -0.151194,-0.48194 -0.09954,-0.11717 -0.23498,-0.17576 -0.406332,-0.17576 m 0.757859,-1.196324 0,0.347747 c -0.09576,-0.04536 -0.192773,-0.08 -0.291048,-0.103946 -0.09702,-0.02394 -0.193404,-0.0359 -0.289159,-0.03591 -0.251992,3e-6 -0.444765,0.08505 -0.578318,0.255141 -0.132294,0.17009 -0.207891,0.42712 -0.226792,0.77109 0.07434,-0.10961 0.167575,-0.1934 0.279711,-0.25136 0.112135,-0.0592 0.235609,-0.0888 0.370425,-0.0888 0.283487,0 0.507127,0.0863 0.670924,0.25892 0.165052,0.17136 0.247578,0.40508 0.247581,0.70117 -3e-6,0.28978 -0.08568,0.52225 -0.25703,0.69738 -0.171357,0.17513 -0.399406,0.2627 -0.684153,0.2627 -0.326329,0 -0.575799,-0.12474 -0.748411,-0.37421 -0.172615,-0.25073 -0.258921,-0.61359 -0.258921,-1.0886 0,-0.44602 0.105836,-0.801322 0.317509,-1.065915 0.211671,-0.265845 0.495787,-0.398769 0.852355,-0.398774 0.09575,5e-6 0.192141,0.0095 0.289159,0.02835 0.09828,0.0189 0.20033,0.04725 0.306168,0.08505 m 2.078922,-0.06236 1.498712,0 0,0.321286 -1.149076,0 0,0.691713 c 0.05544,-0.0189 0.110875,-0.0328 0.166314,-0.0416 0.05544,-0.0101 0.110873,-0.0151 0.166312,-0.0151 0.314986,0 0.564458,0.0863 0.748411,0.25892 0.183952,0.17262 0.275927,0.40634 0.27593,0.70117 -3e-6,0.30364 -0.0945,0.53988 -0.283488,0.70872 -0.188995,0.16757 -0.455474,0.25136 -0.799441,0.25136 -0.118435,0 -0.239391,-0.0101 -0.362865,-0.0302 -0.122216,-0.0202 -0.24884,-0.0504 -0.379874,-0.0907 l 0,-0.38365 c 0.113393,0.0617 0.230569,0.10772 0.351525,0.13796 0.120956,0.0302 0.24884,0.0454 0.383656,0.0454 0.217969,0 0.390584,-0.0573 0.51784,-0.17198 0.127253,-0.11466 0.190881,-0.27026 0.190881,-0.46681 0,-0.19656 -0.06363,-0.35216 -0.190881,-0.46682 -0.127256,-0.11465 -0.299871,-0.17198 -0.51784,-0.17198 -0.102057,0 -0.204113,0.0113 -0.306168,0.034 -0.100798,0.0227 -0.204113,0.058 -0.309948,0.10583 l 0,-1.417439 m 3.509592,0.332626 -0.963862,1.506273 0.963862,0 0,-1.506273 m -0.100167,-0.332626 0.480043,0 0,1.838899 0.402555,0 0,0.31751 -0.402555,0 0,0.66525 -0.379876,0 0,-0.66525 -1.27381,0 0,-0.36854 1.173643,-1.787869 m 2.379419,1.258689 c -0.171355,0 -0.307428,0.0586 -0.408224,0.17576 -0.09954,0.11718 -0.149305,0.27783 -0.149305,0.48194 0,0.20285 0.04977,0.36349 0.149305,0.48193 0.100796,0.11717 0.236869,0.17576 0.408224,0.17576 0.171352,0 0.306797,-0.0586 0.406335,-0.17576 0.100793,-0.11844 0.151191,-0.27908 0.151194,-0.48193 -3e-6,-0.20411 -0.0504,-0.36476 -0.151194,-0.48194 -0.09954,-0.11717 -0.234983,-0.17576 -0.406335,-0.17576 m 0.757859,-1.196324 0,0.347747 c -0.09576,-0.04536 -0.192772,-0.08 -0.291048,-0.103946 -0.09702,-0.02394 -0.193404,-0.0359 -0.289159,-0.03591 -0.251991,3e-6 -0.444764,0.08505 -0.578318,0.255141 -0.132294,0.17009 -0.207891,0.42712 -0.226791,0.77109 0.07434,-0.10961 0.167574,-0.1934 0.27971,-0.25136 0.112136,-0.0592 0.235609,-0.0888 0.370425,-0.0888 0.283488,0 0.50713,0.0863 0.670925,0.25892 0.165052,0.17136 0.247578,0.40508 0.24758,0.70117 -2e-6,0.28978 -0.08568,0.52225 -0.257029,0.69738 -0.171357,0.17513 -0.399406,0.2627 -0.684154,0.2627 -0.326329,0 -0.575798,-0.12474 -0.74841,-0.37421 -0.172615,-0.25073 -0.258921,-0.61359 -0.258921,-1.0886 0,-0.44602 0.105835,-0.801322 0.317508,-1.065915 0.211671,-0.265845 0.49579,-0.398769 0.852357,-0.398774 0.09575,5e-6 0.192139,0.0095 0.289157,0.02835 0.09828,0.0189 0.200331,0.04725 0.306168,0.08505 m 0.846689,-0.06236 1.498709,0 0,0.321286 -1.149074,0 0,0.691713 c 0.05544,-0.0189 0.110876,-0.0328 0.166315,-0.0416 0.05544,-0.0101 0.110873,-0.0151 0.166312,-0.0151 0.314986,0 0.564455,0.0863 0.74841,0.25892 0.183953,0.17262 0.275928,0.40634 0.27593,0.70117 -2e-6,0.30364 -0.0945,0.53988 -0.28349,0.70872 -0.188992,0.16757 -0.455473,0.25136 -0.799438,0.25136 -0.118436,0 -0.239391,-0.0101 -0.362865,-0.0302 -0.122216,-0.0202 -0.24884,-0.0504 -0.379876,-0.0907 l 0,-0.38365 c 0.113395,0.0617 0.230571,0.10772 0.351527,0.13796 0.120955,0.0302 0.24884,0.0454 0.383654,0.0454 0.217971,0 0.390583,-0.0573 0.517841,-0.17198 0.127254,-0.11466 0.19088,-0.27026 0.190882,-0.46681 -2e-6,-0.19656 -0.06363,-0.35216 -0.190882,-0.46682 -0.127258,-0.11465 -0.29987,-0.17198 -0.517841,-0.17198 -0.102055,0 -0.204113,0.0113 -0.306166,0.034 -0.100798,0.0227 -0.204113,0.058 -0.309948,0.10583 l 0,-1.417439 m 3.596527,0 1.814329,0 0,0.162532 -1.02434,2.659127 -0.398775,0 0.963861,-2.500373 -1.355075,0 0,-0.321286 m 3.377303,0.251358 c -0.196555,2e-6 -0.344598,0.09702 -0.444134,0.29105 -0.09828,0.192771 -0.147414,0.483191 -0.147414,0.871251 0,0.38681 0.04914,0.67723 0.147414,0.87126 0.09954,0.19277 0.247579,0.28916 0.444134,0.28916 0.19781,0 0.345853,-0.0964 0.444131,-0.28916 0.09954,-0.19403 0.149303,-0.48445 0.149305,-0.87126 -2e-6,-0.38806 -0.04977,-0.67848 -0.149305,-0.871251 -0.09828,-0.19403 -0.246321,-0.291048 -0.444131,-0.29105 m 0,-0.302388 c 0.316246,5e-6 0.557526,0.125369 0.723841,0.376096 0.167572,0.249472 0.251358,0.612343 0.25136,1.088593 -2e-6,0.47501 -0.08379,0.83787 -0.25136,1.0886 -0.166315,0.24947 -0.407595,0.37421 -0.723841,0.37421 -0.316249,0 -0.55816,-0.12474 -0.725732,-0.37421 -0.166315,-0.25073 -0.249472,-0.61359 -0.24947,-1.0886 -2e-6,-0.47625 0.08315,-0.839121 0.24947,-1.088593 0.167572,-0.250727 0.409483,-0.376091 0.725732,-0.376096 m 2.511707,1.309719 c -0.171354,0 -0.307431,0.0586 -0.408226,0.17576 -0.09954,0.11718 -0.149303,0.27783 -0.149303,0.48194 0,0.20285 0.04977,0.36349 0.149303,0.48193 0.100795,0.11717 0.236872,0.17576 0.408226,0.17576 0.17135,0 0.306795,-0.0586 0.406333,-0.17576 0.100795,-0.11844 0.151194,-0.27908 0.151194,-0.48193 0,-0.20411 -0.0504,-0.36476 -0.151194,-0.48194 -0.09954,-0.11717 -0.234983,-0.17576 -0.406333,-0.17576 m 0.75786,-1.196324 0,0.347747 c -0.09576,-0.04536 -0.192775,-0.08 -0.291048,-0.103946 -0.09702,-0.02394 -0.193404,-0.0359 -0.289159,-0.03591 -0.251992,3e-6 -0.444765,0.08505 -0.578319,0.255141 -0.132296,0.17009 -0.207893,0.42712 -0.226791,0.77109 0.07434,-0.10961 0.167572,-0.1934 0.27971,-0.25136 0.112133,-0.0592 0.235609,-0.0888 0.370425,-0.0888 0.283488,0 0.507128,0.0863 0.670925,0.25892 0.16505,0.17136 0.247578,0.40508 0.24758,0.70117 -2e-6,0.28978 -0.08568,0.52225 -0.257031,0.69738 -0.171355,0.17513 -0.399406,0.2627 -0.684152,0.2627 -0.326329,0 -0.575798,-0.12474 -0.748413,-0.37421 -0.172612,-0.25073 -0.258918,-0.61359 -0.258918,-1.0886 0,-0.44602 0.105835,-0.801322 0.317506,-1.065915 0.211671,-0.265845 0.49579,-0.398769 0.852357,-0.398774 0.09575,5e-6 0.192142,0.0095 0.289159,0.02835 0.09828,0.0189 0.200331,0.04725 0.306169,0.08505 m 0.84669,-0.06236 1.498712,0 0,0.321286 -1.149073,0 0,0.691713 c 0.05544,-0.0189 0.110873,-0.0328 0.166312,-0.0416 0.05544,-0.0101 0.110875,-0.0151 0.166314,-0.0151 0.314986,0 0.564456,0.0863 0.748411,0.25892 0.18395,0.17262 0.275927,0.40634 0.27593,0.70117 -3e-6,0.30364 -0.0945,0.53988 -0.283491,0.70872 -0.188995,0.16757 -0.455473,0.25136 -0.799438,0.25136 -0.118435,0 -0.239391,-0.0101 -0.362867,-0.0302 -0.122216,-0.0202 -0.248841,-0.0504 -0.379874,-0.0907 l 0,-0.38365 c 0.113395,0.0617 0.230571,0.10772 0.351527,0.13796 0.120953,0.0302 0.248838,0.0454 0.383654,0.0454 0.217971,0 0.390583,-0.0573 0.517839,-0.17198 0.127254,-0.11466 0.190882,-0.27026 0.190884,-0.46681 -2e-6,-0.19656 -0.06363,-0.35216 -0.190884,-0.46682 -0.127256,-0.11465 -0.299868,-0.17198 -0.517839,-0.17198 -0.102058,0 -0.204113,0.0113 -0.306168,0.034 -0.100796,0.0227 -0.204113,0.058 -0.309949,0.10583 l 0,-1.417439 m 3.596527,0 1.81433,0 0,0.162532 -1.024338,2.659127 -0.398775,0 0.963861,-2.500373 -1.355078,0 0,-0.321286 m 3.424549,1.258689 c -0.171355,0 -0.307431,0.0586 -0.408226,0.17576 -0.09954,0.11718 -0.149303,0.27783 -0.149303,0.48194 0,0.20285 0.04977,0.36349 0.149303,0.48193 0.100795,0.11717 0.236871,0.17576 0.408226,0.17576 0.171349,0 0.306794,-0.0586 0.406332,-0.17576 0.100795,-0.11844 0.151194,-0.27908 0.151194,-0.48193 0,-0.20411 -0.0504,-0.36476 -0.151194,-0.48194 -0.09954,-0.11717 -0.234983,-0.17576 -0.406332,-0.17576 m 0.757859,-1.196324 0,0.347747 c -0.09576,-0.04536 -0.192775,-0.08 -0.291048,-0.103946 -0.09702,-0.02394 -0.193404,-0.0359 -0.289159,-0.03591 -0.251992,3e-6 -0.444765,0.08505 -0.578318,0.255141 -0.132296,0.17009 -0.207893,0.42712 -0.226791,0.77109 0.07434,-0.10961 0.167572,-0.1934 0.27971,-0.25136 0.112133,-0.0592 0.235609,-0.0888 0.370425,-0.0888 0.283488,0 0.507127,0.0863 0.670924,0.25892 0.16505,0.17136 0.247578,0.40508 0.247581,0.70117 -3e-6,0.28978 -0.08568,0.52225 -0.257032,0.69738 -0.171355,0.17513 -0.399406,0.2627 -0.684151,0.2627 -0.326329,0 -0.575799,-0.12474 -0.748413,-0.37421 -0.172612,-0.25073 -0.258919,-0.61359 -0.258919,-1.0886 0,-0.44602 0.105836,-0.801322 0.317507,-1.065915 0.21167,-0.265845 0.495789,-0.398769 0.852357,-0.398774 0.09575,5e-6 0.192141,0.0095 0.289159,0.02835 0.09828,0.0189 0.20033,0.04725 0.306168,0.08505 m 0.746522,-0.06236 1.814329,0 0,0.162532 -1.02434,2.659127 -0.398775,0 0.963862,-2.500373 -1.355076,0 0,-0.321286 m 2.572189,2.763069 0,-0.34774 c 0.09575,0.0453 0.192773,0.08 0.291048,0.10394 0.09827,0.0239 0.194661,0.0359 0.289159,0.0359 0.251989,0 0.444131,-0.0844 0.576427,-0.25325 0.13355,-0.17009 0.20978,-0.42775 0.22868,-0.77298 -0.0731,0.10836 -0.165683,0.19151 -0.277817,0.24947 -0.112138,0.058 -0.236242,0.0869 -0.372316,0.0869 -0.28223,0 -0.50587,-0.0851 -0.670924,-0.25514 -0.163795,-0.17135 -0.24569,-0.40508 -0.24569,-0.70117 0,-0.289781 0.08567,-0.522244 0.25703,-0.697378 0.171352,-0.17513 0.399403,-0.262696 0.684153,-0.262701 0.326324,5e-6 0.575164,0.125369 0.746524,0.376096 0.17261,0.249472 0.25891,0.612343 0.25892,1.088593 -1e-5,0.44477 -0.10584,0.80007 -0.31751,1.06592 -0.210415,0.26459 -0.493903,0.39689 -0.850468,0.39689 -0.09576,0 -0.192773,-0.009 -0.291048,-0.0283 -0.09828,-0.0189 -0.200333,-0.0473 -0.306168,-0.0851 m 0.75975,-1.19632 c 0.171353,0 0.306798,-0.0586 0.406333,-0.17576 0.100795,-0.11718 0.151191,-0.27782 0.151191,-0.48194 0,-0.20285 -0.0504,-0.362858 -0.151191,-0.480036 -0.09954,-0.118433 -0.23498,-0.177653 -0.406333,-0.177655 -0.171354,2e-6 -0.307428,0.05922 -0.408223,0.177655 -0.09954,0.117178 -0.149305,0.277186 -0.149305,0.480036 0,0.20412 0.04977,0.36476 0.149305,0.48194 0.100795,0.11717 0.236869,0.17576 0.408223,0.17576 m 1.704714,1.19632 0,-0.34774 c 0.0958,0.0453 0.19277,0.08 0.29105,0.10394 0.0983,0.0239 0.19466,0.0359 0.28916,0.0359 0.25198,0 0.44413,-0.0844 0.57642,-0.25325 0.13356,-0.17009 0.20978,-0.42775 0.22868,-0.77298 -0.0731,0.10836 -0.16568,0.19151 -0.27781,0.24947 -0.11214,0.058 -0.23625,0.0869 -0.37232,0.0869 -0.28223,0 -0.50587,-0.0851 -0.67092,-0.25514 -0.1638,-0.17135 -0.24569,-0.40508 -0.24569,-0.70117 0,-0.289781 0.0857,-0.522244 0.25703,-0.697378 0.17135,-0.17513 0.3994,-0.262696 0.68415,-0.262701 0.32633,5e-6 0.57517,0.125369 0.74652,0.376096 0.17261,0.249472 0.25892,0.612343 0.25892,1.088593 0,0.44477 -0.10584,0.80007 -0.31751,1.06592 -0.21041,0.26459 -0.4939,0.39689 -0.85046,0.39689 -0.0958,0 -0.19278,-0.009 -0.29105,-0.0283 -0.0983,-0.0189 -0.20033,-0.0473 -0.30617,-0.0851 m 0.75975,-1.19632 c 0.17135,0 0.3068,-0.0586 0.40633,-0.17576 0.1008,-0.11718 0.1512,-0.27782 0.1512,-0.48194 0,-0.20285 -0.0504,-0.362858 -0.1512,-0.480036 -0.0995,-0.118433 -0.23498,-0.177653 -0.40633,-0.177655 -0.17135,2e-6 -0.30743,0.05922 -0.40822,0.177655 -0.0995,0.117178 -0.14931,0.277186 -0.14931,0.480036 0,0.20412 0.0498,0.36476 0.14931,0.48194 0.10079,0.11717 0.23687,0.17576 0.40822,0.17576"
       id="text7050"
       style="font-size:1.58812129px;font-style:normal;font-variant:normal;font-weight:normal;font-stretch:normal;line-height:120.00000477%;writing-mode:lr-tb;text-anchor:start;fill:#000000;fill-opacity:1;stroke:none;font-family:Bitstream Vera Sans" />
  </g>
</svg>
