<?xml version="1.0" encoding="utf-8"?>
<!-- Generator: Adobe Illustrator 15.0.0, SVG Export Plug-In . SVG Version: 6.00 Build 0)  -->
<!DOCTYPE svg PUBLIC "-//W3C//DTD SVG 1.1//EN" "http://www.w3.org/Graphics/SVG/1.1/DTD/svg11.dtd">
<svg version="1.1" xmlns="http://www.w3.org/2000/svg" xmlns:xlink="http://www.w3.org/1999/xlink" x="0px" y="0px" width="626px"
	 height="626px" viewBox="0 0 626 626" enable-background="new 0 0 626 626" xml:space="preserve">
<g id="Layer_9">
	<path fill-rule="evenodd" clip-rule="evenodd" fill="#94C061" d="M313.25,252H265.3c1.047-0.933,2.105-1.85,3.175-2.75h44.775V252z
		 M313.25,313v18.75h-80.5V292.3c1.324-2.403,2.724-4.778,4.2-7.125V313H313.25z"/>
	<path fill-rule="evenodd" clip-rule="evenodd" fill="#658D38" d="M232.75,292.3v39.45h80.5V313h3.7v-61h-3.7v-2.75h-44.775
		c1.307-1.109,2.632-2.192,3.975-3.25c2.202-1.742,4.435-3.408,6.7-5c4.153-2.919,8.412-5.585,12.775-8
		c9.974-5.517,20.499-9.717,31.575-12.6c12.134-3.167,24.934-4.75,38.4-4.75c9.199,0,18.083,0.75,26.649,2.25c3,0.5,6,1.117,9,1.85
		c24.967,6,47.217,18.583,66.75,37.75c0.334,0.333,0.667,0.667,1,1c21.334,21.367,34.717,45.983,40.15,73.85
		c0.2,1.167,0.416,2.351,0.649,3.551c1.4,8.3,2.101,16.85,2.101,25.649c0,0.134,0,0.283,0,0.45c0,22.934-4.601,43.967-13.8,63.1
		c-4.601,9.434-10.284,18.417-17.051,26.95c-2,2.4-4.033,4.783-6.1,7.15c-1.934,2.133-3.917,4.217-5.95,6.25
		c-3.5,3.5-7.066,6.8-10.7,9.899c-4.833,4.034-9.833,7.717-15,11.051c-5.333,3.399-10.833,6.416-16.5,9.05
		c-0.533,0.2-1.033,0.416-1.5,0.649c-17.466,7.867-36.483,11.967-57.05,12.301c-0.533,0-1.05,0-1.55,0c-0.366,0-0.733,0-1.1,0
		c-40.434,0-74.934-14.317-103.5-42.95c-0.467-0.467-0.917-0.917-1.35-1.351c-27.7-28.3-41.55-62.333-41.55-102.1
		c0-0.167,0-0.316,0-0.45c0.042-14.928,2.042-29.053,6-42.375c0.517-1.738,1.067-3.464,1.65-5.175
		C225.71,306.504,228.91,299.271,232.75,292.3z"/>
</g>
<g id="Layer_6">
	<path fill-rule="evenodd" clip-rule="evenodd" fill="#BBD89C" d="M304.3,301.2c-0.614-0.905-1.206-1.821-1.775-2.75
		c0.907-1.061,1.598-2.144,2.075-3.25c1.167-2.333,1.75-4.9,1.75-7.7c0-1.033-0.083-2.033-0.25-3
		c-0.368-2.332-1.21-4.482-2.525-6.45c0.112,0.118,0.204,0.209,0.275,0.275L304,278.5c2.9,3.256,4.35,7.09,4.35,11.5
		c0,1.759-0.233,3.425-0.7,5c-0.266,0.932-0.616,1.833-1.05,2.7C306.085,298.895,305.318,300.062,304.3,301.2z M296.825,306.425
		c-1.841,0.65-3.816,0.975-5.925,0.975c-2.68,0-5.146-0.533-7.4-1.6c-1.783-0.85-3.433-2.033-4.95-3.55
		c-0.894-0.895-1.669-1.836-2.325-2.825c0.106,0.106,0.214,0.214,0.325,0.325c3.434,3.433,7.55,5.15,12.35,5.15
		c2.171,0,4.205-0.35,6.1-1.05C295.588,304.717,296.197,305.575,296.825,306.425z"/>
	<path fill-rule="evenodd" clip-rule="evenodd" fill="#7BAD45" d="M333.575,324.85c0.758-1.002,1.6-1.968,2.524-2.899
		c4.9-4.867,10.801-7.3,17.7-7.3c3.473,0,6.689,0.616,9.65,1.85c-0.393-0.553-0.81-1.095-1.25-1.625
		c0.193,0.112,0.385,0.229,0.575,0.35c0.349,0.262,0.69,0.537,1.024,0.825c1.32,1.517,2.354,3.133,3.101,4.851
		c0.1,0.199,0.199,0.383,0.3,0.55c1.1,2.033,1.866,4.184,2.3,6.45c0.063,0.356,0.121,0.715,0.175,1.074
		c-3.332,0.468-6.757,0.7-10.274,0.7C350.13,329.677,341.521,328.068,333.575,324.85z M436.125,303.05
		c-0.209-0.221-0.417-0.438-0.625-0.65c-1.628-1.637-3.294-3.195-5-4.675c2.639-5.218,4.613-10.71,5.925-16.475l25.851-25.775
		c0.342,0.343,0.684,0.685,1.024,1.025c21.334,21.367,34.717,45.983,40.15,73.85c0.2,1.167,0.416,2.351,0.649,3.551
		c1.4,8.3,2.101,16.85,2.101,25.649c0,0.134,0,0.283,0,0.45c0,22.934-4.601,43.967-13.8,63.1
		c-4.601,9.434-10.284,18.417-17.051,26.95c-0.075,0.091-0.15,0.183-0.225,0.275l5.975-21.976c0.101-0.399,0.051-0.816-0.149-1.25
		c-0.167-0.366-0.417-0.683-0.75-0.949c-0.134-0.034-8.167-8.784-24.101-26.25c3.448-7.858,5.157-14.851,5.125-20.976
		c-0.005-1.372-0.005-2.605,0-3.7c0.547-2.661,0.964-5.245,1.25-7.75c0.469-4.224,0.561-8.232,0.275-12.024
		c0.033-0.367,0.033-0.783,0-1.25c-0.4-2.634-0.884-5.25-1.45-7.851c-2.666-11.433-7.75-22.116-15.25-32.05
		c-1.333-1.7-2.7-3.383-4.1-5.05c-1.467-1.7-2.95-3.317-4.45-4.85C437.044,303.941,436.586,303.491,436.125,303.05z M255.05,462.1
		l46.725-46.574c1.695,2.331,3.52,4.623,5.475,6.875c0.874,0.999,1.757,1.975,2.65,2.925l51.075,81.075c-0.362,0-0.721,0-1.074,0
		c-40.434,0-74.934-14.317-103.5-42.95C255.947,462.998,255.498,462.548,255.05,462.1z M368.6,340.05
		c-1.316,3.908-3.649,7.324-7,10.25c-0.066,0.033-0.149,0.117-0.25,0.25c-0.1,0.033-0.149,0.084-0.149,0.15
		c-0.101,0.033-0.167,0.083-0.2,0.149c-0.434,0.367-0.866,0.733-1.3,1.101c-0.101,0.033-0.2,0.1-0.3,0.2
		c-2.434,1.8-4.9,3.017-7.4,3.649l-2.85,0.601c-0.267,0-0.517,0.033-0.75,0.1c-1,0.1-2.034,0.15-3.101,0.15c-0.1,0-0.2,0-0.3,0
		s-0.2,0-0.3,0c-0.101,0-0.2,0-0.3,0c-0.134-0.067-0.284-0.101-0.45-0.101h-0.25c-4.182-0.275-7.89-1.476-11.125-3.6
		c-2.517-3.904-3.775-8.338-3.775-13.3c0-2.092,0.226-4.092,0.675-6c9.717,4.448,20.358,6.682,31.926,6.699
		C363.842,340.347,366.242,340.246,368.6,340.05z"/>
	<path fill-rule="evenodd" clip-rule="evenodd" fill="#94C061" d="M301.775,415.525L255.05,462.1
		c-27.7-28.304-41.55-62.337-41.55-102.1c0-0.167,0-0.316,0-0.45c0.089-36.006,11.589-67.339,34.5-94
		c1.905-2.214,3.888-4.397,5.95-6.55c0.805-0.837,1.622-1.671,2.45-2.5c4.5-4.5,9.184-8.667,14.05-12.5
		c0.165-0.13,0.332-0.264,0.5-0.4c0.336-0.264,0.669-0.522,1-0.775c0.154-0.119,0.304-0.235,0.45-0.35l13.15-8.95
		c0.752-0.458,1.511-0.908,2.275-1.35v0.025c0.41-0.238,0.818-0.479,1.225-0.725l1.225-0.675c0.469-0.25,0.935-0.5,1.4-0.75
		c4.524-2.416,9.158-4.565,13.9-6.45c4.045-1.601,8.171-3.009,12.375-4.225c1.177-0.34,2.36-0.665,3.55-0.975
		c12.141-3.167,24.94-4.75,38.4-4.75c9.199,0,18.083,0.75,26.649,2.25c3,0.5,6,1.117,9,1.85c7.557,1.815,14.865,4.231,21.925,7.25
		c6.836,10.689,10.252,22.79,10.25,36.3c0.002,10.708-2.14,20.524-6.425,29.45c-8.328-5.511-17.444-9.411-27.35-11.7
		c-0.233-0.066-0.45-0.117-0.65-0.15c-1.434-0.333-2.916-0.633-4.45-0.9c-0.199-0.033-0.35-0.05-0.449-0.05
		c-5.301-0.7-8.25-1.067-8.851-1.1h-0.05c-18.967-1.267-36.134,2.783-51.5,12.15c-4.233,2.567-8.316,5.55-12.25,8.95
		c-0.1,0.066-0.167,0.15-0.2,0.25c-0.133,0.1-0.283,0.233-0.45,0.4c-0.53,0.462-1.056,0.929-1.574,1.4
		c-2.051,1.869-3.984,3.803-5.8,5.8c-1.214-1.499-2.355-3.032-3.425-4.6c1.019-1.139,1.785-2.305,2.3-3.5
		c0.434-0.868,0.784-1.768,1.05-2.7c0.467-1.575,0.7-3.241,0.7-5c0-4.41-1.45-8.244-4.35-11.5l-0.15-0.175
		c-0.071-0.066-0.163-0.158-0.275-0.275c-0.069-0.076-0.144-0.159-0.225-0.25c-0.051-0.051-0.102-0.101-0.15-0.15
		c-0.633-0.633-1.317-1.217-2.05-1.75c-2.26-1.695-4.768-2.728-7.525-3.1H293.6c-0.432-0.1-0.898-0.149-1.4-0.15
		c-0.434-0.066-0.867-0.1-1.3-0.1c-0.333,0-0.65,0.034-0.95,0.1c-0.667,0-1.317,0.05-1.95,0.15h-0.05
		c-0.256,0.041-0.506,0.091-0.75,0.15l-2.2,0.6c-0.44,0.165-0.874,0.348-1.3,0.55c-0.117,0.05-0.233,0.1-0.35,0.15
		c-1.731,0.798-3.332,1.931-4.8,3.4c-0.2,0.2-0.383,0.417-0.55,0.65c-0.062,0.066-0.12,0.133-0.175,0.2
		c-1.904,2.117-3.179,4.5-3.825,7.15c-0.333,1.4-0.5,2.85-0.5,4.35c0,3.525,0.908,6.667,2.725,9.425
		c0.656,0.989,1.431,1.931,2.325,2.825c1.517,1.517,3.167,2.7,4.95,3.55c2.253,1.067,4.72,1.6,7.4,1.6
		c2.109,0,4.084-0.325,5.925-0.975c1.599,2.163,3.333,4.271,5.2,6.325c0.039-0.053,0.081-0.103,0.125-0.15
		c-0.357,0.478-0.708,0.961-1.05,1.45c-0.7,1-1.35,2-1.95,3c-1.6,2.434-3.083,4.967-4.45,7.601c-0.016,0.033-0.033,0.066-0.05,0.1
		c-1.014,2.101-1.964,4.217-2.85,6.35c-0.633,1.601-1.216,3.233-1.75,4.9c-2.267,6.967-3.683,14.384-4.25,22.25
		C284.278,379.587,289.603,398.679,301.775,415.525z M462.275,255.475l-25.851,25.775c1.307-5.716,1.966-11.699,1.976-17.95
		c-0.018-11.181-2.109-21.498-6.275-30.95C442.807,238.525,452.856,246.234,462.275,255.475z M362.2,314.875
		c-0.057-0.069-0.115-0.136-0.175-0.2c0.254,0.176,0.504,0.359,0.75,0.55C362.585,315.104,362.394,314.987,362.2,314.875z"/>
	<path fill-rule="evenodd" clip-rule="evenodd" fill="#6C983D" d="M433,487.2c-3.879,2.285-7.846,4.368-11.9,6.25
		c-0.533,0.2-1.033,0.416-1.5,0.649c-17.453,7.864-36.47,11.956-57.05,12.275c-0.523,0.01-1.049,0.019-1.575,0.025L309.9,425.325
		c0.931,0.984,1.873,1.943,2.825,2.875c2.176,2.226,4.417,4.309,6.725,6.25c2.767,2.366,5.684,4.533,8.75,6.5
		c10.033,6.566,21.25,10.816,33.649,12.75c0.101,0,0.233,0,0.4,0c5.441-0.049,10.25-0.207,14.425-0.476
		c1.525-0.091,2.968-0.199,4.325-0.324c5.1-0.467,10.3-1.184,15.6-2.15l1.4,1.4v0.699c0.2-0.03,0.399-0.063,0.6-0.1L433,487.2z"/>
	<path fill-rule="evenodd" clip-rule="evenodd" fill="#E2E2E2" d="M414.8,207.875c-14.804-14.35-32.604-21.525-53.399-21.525
		c-21.301,0-39.467,7.5-54.5,22.5c-3.536,3.543-6.652,7.26-9.35,11.15c-2.247,3.233-4.206,6.583-5.875,10.05
		c-0.465,0.25-0.931,0.5-1.4,0.75l-1.225,0.675c-0.406,0.246-0.815,0.487-1.225,0.725v-0.025
		c3.759-9.244,9.451-17.686,17.075-25.325c15.042-15.012,33.208-22.521,54.5-22.525c21.259,0.003,39.392,7.512,54.399,22.525
		C414.137,207.187,414.47,207.528,414.8,207.875z M408.7,213.95c0.331,0.331,0.664,0.665,1,1c3.316,3.316,6.225,6.799,8.725,10.45
		c7.55,11.081,11.325,23.714,11.325,37.9c0,10.513-2.066,20.171-6.2,28.975c-0.072,0.155-0.147,0.314-0.225,0.475
		c-0.525,1.09-1.084,2.165-1.675,3.225c-3.098,5.593-7.081,10.818-11.95,15.675c-4.908,4.92-10.191,8.937-15.851,12.05
		c-5.304,2.91-10.937,5.027-16.899,6.35c-1.729,0.384-3.486,0.7-5.275,0.95c-0.607,0.085-1.216,0.16-1.825,0.225
		c-2.757,0.317-5.573,0.476-8.449,0.476c-10.305,0-19.788-1.983-28.45-5.95c-2.097-0.97-4.146-2.053-6.15-3.25l-0.325,0.55
		c-0.111,0.182-0.22,0.365-0.324,0.55c0.322-0.596,0.673-1.18,1.05-1.75c2.078,1.124,4.203,2.124,6.375,3
		c7.946,3.219,16.555,4.827,25.825,4.825c3.518,0,6.942-0.232,10.274-0.7c0.526-0.073,1.052-0.156,1.575-0.25
		c1.565-0.254,3.106-0.562,4.625-0.925c11.948-2.813,22.557-8.863,31.825-18.15c5.637-5.626,10.078-11.743,13.325-18.35
		c0.096-0.186,0.188-0.369,0.274-0.55c4.285-8.926,6.427-18.742,6.425-29.45c0.002-13.51-3.414-25.61-10.25-36.3
		C414.997,221.133,412.072,217.45,408.7,213.95z M295,303.85c-6.065-8.954-9.948-18.82-11.65-29.6c0.117-0.05,0.233-0.1,0.35-0.15
		c0.426-0.203,0.859-0.386,1.3-0.55c1.337,10.945,4.862,20.97,10.575,30.075c0.549,0.882,1.115,1.757,1.7,2.625
		c0.852,1.233,1.744,2.45,2.675,3.65c0.707,0.909,1.44,1.809,2.2,2.7c-0.044,0.047-0.086,0.097-0.125,0.15
		c-1.867-2.054-3.601-4.163-5.2-6.325C296.197,305.575,295.588,304.717,295,303.85z"/>
	<path fill-rule="evenodd" clip-rule="evenodd" fill="#D3D3D3" d="M305.575,223.6c-4.743,1.884-9.376,4.034-13.9,6.45
		c1.669-3.466,3.628-6.816,5.875-10.05c2.698-3.89,5.814-7.606,9.35-11.15c15.034-15,33.2-22.5,54.5-22.5
		c20.796,0,38.596,7.175,53.399,21.525c0.335,0.318,0.668,0.643,1,0.975c7.129,7.129,12.571,14.962,16.325,23.5
		c4.166,9.452,6.258,19.769,6.275,30.95c-0.01,6.251-0.669,12.234-1.976,17.95c-1.312,5.765-3.286,11.257-5.925,16.475
		c-0.037,0.074-0.07,0.148-0.1,0.225c-3.637,7.117-8.504,13.716-14.601,19.8c-10.662,10.686-22.903,17.577-36.725,20.675
		c-0.104,0.029-0.203,0.054-0.3,0.075c-2.47,0.547-4.986,0.972-7.551,1.275c-0.869,0.103-1.744,0.194-2.625,0.274
		c-2.357,0.196-4.758,0.297-7.199,0.3c-11.567-0.018-22.209-2.251-31.926-6.699c-1.929-0.879-3.821-1.846-5.675-2.9
		c0.047-0.277,0.098-0.552,0.15-0.825c0.015-0.092,0.031-0.184,0.05-0.274c0.173-0.857,0.39-1.69,0.65-2.5
		c0.388-1.194,0.871-2.336,1.449-3.426l0.051-0.125c0.104-0.185,0.213-0.368,0.324-0.55l0.325-0.55
		c2.004,1.197,4.054,2.28,6.15,3.25c8.662,3.967,18.146,5.95,28.45,5.95c2.876,0,5.692-0.158,8.449-0.476
		c0.609-0.064,1.218-0.14,1.825-0.225c1.789-0.25,3.547-0.566,5.275-0.95c5.963-1.322,11.596-3.439,16.899-6.35
		c5.659-3.113,10.942-7.13,15.851-12.05c4.869-4.857,8.853-10.082,11.95-15.675c0.591-1.061,1.149-2.135,1.675-3.225
		c0.077-0.161,0.152-0.32,0.225-0.475c4.134-8.804,6.2-18.462,6.2-28.975c0-14.186-3.775-26.819-11.325-37.9
		c-2.5-3.65-5.408-7.134-8.725-10.45c-0.336-0.335-0.669-0.669-1-1c-13.142-12.666-28.908-18.983-47.3-18.95
		c-18.9-0.033-35.034,6.617-48.4,19.95C310.24,217.717,307.766,220.6,305.575,223.6z M421.35,435.4l-3.1,2.449
		c-0.2,0.134-0.366,0.25-0.5,0.351c-0.267,0.2-0.517,0.366-0.75,0.5c-1.134,0.733-2.267,1.467-3.4,2.2
		c-0.1,0.033-0.183,0.083-0.25,0.149l65.601,65.75c0.133,0.134,0.316,0.316,0.55,0.55l1.1,1.101c1.4,1.366,3.067,2.05,5,2.05
		c1.634-0.066,3.051-0.55,4.25-1.45c0.301-0.166,0.551-0.383,0.75-0.649c0.233-0.167,1.25,0.399,3.051,1.699
		c1.767,1.334,5.116,4.817,10.05,10.45c4.866,5.533,11.833,9.533,20.899,12c-5.933,1-14.783,1.7-26.55,2.101
		c-11.121,0.349-19.721-2.201-25.8-7.65c-1.462-1.316-2.778-2.8-3.95-4.45l-20.1-20.1h0.05L433,487.2l-34.4-34.45l-0.6-0.6l-1.4-1.4
		c-5.3,0.967-10.5,1.684-15.6,2.15c-1.357,0.125-2.8,0.233-4.325,0.324l33.95-33.925c0.542,0.528,1.075,1.045,1.6,1.55
		c4.902,4.798,8.96,8.848,12.176,12.15c-0.167,0.066-0.284,0.167-0.351,0.3c-0.899,0.733-1.767,1.45-2.6,2.15L421.35,435.4z
		 M302.15,312.6c-0.759-0.891-1.493-1.791-2.2-2.7c-0.932-1.2-1.823-2.417-2.675-3.65c-0.584-0.868-1.151-1.743-1.7-2.625
		c-5.713-9.105-9.238-19.13-10.575-30.075l2.2-0.6c0.244-0.06,0.494-0.109,0.75-0.15H288c0.633-0.1,1.283-0.15,1.95-0.15
		c0.3-0.066,0.617-0.1,0.95-0.1c0.434,0,0.867,0.034,1.3,0.1c0.501,0,0.968,0.05,1.4,0.15h0.025c0.946,7.487,3.054,14.487,6.325,21
		c0.793,1.581,1.651,3.131,2.575,4.65c0.569,0.929,1.161,1.845,1.775,2.75c1.07,1.567,2.211,3.101,3.425,4.6
		c-0.236,0.257-0.469,0.515-0.7,0.775L302.15,312.6z"/>
	<path fill-rule="evenodd" clip-rule="evenodd" fill="#B6B6B6" d="M309.9,425.325c-0.893-0.95-1.776-1.926-2.65-2.925
		c-1.955-2.252-3.78-4.544-5.475-6.875c-12.172-16.847-17.497-35.938-15.975-57.275c0.567-7.866,1.983-15.283,4.25-22.25
		c0.534-1.667,1.117-3.3,1.75-4.9c0.886-2.133,1.836-4.249,2.85-6.35c0.017-0.033,0.034-0.066,0.05-0.1
		c1.367-2.634,2.85-5.167,4.45-7.601c0.6-1,1.25-2,1.95-3c0.342-0.488,0.692-0.972,1.05-1.45l4.875-6.025
		c0.231-0.26,0.464-0.519,0.7-0.775c1.816-1.997,3.75-3.931,5.8-5.8c0.519-0.471,1.044-0.938,1.574-1.4
		c0.167-0.167,0.317-0.3,0.45-0.4c0.033-0.1,0.101-0.184,0.2-0.25c3.934-3.4,8.017-6.383,12.25-8.95
		c15.366-9.367,32.533-13.417,51.5-12.15h0.05c0.601,0.033,3.55,0.4,8.851,1.1c0.1,0,0.25,0.017,0.449,0.05
		c1.534,0.267,3.017,0.567,4.45,0.9c0.2,0.033,0.417,0.083,0.65,0.15c9.905,2.289,19.021,6.189,27.35,11.7
		c-0.087,0.181-0.179,0.364-0.274,0.55c-7.707-4.751-16.065-8.167-25.075-10.25c-0.233-0.066-0.45-0.117-0.65-0.15
		c-1.434-0.333-2.916-0.633-4.45-0.9c-0.199-0.033-0.35-0.05-0.449-0.05c-5.301-0.7-8.25-1.067-8.851-1.1h-0.05
		c-18.98-1.281-36.146,2.769-51.5,12.15c-4.22,2.58-8.303,5.563-12.25,8.95c-0.1,0.066-0.167,0.15-0.2,0.25
		c-0.133,0.1-0.283,0.233-0.45,0.4c-5.433,4.733-10.1,9.883-14,15.45c-0.7,1-1.35,2-1.95,3c-1.6,2.434-3.083,4.967-4.45,7.601
		c-1.034,2.133-2,4.283-2.9,6.449c-0.634,1.608-1.217,3.242-1.75,4.9c-2.268,6.971-3.685,14.388-4.25,22.25
		c-1.451,20.351,3.324,38.659,14.325,54.925c2.144,3.148,4.519,6.224,7.125,9.226c0.08,0.091,0.163,0.183,0.25,0.274
		c1.057,1.209,2.132,2.384,3.225,3.525C311.773,427.269,310.831,426.31,309.9,425.325z M363.8,316.05
		c0.185,0.165,0.368,0.332,0.55,0.5c2.034,1.934,3.551,4.05,4.551,6.351c0.1,0.199,0.199,0.383,0.3,0.55
		c0.91,1.683,1.594,3.44,2.05,5.274c-0.523,0.094-1.049,0.177-1.575,0.25c-0.054-0.359-0.112-0.718-0.175-1.074
		c-0.434-2.267-1.2-4.417-2.3-6.45c-0.101-0.167-0.2-0.351-0.3-0.55C366.153,319.183,365.12,317.566,363.8,316.05z M329.9,350.9
		c0.853,0.762,1.744,1.445,2.675,2.05c3.235,2.124,6.943,3.324,11.125,3.6h0.25c0.166,0,0.316,0.033,0.45,0.101c0.1,0,0.199,0,0.3,0
		c0.1,0,0.2,0,0.3,0s0.2,0,0.3,0c1.066,0,2.101-0.051,3.101-0.15c0.233-0.066,0.483-0.1,0.75-0.1L352,355.8
		c2.5-0.633,4.967-1.85,7.4-3.649c0.1-0.101,0.199-0.167,0.3-0.2c0.434-0.367,0.866-0.733,1.3-1.101
		c0.033-0.066,0.1-0.116,0.2-0.149c0-0.066,0.05-0.117,0.149-0.15c0.101-0.133,0.184-0.217,0.25-0.25
		c3.351-2.926,5.684-6.342,7-10.25c0.881-0.08,1.756-0.172,2.625-0.274c-1.101,4.872-3.643,9.047-7.625,12.524
		c-0.066,0.033-0.149,0.117-0.25,0.25c-0.1,0.033-0.149,0.084-0.149,0.15c-0.101,0.033-0.167,0.083-0.2,0.149
		c-0.434,0.367-0.866,0.733-1.3,1.101c-0.101,0.033-0.2,0.1-0.3,0.2c-2.434,1.8-4.9,3.017-7.4,3.649l-2.85,0.601
		c-0.267,0-0.517,0.033-0.75,0.1c-1,0.1-2.034,0.15-3.101,0.15c-0.1,0-0.2,0-0.3,0s-0.2,0-0.3,0c-0.101,0-0.2,0-0.3,0
		c-0.134-0.067-0.284-0.101-0.45-0.101h-0.25c-5.009-0.33-9.343-1.98-13-4.95C331.72,352.795,330.787,351.895,329.9,350.9z
		 M430.5,297.725c1.706,1.48,3.372,3.038,5,4.675c0.208,0.212,0.416,0.429,0.625,0.65c-1.864-1.801-3.772-3.501-5.725-5.1
		C430.43,297.874,430.463,297.799,430.5,297.725z"/>
	<path fill-rule="evenodd" clip-rule="evenodd" fill="#A3A3A3" d="M462.475,367.475l-51.85,51.825l-33.95,33.925
		c-4.175,0.269-8.983,0.427-14.425,0.476c-0.167,0-0.3,0-0.4,0c-12.399-1.934-23.616-6.184-33.649-12.75
		c-3.066-1.967-5.983-4.134-8.75-6.5c-2.308-1.941-4.549-4.024-6.725-6.25c-1.093-1.142-2.168-2.316-3.225-3.525
		c-0.087-0.092-0.17-0.184-0.25-0.274c-2.606-3.002-4.981-6.077-7.125-9.226c-11.001-16.266-15.776-34.574-14.325-54.925
		c0.565-7.862,1.982-15.279,4.25-22.25c0.533-1.658,1.116-3.292,1.75-4.9c0.9-2.166,1.867-4.316,2.9-6.449
		c1.367-2.634,2.85-5.167,4.45-7.601c0.6-1,1.25-2,1.95-3c3.9-5.566,8.566-10.716,14-15.45c0.167-0.167,0.317-0.3,0.45-0.4
		c0.033-0.1,0.101-0.184,0.2-0.25c3.947-3.387,8.03-6.37,12.25-8.95c15.354-9.381,32.52-13.431,51.5-12.15h0.05
		c0.601,0.033,3.55,0.4,8.851,1.1c0.1,0,0.25,0.017,0.449,0.05c1.534,0.267,3.017,0.567,4.45,0.9c0.2,0.033,0.417,0.083,0.65,0.15
		c9.01,2.083,17.368,5.499,25.075,10.25c-3.247,6.607-7.688,12.724-13.325,18.35c-9.269,9.287-19.877,15.336-31.825,18.15
		c-1.519,0.363-3.06,0.671-4.625,0.925c-0.456-1.834-1.14-3.592-2.05-5.274c-0.101-0.167-0.2-0.351-0.3-0.55
		c-1-2.301-2.517-4.417-4.551-6.351c-0.182-0.168-0.365-0.335-0.55-0.5c-0.334-0.288-0.676-0.563-1.024-0.825
		c-0.246-0.19-0.496-0.374-0.75-0.55c-3.474-2.444-7.615-3.87-12.426-4.275c-2.301-0.139-4.501,0.011-6.6,0.45
		c-3.92,0.822-7.487,2.656-10.7,5.5c-0.233,0.167-0.45,0.351-0.649,0.551c-1.766,1.505-3.249,3.154-4.45,4.949
		c-0.377,0.57-0.728,1.154-1.05,1.75l-0.051,0.125c-0.578,1.09-1.062,2.231-1.449,3.426c-0.261,0.81-0.478,1.643-0.65,2.5
		c-0.019,0.091-0.035,0.183-0.05,0.274c-0.053,0.273-0.104,0.548-0.15,0.825c-0.114,0.75-0.198,1.517-0.25,2.3
		c0,0.033,0,0.084,0,0.15c-0.09,1.646-0.04,3.246,0.15,4.8c0.082,0.744,0.199,1.478,0.35,2.2c0.834,3.666,2.601,7.066,5.3,10.2
		c0.018,0.016,0.034,0.032,0.051,0.05h0.1c0.133,0.155,0.266,0.306,0.4,0.45c0.887,0.994,1.819,1.895,2.8,2.699
		c3.657,2.97,7.991,4.62,13,4.95h0.25c0.166,0,0.316,0.033,0.45,0.101c0.1,0,0.199,0,0.3,0c0.1,0,0.2,0,0.3,0s0.2,0,0.3,0
		c1.066,0,2.101-0.051,3.101-0.15c0.233-0.066,0.483-0.1,0.75-0.1L354,357.8c2.5-0.633,4.967-1.85,7.4-3.649
		c0.1-0.101,0.199-0.167,0.3-0.2c0.434-0.367,0.866-0.733,1.3-1.101c0.033-0.066,0.1-0.116,0.2-0.149c0-0.066,0.05-0.117,0.149-0.15
		c0.101-0.133,0.184-0.217,0.25-0.25c3.982-3.478,6.524-7.652,7.625-12.524c2.564-0.304,5.081-0.729,7.551-1.275
		c0.097-0.021,0.196-0.046,0.3-0.075c13.821-3.098,26.063-9.989,36.725-20.675c6.097-6.083,10.964-12.683,14.601-19.8
		c1.952,1.598,3.86,3.298,5.725,5.1c0.461,0.441,0.919,0.892,1.375,1.35c1.5,1.533,2.983,3.15,4.45,4.85
		c1.399,1.667,2.767,3.35,4.1,5.05c7.5,9.934,12.584,20.617,15.25,32.05c0.566,2.601,1.05,5.217,1.45,7.851
		c0.033,0.467,0.033,0.883,0,1.25C463.035,359.242,462.943,363.251,462.475,367.475z"/>
	<path fill-rule="evenodd" clip-rule="evenodd" fill="#8F8F8F" d="M474.175,453.9h-0.024v0.05c-0.367,0.066-0.75,0.033-1.15-0.101
		c-0.192-0.096-0.359-0.229-0.5-0.399c-0.115-0.131-0.216-0.281-0.3-0.45v-0.15c-0.134-0.333-0.134-0.683,0-1.05l-0.05,0.101
		l6.949-25.551c0.101-0.399,0.051-0.816-0.149-1.25c-0.167-0.366-0.417-0.683-0.75-0.949c-0.134-0.034-8.167-8.784-24.101-26.25
		c1.967-3.834,4.051-10.117,6.25-18.851c0.32-1.295,0.612-2.57,0.875-3.825c-0.005,1.095-0.005,2.328,0,3.7
		c0.032,6.125-1.677,13.117-5.125,20.976c15.934,17.466,23.967,26.216,24.101,26.25c0.333,0.267,0.583,0.583,0.75,0.949
		c0.2,0.434,0.25,0.851,0.149,1.25l-5.975,21.976l-0.975,3.575l0.05-0.101C474.188,453.832,474.18,453.865,474.175,453.9z
		 M527.95,473.35c6.564,5.904,9.681,14.588,9.35,26.051c-0.467,13.733-1.383,23.517-2.75,29.35c-0.233,1.167-0.767,2.25-1.6,3.25
		l-0.15,0.3c-0.333,0.233-0.649,0.45-0.95,0.65c-0.8,0.533-1.666,0.866-2.6,1c-0.8,0.2-1.684,0.399-2.65,0.6
		c-5.933,1-14.783,1.7-26.55,2.101c-12.402,0.389-21.669-2.827-27.8-9.65c6.079,5.449,14.679,7.999,25.8,7.65
		c11.767-0.4,20.617-1.101,26.55-2.101c0.967-0.2,1.851-0.399,2.65-0.6c0.934-0.134,1.8-0.467,2.6-1
		c0.301-0.2,0.617-0.417,0.95-0.65l0.15-0.3c0.833-1,1.366-2.083,1.6-3.25c1.367-5.833,2.283-15.616,2.75-29.35
		C535.596,487.171,533.146,479.154,527.95,473.35z M496.825,476.575c-0.357,0.039-0.698,0.014-1.025-0.075
		c-0.333-0.2-0.6-0.467-0.8-0.8c-0.066-0.066-0.1-0.15-0.1-0.25c-0.134-0.334-0.15-0.667-0.051-1l0.051-0.05l6.75-25.051
		c0.1-0.433,0.083-0.85-0.051-1.25c1.423,1.927,2.105,3.01,2.051,3.25L496.9,476.4l-0.051,0.05
		C496.838,476.489,496.83,476.531,496.825,476.575z M398.6,452.75c-0.2,0.036-0.399,0.069-0.6,0.1v-0.699L398.6,452.75z"/>
	<path fill-rule="evenodd" clip-rule="evenodd" fill="#DBDBDB" d="M410.625,419.3l51.85-51.825c-0.286,2.505-0.703,5.089-1.25,7.75
		c-0.263,1.255-0.555,2.53-0.875,3.825c-2.199,8.733-4.283,15.017-6.25,18.851c15.934,17.466,23.967,26.216,24.101,26.25
		c0.333,0.267,0.583,0.583,0.75,0.949c0.2,0.434,0.25,0.851,0.149,1.25L472.15,451.9l0.05-0.101c-0.134,0.367-0.134,0.717,0,1.05
		V453c0.084,0.169,0.185,0.319,0.3,0.45c0.141,0.17,0.308,0.304,0.5,0.399c0.4,0.134,0.783,0.167,1.15,0.101v-0.05h0.024
		l25.325-6.65c0.434-0.233,0.833-0.217,1.2,0.05c0.333,0.167,0.633,0.434,0.899,0.8c0.134,0.4,0.15,0.817,0.051,1.25L494.9,474.4
		l-0.051,0.05c-0.1,0.333-0.083,0.666,0.051,1c0,0.1,0.033,0.184,0.1,0.25c0.2,0.333,0.467,0.6,0.8,0.8
		c0.327,0.089,0.668,0.114,1.025,0.075c0.039-0.01,0.081-0.018,0.125-0.025v0.101l0.1-0.101l26.65-7
		c1.576,1.142,2.992,2.408,4.25,3.8c5.195,5.805,7.646,13.821,7.35,24.051c-0.467,13.733-1.383,23.517-2.75,29.35
		c-0.233,1.167-0.767,2.25-1.6,3.25l-0.15,0.3c-0.333,0.233-0.649,0.45-0.95,0.65c-0.8,0.533-1.666,0.866-2.6,1
		c-0.8,0.2-1.684,0.399-2.65,0.6c-21.5-21.6-32.816-32.934-33.949-34L430.55,438.2c-0.2-0.101-0.366-0.233-0.5-0.4l-5.2-5.25
		l-0.149,0.15c-0.101,0.066-0.2,0.166-0.3,0.3c-3.216-3.303-7.273-7.353-12.176-12.15C411.7,420.345,411.167,419.828,410.625,419.3z
		 M421.35,435.4l0.101,0.05h-0.101V435.4z"/>
	<path fill-rule="evenodd" clip-rule="evenodd" fill="#C8C8C8" d="M421.35,435.4v0.05h0.101c0.833-0.7,1.7-1.417,2.6-2.15
		c0.066-0.133,0.184-0.233,0.351-0.3c0.1-0.134,0.199-0.233,0.3-0.3l0.149-0.15l5.2,5.25c0.134,0.167,0.3,0.3,0.5,0.4l60.101,60.35
		c1.133,1.066,12.449,12.4,33.949,34c-9.066-2.467-16.033-6.467-20.899-12c-4.934-5.633-8.283-9.116-10.05-10.45
		c-1.801-1.3-2.817-1.866-3.051-1.699c-0.199,0.267-0.449,0.483-0.75,0.649c-1.199,0.9-2.616,1.384-4.25,1.45
		c-1.933,0-3.6-0.684-5-2.05l-1.1-1.101c-0.233-0.233-0.417-0.416-0.55-0.55l-65.601-65.75c0.067-0.066,0.15-0.116,0.25-0.149
		c1.134-0.733,2.267-1.467,3.4-2.2c0.233-0.134,0.483-0.3,0.75-0.5c0.134-0.101,0.3-0.217,0.5-0.351L421.35,435.4z"/>
</g>
</svg>
