<?xml version="1.0" encoding="UTF-8" standalone="no"?>
<!-- Created with Inkscape (http://www.inkscape.org/) -->

<svg
   xmlns:dc="http://purl.org/dc/elements/1.1/"
   xmlns:cc="http://creativecommons.org/ns#"
   xmlns:rdf="http://www.w3.org/1999/02/22-rdf-syntax-ns#"
   xmlns:svg="http://www.w3.org/2000/svg"
   xmlns="http://www.w3.org/2000/svg"
   xmlns:sodipodi="http://sodipodi.sourceforge.net/DTD/sodipodi-0.dtd"
   xmlns:inkscape="http://www.inkscape.org/namespaces/inkscape"
   id="svg2"
   version="1.1"
   inkscape:version="0.48.3.1 r9886"
   width="782.5"
   height="782.5"
   xml:space="preserve"
   sodipodi:docname="New document 1"><metadata
     id="metadata8"><rdf:RDF><cc:Work
         rdf:about=""><dc:format>image/svg+xml</dc:format><dc:type
           rdf:resource="http://purl.org/dc/dcmitype/StillImage" /><dc:title></dc:title></cc:Work></rdf:RDF></metadata><defs
     id="defs6"><clipPath
       clipPathUnits="userSpaceOnUse"
       id="clipPath16"><path
         d="M 0,626 626,626 626,0 0,0 0,626 z"
         id="path18" /></clipPath><clipPath
       clipPathUnits="userSpaceOnUse"
       id="clipPath32"><path
         d="M 0,626 626,626 626,0 0,0 0,626 z"
         id="path34" /></clipPath></defs><sodipodi:namedview
     pagecolor="#ffffff"
     bordercolor="#666666"
     borderopacity="1"
     objecttolerance="10"
     gridtolerance="10"
     guidetolerance="10"
     inkscape:pageopacity="0"
     inkscape:pageshadow="2"
     inkscape:window-width="2558"
     inkscape:window-height="1419"
     id="namedview4"
     showgrid="false"
     inkscape:zoom="1.2063898"
     inkscape:cx="23.590056"
     inkscape:cy="487.91176"
     inkscape:window-x="0"
     inkscape:window-y="19"
     inkscape:window-maximized="1"
     inkscape:current-layer="g10" /><g
     id="g10"
     inkscape:groupmode="layer"
     inkscape:label="vector-src"
     transform="matrix(1.25,0,0,-1.25,0,782.5)"><g
       id="g12"><g
         id="g14"
         clip-path="url(#clipPath16)"><g
           id="g20"
           transform="translate(313.25,313)"><path
             d="m 0,0 0,-18.75 -80.5,0 0,39.45 c 1.324,2.404 2.724,4.779 4.2,7.125 L -76.3,0 0,0 z m 0,61 -47.95,0 c 1.047,0.933 2.105,1.85 3.175,2.75 L 0,63.75 0,61 z"
             style="fill:#94c061;fill-opacity:1;fill-rule:evenodd;stroke:none"
             id="path22" /></g><g
           id="g24"
           transform="translate(232.75,333.7002)"><path
             d="m 0,0 0,-39.45 80.5,0 0,18.75 3.7,0 0,61 -3.7,0 0,2.75 -44.775,0 c 1.307,1.109 2.632,2.192 3.975,3.25 2.202,1.742 4.435,3.408 6.7,5 4.153,2.919 8.412,5.585 12.775,8 9.974,5.516 20.499,9.717 31.575,12.6 12.134,3.166 24.934,4.75 38.4,4.75 9.2,0 18.083,-0.75 26.65,-2.25 3,-0.5 6,-1.117 9,-1.85 24.967,-6 47.217,-18.584 66.75,-37.75 0.334,-0.334 0.667,-0.667 1,-1 21.334,-21.367 34.717,-45.984 40.15,-73.85 0.2,-1.167 0.416,-2.35 0.65,-3.551 1.4,-8.299 2.1,-16.849 2.1,-25.649 l 0,-0.45 c 0,-22.934 -4.6,-43.967 -13.8,-63.1 -4.6,-9.433 -10.284,-18.417 -17.05,-26.95 -2,-2.4 -4.034,-4.783 -6.1,-7.15 -1.934,-2.133 -3.917,-4.217 -5.95,-6.25 -3.5,-3.5 -7.067,-6.8 -10.7,-9.9 -4.833,-4.034 -9.833,-7.717 -15,-11.051 -5.333,-3.399 -10.833,-6.416 -16.5,-9.049 -0.534,-0.201 -1.034,-0.416 -1.5,-0.65 -17.466,-7.867 -36.484,-11.967 -57.05,-12.301 l -1.55,0 -1.1,0 c -40.433,0 -74.933,14.318 -103.5,42.951 -0.467,0.466 -0.917,0.917 -1.35,1.35 -27.7,28.3 -41.55,62.333 -41.55,102.1 l 0,0.45 c 0.042,14.928 2.042,29.053 6,42.375 0.517,1.738 1.067,3.464 1.65,5.175 2.56,7.495 5.76,14.728 9.6,21.7"
             style="fill:#658d38;fill-opacity:1;fill-rule:evenodd;stroke:none"
             id="path26" /></g></g></g><g
       id="g28"><g
         id="g30"
         clip-path="url(#clipPath32)"><g
           id="g36"
           transform="translate(296.8252,319.5752)"><path
             d="m 0,0 c -1.841,-0.65 -3.816,-0.975 -5.925,-0.975 -2.68,0 -5.147,0.533 -7.4,1.6 -1.783,0.85 -3.433,2.033 -4.95,3.55 -0.894,0.894 -1.669,1.836 -2.325,2.825 0.106,-0.106 0.214,-0.214 0.325,-0.325 3.433,-3.433 7.55,-5.15 12.35,-5.15 2.171,0 4.204,0.35 6.1,1.05 C -1.237,1.708 -0.628,0.85 0,0 M 7.475,5.225 C 6.86,6.129 6.269,7.046 5.7,7.975 c 0.906,1.06 1.598,2.144 2.075,3.25 1.166,2.333 1.75,4.9 1.75,7.7 0,1.033 -0.084,2.033 -0.25,3 -0.368,2.332 -1.21,4.482 -2.525,6.45 0.112,-0.118 0.204,-0.209 0.275,-0.275 l 0.15,-0.175 c 2.9,-3.257 4.35,-7.09 4.35,-11.5 0,-1.759 -0.233,-3.425 -0.7,-5 C 10.559,10.493 10.208,9.592 9.775,8.725 9.26,7.53 8.493,6.363 7.475,5.225"
             style="fill:#bbd89c;fill-opacity:1;fill-rule:evenodd;stroke:none"
             id="path38" /></g><g
           id="g40"
           transform="translate(368.5996,285.9502)"><path
             d="m 0,0 c -1.316,-3.908 -3.649,-7.324 -7,-10.25 -0.066,-0.033 -0.149,-0.117 -0.25,-0.25 -0.1,-0.033 -0.149,-0.084 -0.149,-0.15 -0.101,-0.034 -0.167,-0.083 -0.201,-0.15 -0.433,-0.367 -0.866,-0.733 -1.299,-1.1 C -9,-11.934 -9.1,-12 -9.199,-12.101 -11.633,-13.9 -14.1,-15.117 -16.6,-15.75 l -2.849,-0.601 c -0.267,0 -0.517,-0.033 -0.75,-0.099 -1,-0.1 -2.034,-0.151 -3.101,-0.151 l -0.3,0 -0.299,0 -0.3,0 c -0.134,0.068 -0.284,0.101 -0.45,0.101 l -0.25,0 c -4.182,0.275 -7.89,1.476 -11.125,3.6 -2.517,3.904 -3.776,8.337 -3.776,13.299 0,2.092 0.226,4.092 0.675,6 9.717,-4.448 20.358,-6.681 31.926,-6.699 2.441,0.003 4.842,0.104 7.199,0.3 m -113.55,-122.05 46.725,46.574 c 1.696,-2.331 3.52,-4.623 5.475,-6.875 0.874,-0.999 1.757,-1.974 2.65,-2.924 l 51.075,-81.076 -1.074,0 c -40.434,0 -74.934,14.318 -103.501,42.951 -0.452,0.452 -0.902,0.902 -1.35,1.35 M 67.525,37 c -0.209,0.221 -0.417,0.438 -0.625,0.65 -1.628,1.637 -3.294,3.195 -5,4.675 2.639,5.218 4.614,10.71 5.925,16.475 L 93.676,84.575 C 94.018,84.232 94.359,83.89 94.7,83.55 116.034,62.183 129.417,37.566 134.851,9.7 c 0.2,-1.167 0.416,-2.35 0.649,-3.551 1.4,-8.299 2.101,-16.849 2.101,-25.649 l 0,-0.45 c 0,-22.934 -4.601,-43.967 -13.8,-63.1 -4.601,-9.433 -10.284,-18.417 -17.051,-26.95 -0.075,-0.091 -0.15,-0.183 -0.225,-0.275 L 112.5,-88.3 c 0.101,0.4 0.051,0.817 -0.149,1.25 -0.167,0.366 -0.417,0.683 -0.75,0.949 -0.134,0.035 -8.167,8.785 -24.101,26.25 3.448,7.859 5.157,14.851 5.125,20.976 -0.005,1.372 -0.005,2.605 0,3.7 0.547,2.661 0.964,5.245 1.25,7.75 0.469,4.224 0.561,8.233 0.275,12.025 0.034,0.367 0.034,0.783 0,1.25 -0.4,2.633 -0.883,5.25 -1.45,7.85 -2.666,11.433 -7.75,22.116 -15.25,32.05 -1.333,1.7 -2.7,3.383 -4.099,5.05 -1.467,1.7 -2.951,3.317 -4.451,4.85 -0.456,0.458 -0.914,0.909 -1.375,1.35 M -35.024,15.2 c 0.757,1.002 1.599,1.968 2.524,2.9 4.9,4.867 10.801,7.299 17.7,7.299 3.473,0 6.69,-0.616 9.651,-1.849 -0.393,0.553 -0.81,1.095 -1.25,1.625 0.193,-0.112 0.384,-0.229 0.575,-0.35 0.348,-0.262 0.69,-0.537 1.024,-0.825 1.321,-1.517 2.354,-3.133 3.101,-4.851 C -1.6,18.95 -1.5,18.767 -1.399,18.6 -0.3,16.566 0.467,14.416 0.9,12.149 c 0.063,-0.356 0.121,-0.714 0.175,-1.074 -3.332,-0.468 -6.757,-0.7 -10.274,-0.7 -9.271,-0.002 -17.879,1.606 -25.825,4.825"
             style="fill:#7bad45;fill-opacity:1;fill-rule:evenodd;stroke:none"
             id="path42" /></g><g
           id="g44"
           transform="translate(362.2002,311.125)"><path
             d="M 0,0 C -0.057,0.069 -0.115,0.136 -0.175,0.2 0.079,0.024 0.329,-0.159 0.575,-0.35 0.385,-0.229 0.193,-0.112 0,0 M 100.075,59.4 74.225,33.625 c 1.306,5.716 1.965,11.699 1.975,17.95 -0.017,11.181 -2.109,21.498 -6.275,30.95 C 80.606,76.35 90.656,68.641 100.075,59.4 m -160.5,-160.05 -46.725,-46.575 c -27.7,28.304 -41.55,62.337 -41.55,102.1 l 0,0.45 c 0.089,36.006 11.589,67.339 34.5,94 1.905,2.214 3.888,4.398 5.95,6.55 0.805,0.837 1.622,1.671 2.45,2.5 4.5,4.5 9.183,8.667 14.05,12.5 0.165,0.13 0.332,0.264 0.5,0.4 0.336,0.264 0.669,0.522 1,0.775 0.154,0.118 0.304,0.235 0.45,0.35 l 13.15,8.95 c 0.752,0.458 1.511,0.908 2.275,1.35 l 0,-0.025 c 0.41,0.238 0.818,0.479 1.225,0.725 l 1.225,0.675 c 0.468,0.25 0.935,0.5 1.4,0.75 4.524,2.416 9.157,4.566 13.9,6.45 4.045,1.601 8.171,3.009 12.375,4.225 1.177,0.34 2.36,0.665 3.55,0.975 12.14,3.167 24.94,4.75 38.4,4.75 9.199,0 18.083,-0.75 26.65,-2.25 3,-0.5 6,-1.117 9,-1.85 7.556,-1.815 14.865,-4.231 21.924,-7.25 6.836,-10.689 10.252,-22.79 10.25,-36.3 0.002,-10.708 -2.139,-20.524 -6.424,-29.45 -8.329,5.511 -17.445,9.411 -27.35,11.7 -0.233,0.067 -0.45,0.117 -0.65,0.15 -1.434,0.333 -2.916,0.633 -4.451,0.9 -0.199,0.033 -0.349,0.05 -0.449,0.05 -5.301,0.7 -8.25,1.067 -8.85,1.1 l -0.05,0 c -18.967,1.267 -36.134,-2.783 -51.5,-12.15 -4.234,-2.567 -8.317,-5.55 -12.25,-8.95 -0.1,-0.067 -0.167,-0.15 -0.2,-0.25 -0.133,-0.1 -0.284,-0.233 -0.451,-0.4 -0.53,-0.462 -1.055,-0.929 -1.574,-1.4 -2.051,-1.869 -3.984,-3.803 -5.8,-5.8 -1.214,1.499 -2.356,3.032 -3.425,4.6 1.018,1.138 1.785,2.305 2.3,3.5 0.433,0.867 0.784,1.768 1.05,2.7 0.467,1.575 0.7,3.241 0.7,5 0,4.41 -1.45,8.244 -4.35,11.5 l -0.15,0.175 c -0.071,0.066 -0.163,0.158 -0.275,0.275 -0.069,0.076 -0.144,0.159 -0.225,0.25 -0.051,0.051 -0.102,0.101 -0.15,0.15 -0.633,0.633 -1.317,1.217 -2.05,1.75 -2.26,1.695 -4.768,2.728 -7.525,3.1 l -0.025,0 c -0.432,0.1 -0.899,0.15 -1.4,0.15 -0.434,0.067 -0.867,0.1 -1.3,0.1 -0.333,0 -0.65,-0.033 -0.95,-0.1 -0.667,0 -1.317,-0.05 -1.95,-0.15 l -0.05,0 c -0.256,-0.041 -0.506,-0.091 -0.75,-0.15 l -2.2,-0.6 c -0.441,-0.164 -0.874,-0.347 -1.3,-0.55 -0.117,-0.05 -0.233,-0.1 -0.35,-0.15 -1.732,-0.798 -3.332,-1.931 -4.8,-3.4 -0.2,-0.2 -0.384,-0.417 -0.55,-0.65 -0.062,-0.066 -0.12,-0.133 -0.175,-0.2 -1.904,-2.117 -3.179,-4.5 -3.825,-7.15 -0.334,-1.4 -0.5,-2.85 -0.5,-4.35 0,-3.525 0.908,-6.667 2.725,-9.425 0.656,-0.989 1.431,-1.93 2.325,-2.825 1.517,-1.517 3.167,-2.7 4.95,-3.55 2.253,-1.067 4.72,-1.6 7.4,-1.6 2.109,0 4.084,0.325 5.925,0.975 1.599,-2.162 3.333,-4.271 5.2,-6.325 0.039,0.053 0.08,0.103 0.125,0.15 -0.358,-0.478 -0.708,-0.962 -1.05,-1.45 -0.7,-1 -1.35,-2 -1.95,-3 -1.6,-2.433 -3.083,-4.967 -4.45,-7.6 -0.016,-0.034 -0.033,-0.067 -0.05,-0.1 -1.014,-2.101 -1.964,-4.217 -2.85,-6.35 -0.634,-1.6 -1.217,-3.233 -1.75,-4.9 -2.267,-6.967 -3.683,-14.384 -4.25,-22.25 -1.522,-21.337 3.803,-40.429 15.975,-57.275"
             style="fill:#94c061;fill-opacity:1;fill-rule:evenodd;stroke:none"
             id="path46" /></g><g
           id="g48"
           transform="translate(433,138.7998)"><path
             d="m 0,0 c -3.879,-2.285 -7.846,-4.368 -11.9,-6.25 -0.534,-0.2 -1.034,-0.416 -1.5,-0.649 -17.454,-7.865 -36.47,-11.956 -57.05,-12.276 -0.524,-0.01 -1.049,-0.018 -1.575,-0.025 L -123.1,61.875 c 0.931,-0.984 1.873,-1.943 2.825,-2.875 2.176,-2.226 4.418,-4.309 6.725,-6.25 2.767,-2.366 5.684,-4.533 8.75,-6.5 10.033,-6.566 21.25,-10.816 33.65,-12.75 l 0.4,0 c 5.441,0.049 10.25,0.207 14.425,0.476 1.525,0.09 2.968,0.199 4.325,0.324 5.1,0.467 10.3,1.183 15.6,2.15 l 1.4,-1.4 0,-0.699 c 0.2,0.03 0.399,0.063 0.6,0.099 L 0,0 z"
             style="fill:#6c983d;fill-opacity:1;fill-rule:evenodd;stroke:none"
             id="path50" /></g><g
           id="g52"
           transform="translate(295,322.1499)"><path
             d="m 0,0 c -6.065,8.954 -9.948,18.82 -11.65,29.6 0.117,0.05 0.233,0.1 0.35,0.15 0.426,0.203 0.86,0.386 1.3,0.55 C -8.663,19.355 -5.138,9.33 0.575,0.225 1.124,-0.657 1.69,-1.532 2.275,-2.4 3.127,-3.633 4.019,-4.85 4.95,-6.05 5.657,-6.959 6.391,-7.859 7.15,-8.75 7.105,-8.797 7.064,-8.847 7.025,-8.9 5.158,-6.846 3.424,-4.737 1.825,-2.575 1.197,-1.725 0.588,-0.867 0,0 m 113.7,89.9 c 0.331,-0.331 0.664,-0.665 1,-1 3.317,-3.316 6.225,-6.799 8.725,-10.45 7.55,-11.081 11.325,-23.714 11.325,-37.9 0,-10.512 -2.066,-20.171 -6.2,-28.975 C 128.478,11.42 128.402,11.261 128.325,11.1 127.8,10.01 127.241,8.936 126.65,7.875 123.553,2.282 119.569,-2.943 114.7,-7.8 c -4.908,-4.92 -10.191,-8.937 -15.85,-12.05 -5.304,-2.91 -10.937,-5.027 -16.9,-6.35 -1.728,-0.383 -3.486,-0.7 -5.275,-0.95 -0.608,-0.085 -1.216,-0.16 -1.825,-0.225 -2.757,-0.317 -5.574,-0.475 -8.45,-0.475 -10.304,0 -19.788,1.983 -28.45,5.95 -2.096,0.97 -4.146,2.053 -6.15,3.25 l -0.325,-0.55 c -0.112,-0.181 -0.22,-0.365 -0.325,-0.55 0.323,0.596 0.673,1.18 1.05,1.75 2.078,-1.124 4.203,-2.124 6.375,-3 7.946,-3.218 16.555,-4.827 25.825,-4.825 3.518,0 6.943,0.233 10.275,0.7 0.526,0.074 1.052,0.157 1.575,0.25 1.565,0.254 3.106,0.562 4.625,0.925 11.948,2.814 22.557,8.864 31.825,18.15 5.637,5.626 10.078,11.743 13.325,18.35 0.096,0.186 0.188,0.369 0.275,0.55 4.285,8.926 6.427,18.742 6.425,29.45 0.002,13.511 -3.414,25.611 -10.25,36.3 -2.478,3.867 -5.403,7.55 -8.775,11.05 m 6.1,6.075 C 104.996,110.325 87.196,117.5 66.4,117.5 45.1,117.5 26.934,110 11.9,95 8.364,91.457 5.248,87.74 2.55,83.85 0.303,80.617 -1.656,77.267 -3.325,73.8 -3.79,73.55 -4.256,73.3 -4.725,73.05 L -5.95,72.375 C -6.356,72.129 -6.765,71.888 -7.175,71.65 l 0,0.025 C -3.416,80.919 2.276,89.361 9.9,97 c 15.041,15.012 33.208,22.521 54.5,22.525 21.259,-0.004 39.392,-7.512 54.4,-22.525 0.337,-0.336 0.67,-0.678 1,-1.025"
             style="fill:#e2e2e2;fill-opacity:1;fill-rule:evenodd;stroke:none"
             id="path54" /></g><g
           id="g56"
           transform="translate(302.1499,313.3999)"><path
             d="m 0,0 c -0.759,0.891 -1.493,1.791 -2.2,2.7 -0.931,1.2 -1.823,2.417 -2.675,3.65 -0.584,0.868 -1.151,1.743 -1.7,2.625 -5.713,9.105 -9.238,19.13 -10.575,30.075 l 2.2,0.6 c 0.244,0.059 0.494,0.109 0.75,0.15 l 0.05,0 c 0.633,0.1 1.283,0.15 1.95,0.15 0.3,0.067 0.617,0.1 0.95,0.1 0.434,0 0.867,-0.033 1.3,-0.1 0.502,0 0.969,-0.05 1.4,-0.15 l 0.025,0 c 0.946,-7.487 3.054,-14.487 6.325,-21 0.793,-1.581 1.652,-3.131 2.575,-4.65 C 0.944,13.221 1.536,12.305 2.15,11.4 3.22,9.833 4.361,8.299 5.575,6.8 5.339,6.543 5.106,6.285 4.875,6.025 L 0,0 z m 119.2,-122.8 -3.1,-2.45 c -0.2,-0.133 -0.366,-0.25 -0.5,-0.35 -0.267,-0.2 -0.517,-0.366 -0.75,-0.5 -1.134,-0.733 -2.267,-1.467 -3.4,-2.2 -0.1,-0.033 -0.183,-0.083 -0.25,-0.15 l 65.6,-65.75 c 0.133,-0.133 0.317,-0.316 0.55,-0.55 l 1.1,-1.1 c 1.4,-1.366 3.067,-2.05 5,-2.05 1.633,0.067 3.05,0.55 4.25,1.45 0.3,0.166 0.55,0.383 0.75,0.65 0.233,0.167 1.25,-0.4 3.05,-1.7 1.767,-1.333 5.117,-4.817 10.05,-10.45 4.867,-5.533 11.833,-9.533 20.9,-12 -5.933,-1 -14.783,-1.7 -26.55,-2.1 -11.121,-0.349 -19.721,2.201 -25.8,7.65 -1.462,1.317 -2.778,2.8 -3.95,4.45 l -20.1,20.1 0.05,0 -15.25,15.25 -34.4,34.45 -0.6,0.6 -1.4,1.4 c -5.3,-0.967 -10.5,-1.683 -15.6,-2.15 -1.357,-0.125 -2.8,-0.234 -4.325,-0.325 l 33.95,33.925 c 0.542,-0.528 1.075,-1.045 1.6,-1.55 4.902,-4.797 8.96,-8.847 12.175,-12.15 -0.167,-0.066 -0.284,-0.167 -0.35,-0.3 -0.9,-0.733 -1.767,-1.45 -2.6,-2.15 l -0.1,0.05 z M 3.425,89 c -4.742,-1.884 -9.376,-4.034 -13.9,-6.45 1.669,3.467 3.628,6.817 5.875,10.05 2.698,3.89 5.814,7.607 9.35,11.15 15.034,15 33.2,22.5 54.5,22.5 20.796,0 38.596,-7.175 53.4,-21.525 0.335,-0.318 0.668,-0.643 1,-0.975 7.129,-7.129 12.571,-14.962 16.325,-23.5 4.166,-9.452 6.258,-19.769 6.275,-30.95 -0.009,-6.251 -0.668,-12.234 -1.975,-17.95 -1.312,-5.765 -3.286,-11.257 -5.925,-16.475 -0.037,-0.074 -0.07,-0.148 -0.1,-0.225 -3.636,-7.117 -8.503,-13.716 -14.6,-19.8 -10.662,-10.685 -22.903,-17.577 -36.725,-20.675 -0.103,-0.029 -0.203,-0.053 -0.3,-0.075 -2.469,-0.547 -4.986,-0.972 -7.55,-1.275 -0.869,-0.103 -1.744,-0.195 -2.625,-0.275 -2.358,-0.196 -4.758,-0.297 -7.2,-0.3 -11.567,0.018 -22.208,2.251 -31.925,6.7 -1.929,0.879 -3.822,1.845 -5.675,2.9 0.047,0.277 0.098,0.552 0.15,0.825 0.015,0.092 0.032,0.184 0.05,0.275 0.173,0.857 0.39,1.69 0.65,2.5 0.388,1.194 0.872,2.336 1.45,3.425 L 24,-11 c 0.105,0.185 0.213,0.369 0.325,0.55 l 0.325,0.55 c 2.004,-1.197 4.054,-2.28 6.15,-3.25 8.662,-3.967 18.146,-5.95 28.45,-5.95 2.876,0 5.693,0.158 8.45,0.475 0.609,0.065 1.217,0.14 1.825,0.225 1.789,0.25 3.547,0.567 5.275,0.95 5.963,1.323 11.596,3.44 16.9,6.35 5.659,3.113 10.942,7.13 15.85,12.05 4.869,4.857 8.853,10.082 11.95,15.675 0.591,1.061 1.15,2.135 1.675,3.225 0.077,0.161 0.153,0.32 0.225,0.475 4.134,8.804 6.2,18.463 6.2,28.975 0,14.186 -3.775,26.819 -11.325,37.9 -2.5,3.651 -5.408,7.134 -8.725,10.45 -0.336,0.335 -0.669,0.669 -1,1 -13.141,12.666 -28.908,18.983 -47.3,18.95 -18.9,0.033 -35.034,-6.617 -48.4,-19.95 C 8.09,94.883 5.616,92 3.425,89"
             style="fill:#d3d3d3;fill-opacity:1;fill-rule:evenodd;stroke:none"
             id="path58" /></g><g
           id="g60"
           transform="translate(430.5,328.2749)"><path
             d="m 0,0 c 1.706,-1.48 3.372,-3.038 5,-4.675 0.208,-0.212 0.416,-0.429 0.625,-0.65 -1.864,1.802 -3.772,3.502 -5.725,5.1 0.03,0.077 0.063,0.151 0.1,0.225 m -100.6,-53.175 c 0.853,-0.762 1.745,-1.446 2.675,-2.05 3.236,-2.124 6.944,-3.324 11.125,-3.6 l 0.25,0 c 0.166,0 0.317,-0.033 0.45,-0.1 l 0.3,0 0.3,0 0.3,0 c 1.066,0 2.1,0.05 3.1,0.15 0.234,0.067 0.484,0.1 0.75,0.1 l 2.85,0.6 c 2.5,0.633 4.967,1.85 7.4,3.65 0.1,0.1 0.2,0.167 0.3,0.2 0.434,0.367 0.866,0.733 1.3,1.1 0.033,0.067 0.1,0.117 0.2,0.15 0,0.066 0.05,0.117 0.15,0.15 0.1,0.133 0.183,0.217 0.25,0.25 3.35,2.926 5.683,6.342 7,10.25 0.88,0.08 1.755,0.172 2.625,0.275 -1.101,-4.872 -3.643,-9.047 -7.625,-12.525 -0.067,-0.033 -0.15,-0.117 -0.25,-0.25 -0.1,-0.033 -0.15,-0.084 -0.15,-0.15 -0.1,-0.033 -0.167,-0.083 -0.2,-0.15 -0.434,-0.367 -0.866,-0.733 -1.3,-1.1 -0.1,-0.033 -0.2,-0.1 -0.3,-0.2 -2.433,-1.8 -4.9,-3.017 -7.4,-3.65 l -2.85,-0.6 c -0.266,0 -0.516,-0.033 -0.75,-0.1 -1,-0.1 -2.034,-0.15 -3.1,-0.15 l -0.3,0 -0.3,0 -0.3,0 c -0.133,0.067 -0.284,0.1 -0.45,0.1 l -0.25,0 c -5.009,0.33 -9.343,1.981 -13,4.95 -0.98,0.805 -1.913,1.706 -2.8,2.7 m 33.9,34.85 c 0.184,-0.165 0.368,-0.332 0.55,-0.5 2.034,-1.933 3.55,-4.05 4.55,-6.35 0.1,-0.2 0.2,-0.383 0.3,-0.55 0.91,-1.683 1.594,-3.441 2.05,-5.275 -0.523,-0.093 -1.049,-0.176 -1.575,-0.25 -0.054,0.36 -0.113,0.718 -0.175,1.075 -0.434,2.266 -1.2,4.417 -2.3,6.45 -0.1,0.167 -0.2,0.35 -0.3,0.55 -0.747,1.717 -1.78,3.334 -3.1,4.85 M -120.6,-127.6 c -0.893,0.95 -1.776,1.926 -2.65,2.925 -1.955,2.252 -3.78,4.544 -5.475,6.875 -12.172,16.846 -17.497,35.938 -15.975,57.275 0.567,7.866 1.983,15.283 4.25,22.25 0.533,1.667 1.117,3.3 1.75,4.9 0.886,2.133 1.836,4.25 2.85,6.35 0.017,0.033 0.034,0.067 0.05,0.1 1.367,2.633 2.85,5.167 4.45,7.6 0.6,1 1.25,2 1.95,3 0.342,0.489 0.692,0.972 1.05,1.45 l 4.875,6.025 c 0.231,0.26 0.464,0.518 0.7,0.775 1.817,1.997 3.75,3.931 5.8,5.8 0.519,0.471 1.044,0.938 1.575,1.4 0.167,0.167 0.317,0.3 0.45,0.4 0.033,0.1 0.1,0.183 0.2,0.25 3.934,3.4 8.017,6.383 12.25,8.95 15.366,9.367 32.533,13.417 51.5,12.15 l 0.05,0 c 0.6,-0.033 3.55,-0.4 8.85,-1.1 0.1,0 0.25,-0.017 0.45,-0.05 1.534,-0.267 3.016,-0.567 4.45,-0.9 0.2,-0.033 0.417,-0.083 0.65,-0.15 9.905,-2.289 19.022,-6.189 27.35,-11.7 -0.087,-0.181 -0.179,-0.364 -0.275,-0.55 -7.707,4.751 -16.065,8.168 -25.075,10.25 -0.233,0.067 -0.45,0.117 -0.65,0.15 -1.434,0.333 -2.916,0.633 -4.45,0.9 -0.2,0.033 -0.35,0.05 -0.45,0.05 -5.3,0.7 -8.25,1.067 -8.85,1.1 l -0.05,0 c -18.98,1.281 -36.146,-2.769 -51.5,-12.15 -4.22,-2.58 -8.303,-5.563 -12.25,-8.95 -0.1,-0.067 -0.167,-0.15 -0.2,-0.25 -0.133,-0.1 -0.283,-0.233 -0.45,-0.4 -5.433,-4.733 -10.1,-9.883 -14,-15.45 -0.7,-1 -1.35,-2 -1.95,-3 -1.6,-2.433 -3.083,-4.967 -4.45,-7.6 -1.033,-2.133 -2,-4.283 -2.9,-6.45 -0.634,-1.608 -1.217,-3.242 -1.75,-4.9 -2.268,-6.971 -3.685,-14.388 -4.25,-22.25 -1.451,-20.35 3.324,-38.659 14.325,-54.925 2.144,-3.148 4.519,-6.223 7.125,-9.225 0.08,-0.091 0.163,-0.183 0.25,-0.275 1.057,-1.209 2.132,-2.383 3.225,-3.525 -0.952,0.932 -1.894,1.891 -2.825,2.875"
             style="fill:#b6b6b6;fill-opacity:1;fill-rule:evenodd;stroke:none"
             id="path62" /></g><g
           id="g64"
           transform="translate(462.4746,258.5254)"><path
             d="M 0,0 -51.85,-51.825 -85.8,-85.75 c -4.175,-0.269 -8.983,-0.427 -14.425,-0.476 l -0.4,0 c -12.399,1.934 -23.616,6.184 -33.649,12.75 -3.067,1.967 -5.984,4.134 -8.75,6.5 -2.308,1.942 -4.549,4.025 -6.726,6.25 -1.092,1.142 -2.167,2.317 -3.225,3.526 -0.087,0.092 -0.17,0.183 -0.25,0.274 -2.606,3.002 -4.981,6.077 -7.125,9.226 -11.001,16.265 -15.776,34.574 -14.325,54.925 0.566,7.862 1.983,15.279 4.25,22.25 0.533,1.658 1.116,3.292 1.75,4.9 0.901,2.166 1.867,4.316 2.901,6.449 1.366,2.634 2.849,5.167 4.449,7.601 0.6,1 1.25,2 1.95,3 3.9,5.566 8.567,10.716 14,15.45 0.167,0.167 0.317,0.3 0.45,0.399 0.033,0.101 0.101,0.184 0.2,0.25 3.948,3.387 8.031,6.371 12.25,8.951 15.354,9.38 32.52,13.431 51.5,12.15 l 0.05,0 c 0.601,-0.034 3.55,-0.4 8.851,-1.101 0.099,0 0.25,-0.016 0.449,-0.049 1.534,-0.267 3.017,-0.567 4.45,-0.9 0.2,-0.033 0.417,-0.084 0.651,-0.15 9.009,-2.083 17.368,-5.499 25.075,-10.25 -3.247,-6.608 -7.689,-12.724 -13.325,-18.35 -9.269,-9.287 -19.877,-15.337 -31.826,-18.15 -1.518,-0.363 -3.059,-0.671 -4.625,-0.925 -0.456,1.834 -1.139,3.592 -2.049,5.274 -0.101,0.167 -0.201,0.351 -0.3,0.55 -1,2.301 -2.517,4.417 -4.551,6.351 -0.182,0.168 -0.365,0.335 -0.55,0.5 -0.334,0.288 -0.676,0.563 -1.024,0.825 -0.246,0.19 -0.496,0.374 -0.75,0.55 -3.474,2.444 -7.615,3.869 -12.426,4.275 -2.301,0.139 -4.501,-0.011 -6.6,-0.45 -3.92,-0.823 -7.487,-2.656 -10.7,-5.5 -0.233,-0.167 -0.45,-0.351 -0.649,-0.551 -1.766,-1.505 -3.249,-3.154 -4.45,-4.949 -0.377,-0.57 -0.728,-1.154 -1.05,-1.75 l -0.051,-0.125 c -0.578,-1.09 -1.062,-2.231 -1.449,-3.426 -0.261,-0.809 -0.478,-1.642 -0.651,-2.5 -0.018,-0.091 -0.035,-0.182 -0.049,-0.274 -0.053,-0.274 -0.104,-0.548 -0.151,-0.825 -0.114,-0.75 -0.198,-1.517 -0.25,-2.3 l 0,-0.151 c -0.09,-1.645 -0.04,-3.246 0.151,-4.799 0.082,-0.745 0.199,-1.478 0.349,-2.201 0.834,-3.666 2.601,-7.066 5.3,-10.2 0.018,-0.015 0.034,-0.032 0.051,-0.05 l 0.099,0 c 0.133,-0.155 0.266,-0.305 0.401,-0.45 0.886,-0.994 1.819,-1.894 2.8,-2.699 3.657,-2.97 7.991,-4.62 13,-4.95 l 0.25,0 c 0.166,0 0.316,-0.033 0.45,-0.101 l 0.3,0 0.299,0 0.3,0 c 1.067,0 2.101,0.051 3.101,0.151 0.233,0.066 0.483,0.099 0.75,0.099 l 2.849,0.601 c 2.5,0.633 4.967,1.849 7.401,3.649 0.099,0.101 0.199,0.167 0.3,0.2 0.433,0.368 0.866,0.734 1.299,1.101 0.034,0.066 0.1,0.116 0.201,0.149 0,0.067 0.049,0.118 0.149,0.151 0.101,0.133 0.184,0.217 0.25,0.25 3.982,3.477 6.524,7.652 7.625,12.524 2.564,0.304 5.081,0.729 7.551,1.276 0.096,0.021 0.196,0.046 0.3,0.075 13.821,3.097 26.062,9.989 36.724,20.675 6.097,6.083 10.964,12.683 14.601,19.799 1.952,-1.598 3.86,-3.298 5.724,-5.099 0.461,-0.442 0.919,-0.892 1.375,-1.35 1.5,-1.533 2.984,-3.15 4.451,-4.85 1.399,-1.667 2.766,-3.35 4.099,-5.05 7.5,-9.934 12.584,-20.617 15.25,-32.05 0.567,-2.601 1.05,-5.217 1.45,-7.851 0.034,-0.466 0.034,-0.882 0,-1.25 C 0.561,8.232 0.469,4.224 0,0"
             style="fill:#a3a3a3;fill-opacity:1;fill-rule:evenodd;stroke:none"
             id="path66" /></g><g
           id="g68"
           transform="translate(398.5996,173.25)"><path
             d="m 0,0 c -0.2,-0.036 -0.399,-0.069 -0.6,-0.1 l 0,0.7 L 0,0 z m 98.226,-23.825 c -0.358,-0.039 -0.699,-0.014 -1.026,0.075 -0.333,0.2 -0.599,0.467 -0.8,0.8 -0.066,0.066 -0.099,0.15 -0.099,0.25 -0.134,0.334 -0.151,0.667 -0.051,1 l 0.051,0.05 6.75,25.05 c 0.099,0.433 0.083,0.85 -0.051,1.25 1.423,-1.926 2.105,-3.009 2.051,-3.25 l -6.75,-25.05 -0.051,-0.05 c -0.012,-0.039 -0.02,-0.081 -0.024,-0.125 m 31.125,3.225 c 6.564,-5.904 9.68,-14.588 9.349,-26.05 -0.467,-13.734 -1.383,-23.517 -2.75,-29.35 -0.233,-1.167 -0.766,-2.25 -1.599,-3.25 l -0.151,-0.3 c -0.333,-0.233 -0.649,-0.45 -0.95,-0.65 -0.8,-0.533 -1.666,-0.866 -2.6,-1 -0.799,-0.2 -1.683,-0.4 -2.65,-0.6 -5.933,-1 -14.783,-1.7 -26.55,-2.1 -12.402,-0.389 -21.669,2.827 -27.8,9.65 6.079,-5.449 14.679,-7.999 25.8,-7.65 11.767,0.4 20.617,1.1 26.55,2.1 0.967,0.2 1.851,0.4 2.65,0.6 0.934,0.134 1.8,0.467 2.6,1 0.301,0.2 0.617,0.417 0.95,0.65 l 0.151,0.3 c 0.833,1 1.366,2.083 1.599,3.25 1.367,5.833 2.283,15.616 2.75,29.35 0.296,10.229 -2.154,18.246 -7.349,24.05 m -53.776,19.45 -0.024,0 0,-0.05 c -0.367,-0.067 -0.75,-0.033 -1.151,0.1 -0.192,0.096 -0.359,0.23 -0.5,0.4 -0.115,0.131 -0.215,0.281 -0.299,0.45 l 0,0.15 c -0.134,0.333 -0.134,0.683 0,1.05 L 73.551,0.85 80.5,26.4 c 0.101,0.4 0.051,0.817 -0.149,1.25 -0.167,0.367 -0.417,0.683 -0.75,0.95 -0.134,0.034 -8.167,8.784 -24.101,26.25 1.967,3.834 4.051,10.117 6.25,18.85 0.32,1.295 0.612,2.571 0.875,3.825 -0.005,-1.094 -0.005,-2.328 0,-3.7 C 62.657,67.7 60.948,60.708 57.5,52.85 73.434,35.384 81.467,26.634 81.601,26.6 c 0.333,-0.267 0.583,-0.583 0.75,-0.95 0.2,-0.433 0.25,-0.85 0.149,-1.25 L 76.525,2.425 75.551,-1.15 l 0.05,0.1 c -0.012,-0.032 -0.021,-0.065 -0.026,-0.1"
             style="fill:#8f8f8f;fill-opacity:1;fill-rule:evenodd;stroke:none"
             id="path70" /></g><g
           id="g72"
           transform="translate(421.3496,190.5996)"><path
             d="M 0,0 0.101,-0.05 0,-0.05 0,0 z m -10.725,16.101 51.85,51.825 C 40.839,65.421 40.422,62.837 39.875,60.176 39.612,58.921 39.32,57.646 39,56.351 36.801,47.617 34.717,41.334 32.75,37.5 48.684,20.034 56.717,11.284 56.851,11.25 c 0.333,-0.267 0.583,-0.583 0.75,-0.949 0.2,-0.434 0.25,-0.851 0.149,-1.25 l -6.949,-25.551 0.05,0.101 c -0.134,-0.368 -0.134,-0.717 0,-1.05 l 0,-0.151 c 0.084,-0.169 0.184,-0.319 0.299,-0.45 0.141,-0.17 0.308,-0.304 0.5,-0.399 0.401,-0.134 0.784,-0.167 1.151,-0.101 l 0,0.05 0.024,0 25.325,6.65 c 0.434,0.234 0.833,0.217 1.201,-0.049 0.333,-0.167 0.632,-0.434 0.899,-0.8 0.134,-0.401 0.15,-0.818 0.051,-1.25 L 73.551,-39 73.5,-39.05 c -0.1,-0.333 -0.083,-0.666 0.051,-1 0,-0.099 0.033,-0.183 0.099,-0.25 0.201,-0.333 0.467,-0.599 0.8,-0.8 0.327,-0.088 0.668,-0.114 1.026,-0.075 0.039,0.01 0.081,0.018 0.125,0.026 l 0,-0.101 0.099,0.101 26.651,7 c 1.576,-1.142 2.992,-2.409 4.25,-3.8 5.195,-5.805 7.645,-13.822 7.349,-24.051 -0.467,-13.733 -1.383,-23.517 -2.75,-29.35 -0.233,-1.167 -0.766,-2.25 -1.599,-3.25 l -0.151,-0.299 c -0.333,-0.234 -0.649,-0.451 -0.95,-0.651 -0.8,-0.533 -1.666,-0.866 -2.6,-1 -0.799,-0.2 -1.683,-0.399 -2.65,-0.599 -21.5,21.599 -32.816,32.933 -33.949,34 L 9.2,-2.8 C 9,-2.699 8.834,-2.566 8.7,-2.399 L 3.5,2.851 3.351,2.7 C 3.25,2.634 3.15,2.534 3.051,2.4 -0.165,5.703 -4.223,9.753 -9.125,14.551 c -0.524,0.505 -1.058,1.021 -1.6,1.55"
             style="fill:#dbdbdb;fill-opacity:1;fill-rule:evenodd;stroke:none"
             id="path74" /></g><g
           id="g76"
           transform="translate(421.3496,190.5996)"><path
             d="m 0,0 0,-0.05 0.101,0 C 0.934,0.65 1.801,1.367 2.7,2.101 2.767,2.233 2.884,2.334 3.051,2.4 3.15,2.534 3.25,2.634 3.351,2.7 L 3.5,2.851 8.7,-2.399 C 8.834,-2.566 9,-2.699 9.2,-2.8 l 60.101,-60.349 c 1.133,-1.067 12.449,-12.401 33.949,-34 -9.066,2.466 -16.033,6.466 -20.899,12 -4.934,5.632 -8.284,9.116 -10.05,10.45 -1.801,1.3 -2.818,1.866 -3.051,1.699 -0.199,-0.267 -0.449,-0.483 -0.75,-0.649 -1.199,-0.901 -2.616,-1.384 -4.25,-1.451 -1.933,0 -3.6,0.684 -5,2.05 l -1.1,1.101 c -0.233,0.233 -0.417,0.416 -0.549,0.55 L -8,-5.649 c 0.067,0.066 0.15,0.116 0.25,0.149 1.134,0.733 2.267,1.467 3.4,2.2 0.234,0.134 0.484,0.3 0.75,0.5 0.134,0.101 0.3,0.217 0.5,0.351 L 0,0 z"
             style="fill:#c8c8c8;fill-opacity:1;fill-rule:evenodd;stroke:none"
             id="path78" /></g></g></g></g></svg>