<?xml version="1.0" encoding="UTF-8" standalone="no"?>
<!-- Generator: Adobe Illustrator 14.0.0, SVG Export Plug-In . SVG Version: 6.00 Build 43363)  -->

<svg
   xmlns:dc="http://purl.org/dc/elements/1.1/"
   xmlns:cc="http://creativecommons.org/ns#"
   xmlns:rdf="http://www.w3.org/1999/02/22-rdf-syntax-ns#"
   xmlns:svg="http://www.w3.org/2000/svg"
   xmlns="http://www.w3.org/2000/svg"
   xmlns:sodipodi="http://sodipodi.sourceforge.net/DTD/sodipodi-0.dtd"
   xmlns:inkscape="http://www.inkscape.org/namespaces/inkscape"
   version="1.1"
   id="Layer_1"
   x="0px"
   y="0px"
   width="48px"
   height="48px"
   viewBox="0 0 48 48"
   enable-background="new 0 0 48 48"
   xml:space="preserve"
   inkscape:version="0.48.2 r9819"
   sodipodi:docname="ic_menu_qr_code.svg"><metadata
   id="metadata231"><rdf:RDF><cc:Work
       rdf:about=""><dc:format>image/svg+xml</dc:format><dc:type
         rdf:resource="http://purl.org/dc/dcmitype/StillImage" /></cc:Work></rdf:RDF></metadata><defs
   id="defs229">
	
	
	
	
	
	
	
	
	
	
	
	
	
	
	
	
	
	
	
	
	
	
	
	
	
	
	
	
	
	
	
	
	
	
	
	
	
	
	
	
	
	
	
	
	
	
	
	
	
	
	
	
	
	
	
	
	
	
	
	
	
	
	
	
	
	
	
	
	
	
	
	
	
	
	
	
	
	
	
	
	
	
	
	
	
	
	
	
	
	
	
	
	
	
	
	
	
	
	
	
	
	
	
	
	
	
	
	
	
	
	
</defs><sodipodi:namedview
   pagecolor="#ffffff"
   bordercolor="#666666"
   borderopacity="1"
   objecttolerance="10"
   gridtolerance="10"
   guidetolerance="10"
   inkscape:pageopacity="0"
   inkscape:pageshadow="2"
   inkscape:window-width="1280"
   inkscape:window-height="921"
   id="namedview227"
   showgrid="false"
   inkscape:zoom="8.4558186"
   inkscape:cx="9.2917208"
   inkscape:cy="14.446251"
   inkscape:window-x="-4"
   inkscape:window-y="-4"
   inkscape:window-maximized="1"
   inkscape:current-layer="Layer_1" />
<rect
   style="opacity:0.6;fill:#333333;fill-opacity:1"
   id="rect25"
   height="6.8569999"
   width="2.286"
   y="4.5710001"
   x="4.5710001" /><rect
   style="opacity:0.6;fill:#333333;fill-opacity:1"
   id="rect39"
   height="6.8569999"
   width="2.286"
   y="4.5710001"
   x="6.8569999" /><rect
   style="opacity:0.6;fill:#333333;fill-opacity:1"
   id="rect55"
   height="6.8569999"
   width="2.2850001"
   y="4.5710001"
   x="9.1440001" /><rect
   style="opacity:0.6;fill:#333333;fill-opacity:1"
   id="rect33"
   height="6.8569999"
   width="2.286"
   y="36.57"
   x="4.5710001" /><rect
   style="opacity:0.6;fill:#333333;fill-opacity:1"
   id="rect49"
   height="6.8569999"
   width="2.286"
   y="36.57"
   x="6.8569999" /><rect
   style="opacity:0.6;fill:#333333;fill-opacity:1"
   id="rect61"
   height="6.8569999"
   width="2.2850001"
   y="36.57"
   x="9.1440001" /><rect
   y="0"
   x="0"
   style="opacity:0.6;fill:#333333;fill-opacity:1"
   id="rect5"
   height="16"
   width="2.2850001" /><rect
   y="0"
   style="opacity:0.6;fill:#333333;fill-opacity:1"
   id="rect13"
   height="2.2850001"
   width="2.286"
   x="2.2850001" /><rect
   style="opacity:0.6;fill:#333333;fill-opacity:1"
   id="rect15"
   height="2.286"
   width="2.286"
   y="13.714"
   x="2.2850001" /><rect
   y="0"
   style="opacity:0.6;fill:#333333;fill-opacity:1"
   id="rect23"
   height="2.2850001"
   width="2.286"
   x="4.5710001" /><rect
   style="opacity:0.6;fill:#333333;fill-opacity:1"
   id="rect27"
   height="2.286"
   width="2.286"
   y="13.714"
   x="4.5710001" /><rect
   y="0"
   style="opacity:0.6;fill:#333333;fill-opacity:1"
   id="rect37"
   height="2.2850001"
   width="2.286"
   x="6.8569999" /><rect
   style="opacity:0.6;fill:#333333;fill-opacity:1"
   id="rect41"
   height="2.286"
   width="2.286"
   y="13.714"
   x="6.8569999" /><rect
   y="0"
   style="opacity:0.6;fill:#333333;fill-opacity:1"
   id="rect53"
   height="2.2850001"
   width="2.2850001"
   x="9.1440001" /><rect
   style="opacity:0.6;fill:#333333;fill-opacity:1"
   id="rect57"
   height="2.286"
   width="2.2850001"
   y="13.714"
   x="9.1440001" /><rect
   y="0"
   style="opacity:0.6;fill:#333333;fill-opacity:1"
   id="rect65"
   height="2.2850001"
   width="2.2850001"
   x="11.429" /><rect
   style="opacity:0.6;fill:#333333;fill-opacity:1"
   id="rect67"
   height="2.286"
   width="2.2850001"
   y="13.714"
   x="11.429" /><rect
   y="0"
   style="opacity:0.6;fill:#333333;fill-opacity:1"
   id="rect75"
   height="16"
   width="2.286"
   x="13.714" /><rect
   x="0"
   style="opacity:0.6;fill:#333333;fill-opacity:1"
   id="rect11"
   height="16"
   width="2.2850001"
   y="32" /><rect
   style="opacity:0.6;fill:#333333;fill-opacity:1"
   id="rect19"
   height="2.2850001"
   width="2.286"
   y="32"
   x="2.2850001" /><rect
   style="opacity:0.6;fill:#333333;fill-opacity:1"
   id="rect21"
   height="2.286"
   width="2.286"
   y="45.714001"
   x="2.2850001" /><rect
   style="opacity:0.6;fill:#333333;fill-opacity:1"
   id="rect31"
   height="2.2850001"
   width="2.286"
   y="32"
   x="4.5710001" /><rect
   style="opacity:0.6;fill:#333333;fill-opacity:1"
   id="rect35"
   height="2.286"
   width="2.286"
   y="45.714001"
   x="4.5710001" /><rect
   style="opacity:0.6;fill:#333333;fill-opacity:1"
   id="rect47"
   height="2.2850001"
   width="2.286"
   y="32"
   x="6.8569999" /><rect
   style="opacity:0.6;fill:#333333;fill-opacity:1"
   id="rect51"
   height="2.286"
   width="2.286"
   y="45.714001"
   x="6.8569999" /><rect
   style="opacity:0.6;fill:#333333;fill-opacity:1"
   id="rect59"
   height="2.2850001"
   width="2.2850001"
   y="32"
   x="9.1440001" /><rect
   style="opacity:0.6;fill:#333333;fill-opacity:1"
   id="rect63"
   height="2.286"
   width="2.2850001"
   y="45.714001"
   x="9.1440001" /><rect
   style="opacity:0.6;fill:#333333;fill-opacity:1"
   id="rect71"
   height="2.2850001"
   width="2.2850001"
   y="32"
   x="11.429" /><rect
   style="opacity:0.6;fill:#333333;fill-opacity:1"
   id="rect73"
   height="2.286"
   width="2.2850001"
   y="45.714001"
   x="11.429" /><rect
   style="opacity:0.6;fill:#333333;fill-opacity:1"
   id="rect83"
   height="16"
   width="2.286"
   y="32"
   x="13.714" /><rect
   style="opacity:0.6;fill:#333333;fill-opacity:1"
   id="rect163"
   height="6.8569999"
   width="2.2869999"
   y="4.5710001"
   x="36.57" /><rect
   style="opacity:0.6;fill:#333333;fill-opacity:1"
   id="rect177"
   height="6.8569999"
   width="2.2850001"
   y="4.5710001"
   x="38.856998" /><rect
   style="opacity:0.6;fill:#333333;fill-opacity:1"
   id="rect191"
   height="6.8569999"
   width="2.2869999"
   y="4.5710001"
   x="41.143002" /><rect
   y="0"
   style="opacity:0.6;fill:#333333;fill-opacity:1"
   id="rect141"
   height="16"
   width="2.2850001"
   x="32" /><rect
   y="0"
   style="opacity:0.6;fill:#333333;fill-opacity:1"
   id="rect151"
   height="2.2850001"
   width="2.2850001"
   x="34.285" /><rect
   style="opacity:0.6;fill:#333333;fill-opacity:1"
   id="rect153"
   height="2.286"
   width="2.2850001"
   y="13.714"
   x="34.285" /><rect
   y="0"
   style="opacity:0.6;fill:#333333;fill-opacity:1"
   id="rect161"
   height="2.2850001"
   width="2.2869999"
   x="36.57" /><rect
   style="opacity:0.6;fill:#333333;fill-opacity:1"
   id="rect165"
   height="2.286"
   width="2.2869999"
   y="13.714"
   x="36.57" /><rect
   y="0"
   style="opacity:0.6;fill:#333333;fill-opacity:1"
   id="rect175"
   height="2.2850001"
   width="2.2850001"
   x="38.856998" /><rect
   style="opacity:0.6;fill:#333333;fill-opacity:1"
   id="rect179"
   height="2.286"
   width="2.2850001"
   y="13.714"
   x="38.856998" /><rect
   y="0"
   style="opacity:0.6;fill:#333333;fill-opacity:1"
   id="rect189"
   height="2.2850001"
   width="2.2869999"
   x="41.143002" /><rect
   style="opacity:0.6;fill:#333333;fill-opacity:1"
   id="rect193"
   height="2.286"
   width="2.2869999"
   y="13.714"
   x="41.143002" /><rect
   y="0"
   style="opacity:0.6;fill:#333333;fill-opacity:1"
   id="rect203"
   height="2.2850001"
   width="2.2839999"
   x="43.43" /><rect
   style="opacity:0.6;fill:#333333;fill-opacity:1"
   id="rect205"
   height="2.286"
   width="2.2839999"
   y="13.714"
   x="43.43" /><rect
   y="0"
   style="opacity:0.6;fill:#333333;fill-opacity:1"
   id="rect217"
   height="16"
   width="2.286"
   x="45.714001" /><rect
   x="0"
   style="opacity:0.6;fill:#333333;fill-opacity:1"
   id="rect7"
   height="4.572"
   width="2.2850001"
   y="18.285" /><rect
   style="opacity:0.6;fill:#333333;fill-opacity:1"
   id="rect17"
   height="2.2869999"
   width="2.286"
   y="27.427999"
   x="2.2850001" /><rect
   style="opacity:0.6;fill:#333333;fill-opacity:1"
   id="rect29"
   height="6.8559999"
   width="2.286"
   y="20.570999"
   x="4.5710001" /><rect
   style="opacity:0.6;fill:#333333;fill-opacity:1"
   id="rect43"
   height="2.286"
   width="2.286"
   y="20.570999"
   x="6.8569999" /><rect
   style="opacity:0.6;fill:#333333;fill-opacity:1"
   id="rect45"
   height="4.572"
   width="2.286"
   y="25.143"
   x="6.8569999" /><rect
   style="opacity:0.6;fill:#333333;fill-opacity:1"
   id="rect69"
   height="2.286"
   width="2.2850001"
   y="22.857"
   x="11.429" /><rect
   style="opacity:0.6;fill:#333333;fill-opacity:1"
   id="rect77"
   height="2.286"
   width="2.286"
   y="18.285"
   x="13.714" /><rect
   style="opacity:0.6;fill:#333333;fill-opacity:1"
   id="rect79"
   height="2.286"
   width="2.286"
   y="22.857"
   x="13.714" /><rect
   style="opacity:0.6;fill:#333333;fill-opacity:1"
   id="rect81"
   height="2.2869999"
   width="2.286"
   y="27.427999"
   x="13.714" /><rect
   style="opacity:0.6;fill:#333333;fill-opacity:1"
   id="rect85"
   height="4.572"
   width="2.286"
   y="20.570999"
   x="16" /><rect
   style="opacity:0.6;fill:#333333;fill-opacity:1"
   id="rect87"
   height="6.8569999"
   width="2.286"
   y="2.2850001"
   x="18.285999" /><rect
   style="opacity:0.6;fill:#333333;fill-opacity:1"
   id="rect89"
   height="18.285999"
   width="2.286"
   y="13.714"
   x="18.285999" /><rect
   style="opacity:0.6;fill:#333333;fill-opacity:1"
   id="rect91"
   height="2.286"
   width="2.286"
   y="45.714001"
   x="18.285999" /><rect
   y="0"
   style="opacity:0.6;fill:#333333;fill-opacity:1"
   id="rect93"
   height="2.2850001"
   width="2.2850001"
   x="20.572001" /><rect
   style="opacity:0.6;fill:#333333;fill-opacity:1"
   id="rect95"
   height="2.286"
   width="2.2850001"
   y="9.1429996"
   x="20.572001" /><rect
   style="opacity:0.6;fill:#333333;fill-opacity:1"
   id="rect97"
   height="6.8569999"
   width="2.2850001"
   y="25.143"
   x="20.572001" /><rect
   style="opacity:0.6;fill:#333333;fill-opacity:1"
   id="rect99"
   height="2.2850001"
   width="2.2850001"
   y="34.285"
   x="20.572001" /><rect
   style="opacity:0.6;fill:#333333;fill-opacity:1"
   id="rect101"
   height="9.1429996"
   width="2.2850001"
   y="38.856998"
   x="20.572001" /><rect
   style="opacity:0.6;fill:#333333;fill-opacity:1"
   id="rect103"
   height="2.2850001"
   width="2.286"
   y="6.8569999"
   x="22.857" /><rect
   style="opacity:0.6;fill:#333333;fill-opacity:1"
   id="rect107"
   height="6.8569999"
   width="2.286"
   y="18.285"
   x="22.857" /><rect
   y="0"
   style="opacity:0.6;fill:#333333;fill-opacity:1"
   id="rect113"
   height="2.2850001"
   width="2.2850001"
   x="25.143" /><rect
   style="opacity:0.6;fill:#333333;fill-opacity:1"
   id="rect117"
   height="2.2850001"
   width="2.2850001"
   y="16"
   x="25.143" /><rect
   style="opacity:0.6;fill:#333333;fill-opacity:1"
   id="rect119"
   height="2.286"
   width="2.2850001"
   y="22.857"
   x="25.143" /><rect
   style="opacity:0.6;fill:#333333;fill-opacity:1"
   id="rect121"
   height="2.2850001"
   width="2.2850001"
   y="29.715"
   x="25.143" /><rect
   style="opacity:0.6;fill:#333333;fill-opacity:1"
   id="rect123"
   height="2.2850001"
   width="2.2850001"
   y="34.285"
   x="25.143" /><rect
   style="opacity:0.6;fill:#333333;fill-opacity:1"
   id="rect125"
   height="2.286"
   width="2.2850001"
   y="45.714001"
   x="25.143" /><rect
   style="opacity:0.6;fill:#333333;fill-opacity:1"
   id="rect127"
   height="4.572"
   width="2.286"
   y="2.2850001"
   x="27.427999" /><rect
   style="opacity:0.6;fill:#333333;fill-opacity:1"
   id="rect129"
   height="13.715"
   width="2.286"
   y="9.1429996"
   x="27.427999" /><rect
   style="opacity:0.6;fill:#333333;fill-opacity:1"
   id="rect131"
   height="11.428"
   width="2.286"
   y="29.715"
   x="27.427999" /><rect
   style="opacity:0.6;fill:#333333;fill-opacity:1"
   id="rect135"
   height="4.572"
   width="2.286"
   y="27.427999"
   x="29.714001" /><rect
   style="opacity:0.6;fill:#333333;fill-opacity:1"
   id="rect137"
   height="2.2850001"
   width="2.286"
   y="34.285"
   x="29.714001" /><rect
   style="opacity:0.6;fill:#333333;fill-opacity:1"
   id="rect139"
   height="2.286"
   width="2.286"
   y="45.714001"
   x="29.714001" /><rect
   style="opacity:0.6;fill:#333333;fill-opacity:1"
   id="rect145"
   height="2.286"
   width="2.2850001"
   y="22.857"
   x="32" /><rect
   style="opacity:0.6;fill:#333333;fill-opacity:1"
   id="rect149"
   height="2.2869999"
   width="2.2850001"
   y="41.143002"
   x="32" /><rect
   style="opacity:0.6;fill:#333333;fill-opacity:1"
   id="rect155"
   height="6.8559999"
   width="2.2850001"
   y="20.570999"
   x="34.285" /><rect
   style="opacity:0.6;fill:#333333;fill-opacity:1"
   id="rect157"
   height="4.572"
   width="2.2850001"
   y="34.285"
   x="34.285" /><rect
   style="opacity:0.6;fill:#333333;fill-opacity:1"
   id="rect169"
   height="2.2869999"
   width="2.2869999"
   y="27.427999"
   x="36.57" /><rect
   style="opacity:0.6;fill:#333333;fill-opacity:1"
   id="rect171"
   height="4.5700002"
   width="2.2869999"
   y="32"
   x="36.57" /><rect
   style="opacity:0.6;fill:#333333;fill-opacity:1"
   id="rect173"
   height="9.1429996"
   width="2.2869999"
   y="38.856998"
   x="36.57" /><rect
   style="opacity:0.6;fill:#333333;fill-opacity:1"
   id="rect181"
   height="2.286"
   width="2.2850001"
   y="18.285"
   x="38.856998" /><rect
   style="opacity:0.6;fill:#333333;fill-opacity:1"
   id="rect183"
   height="4.5700002"
   width="2.2850001"
   y="22.857"
   x="38.856998" /><rect
   style="opacity:0.6;fill:#333333;fill-opacity:1"
   id="rect185"
   height="2.2850001"
   width="2.2850001"
   y="34.285"
   x="38.856998" /><rect
   style="opacity:0.6;fill:#333333;fill-opacity:1"
   id="rect187"
   height="2.2839999"
   width="2.2850001"
   y="43.43"
   x="38.856998" /><rect
   style="opacity:0.6;fill:#333333;fill-opacity:1"
   id="rect195"
   height="9.1429996"
   width="2.2869999"
   y="18.285"
   x="41.143002" /><rect
   style="opacity:0.6;fill:#333333;fill-opacity:1"
   id="rect197"
   height="2.2850001"
   width="2.2869999"
   y="29.715"
   x="41.143002" /><rect
   style="opacity:0.6;fill:#333333;fill-opacity:1"
   id="rect199"
   height="2.2850001"
   width="2.2869999"
   y="34.285"
   x="41.143002" /><rect
   style="opacity:0.6;fill:#333333;fill-opacity:1"
   id="rect201"
   height="6.855"
   width="2.2869999"
   y="38.856998"
   x="41.143002" /><rect
   style="opacity:0.6;fill:#333333;fill-opacity:1"
   id="rect207"
   height="2.286"
   width="2.2839999"
   y="18.285"
   x="43.43" /><rect
   style="opacity:0.6;fill:#333333;fill-opacity:1"
   id="rect209"
   height="6.8569999"
   width="2.2839999"
   y="22.857"
   x="43.43" /><rect
   style="opacity:0.6;fill:#333333;fill-opacity:1"
   id="rect211"
   height="2.2850001"
   width="2.2839999"
   y="32"
   x="43.43" /><rect
   style="opacity:0.6;fill:#333333;fill-opacity:1"
   id="rect215"
   height="2.286"
   width="2.2839999"
   y="45.714001"
   x="43.43" /><rect
   style="opacity:0.6;fill:#333333;fill-opacity:1"
   id="rect219"
   height="2.2850001"
   width="2.286"
   y="25.143"
   x="45.714001" /><rect
   style="opacity:0.6;fill:#333333;fill-opacity:1"
   id="rect223"
   height="4.572"
   width="2.286"
   y="34.285"
   x="45.714001" /><rect
   style="opacity:0.6;fill:#333333;fill-opacity:1"
   id="rect225"
   height="2.2869999"
   width="2.286"
   y="41.143002"
   x="45.714001" />
</svg>