<?xml version="1.0" encoding="UTF-8" standalone="no"?>
<svg width="100px" height="100px" viewBox="0 0 100 100" version="1.1" xmlns="http://www.w3.org/2000/svg" xmlns:xlink="http://www.w3.org/1999/xlink" xmlns:sketch="http://www.bohemiancoding.com/sketch/ns">
    <!-- Generator: Sketch 3.0.4 (8053) - http://www.bohemiancoding.com/sketch -->
    <title>signature-unverified</title>
    <desc>Created with Sketch.</desc>
    <defs></defs>
    <g id="Page-1" stroke="none" stroke-width="1" fill="none" fill-rule="evenodd" sketch:type="MSPage">
        <g id="signature-unverified" sketch:type="MSArtboardGroup" fill="#000000">
            <path d="M90,0 L10,0 C4.477,0 0,4.478 0,10 L0,89.978 C0,95.501 4.477,99.978 10,99.978 L90,99.978 C95.523,99.978 100,95.501 100,89.978 L100,10 C100,4.478 95.523,0 90,0 L90,0 Z M56.359,80.095 L42.883,80.095 L42.883,66.877 L56.359,66.877 L56.359,80.095 L56.359,80.095 Z M70.222,40.709 C69.505,42.482 68.62,43.998 67.562,45.256 C66.501,46.515 65.33,47.588 64.042,48.474 C62.755,49.362 61.538,50.246 60.394,51.133 C59.249,52.022 58.234,53.036 57.347,54.18 C56.458,55.325 55.902,56.753 55.673,58.469 L55.673,61.729 L44.086,61.729 L44.086,57.868 C44.258,55.411 44.729,53.35 45.502,51.692 C46.273,50.034 47.176,48.617 48.205,47.444 C49.236,46.272 50.322,45.256 51.466,44.398 C52.611,43.542 53.669,42.682 54.642,41.825 C55.615,40.967 56.402,40.024 57.003,38.994 C57.604,37.964 57.874,36.678 57.817,35.134 C57.817,32.503 57.174,30.558 55.887,29.298 C54.598,28.042 52.809,27.411 50.522,27.411 C48.977,27.411 47.647,27.712 46.53,28.312 C45.415,28.913 44.499,29.713 43.784,30.714 C43.067,31.715 42.54,32.888 42.196,34.231 C41.852,35.577 41.68,37.021 41.68,38.565 L29.065,38.565 C29.12,35.475 29.651,32.644 30.653,30.071 C31.653,27.497 33.055,25.266 34.858,23.38 C36.661,21.491 38.835,20.019 41.381,18.958 C43.928,17.899 46.776,17.37 49.922,17.37 C53.984,17.37 57.375,17.929 60.093,19.044 C62.81,20.16 64.999,21.548 66.659,23.208 C68.319,24.867 69.505,26.654 70.221,28.57 C70.936,30.487 71.293,32.273 71.293,33.932 C71.295,36.677 70.937,38.938 70.222,40.709 L70.222,40.709 Z" sketch:type="MSShapeGroup"></path>
        </g>
    </g>
</svg>