<?xml version="1.0" encoding="UTF-8" standalone="no"?>
<svg width="100px" height="100px" viewBox="0 0 100 100" version="1.1" xmlns="http://www.w3.org/2000/svg" xmlns:xlink="http://www.w3.org/1999/xlink" xmlns:sketch="http://www.bohemiancoding.com/sketch/ns">
    <!-- Generator: Sketch 3.0.4 (8053) - http://www.bohemiancoding.com/sketch -->
    <title>icon-fingerprint</title>
    <desc>Created with Sketch.</desc>
    <defs></defs>
    <g id="Page-1" stroke="none" stroke-width="1" fill="none" fill-rule="evenodd" sketch:type="MSPage">
        <g id="icon-fingerprint" sketch:type="MSArtboardGroup" fill="#000000">
            <path d="M46.214961,59.4153846 C46.6578855,58.1692308 46.0890176,56.7692308 44.9413761,56.2861538 C43.80081,55.8061538 42.5074138,56.4230769 42.0644893,57.6692308 C39.3673195,65.2492308 29.7984516,79.6507692 20.939961,84.9630769 C19.8644893,85.6107692 19.4739233,87.0815385 20.0668478,88.2507692 C20.4729799,89.0492308 21.2343006,89.5 22.0182629,89.5 C22.380527,89.5 22.7498667,89.4030769 23.0923195,89.2 C33.3475082,83.0492308 43.27581,67.6830769 46.214961,59.4153846 L46.214961,59.4153846 L46.214961,59.4153846 Z M54.2159044,64.0892308 C57.1465648,54.9215385 53.5069421,48.7230769 48.6036402,46.6476923 C43.6437346,44.5446154 36.7748667,46.3707692 33.7960931,53.8676923 C31.2630742,60.24 24.7225082,71.3646154 17.0824138,75.8953846 C16.0041119,76.5353846 15.6064704,78.0046154 16.1965648,79.1784615 C16.785244,80.3476923 18.1366591,80.7830769 19.2163761,80.1415385 C28.5135459,74.6230769 35.4913761,61.7969231 37.8814704,55.7861538 C39.7564704,51.0692308 43.9677912,49.8753846 46.9904327,51.1553846 C49.8220365,52.3523077 52.1031685,55.9630769 50.0144893,62.5015385 C46.7597723,72.6784615 34.6918478,86.4707692 26.8692063,91.1061538 C25.7894893,91.7446154 25.3918478,93.2138462 25.980527,94.3876923 C26.385244,95.1938462 27.1479799,95.6492308 27.9361874,95.6492308 C28.2942063,95.6492308 28.6593006,95.5553846 28.9989233,95.3538462 C37.6819421,90.2092308 50.5890176,75.4307692 54.2159044,64.0892308 L54.2159044,64.0892308 L54.2159044,64.0892308 Z M51.6319421,38.1907692 C48.2470365,36.76 44.5762817,36.3876923 41.0328855,37.1153846 C34.4385459,38.4661538 28.8701497,43.3830769 26.1319421,50.2676923 C23.2720365,57.4676923 19.0522251,62.6830769 13.5857157,65.7692308 C12.494678,66.3861538 12.0715648,67.8461538 12.6361874,69.0307692 C13.2050553,70.2138462 14.5437346,70.6753846 15.6361874,70.0630769 C22.035244,66.4492308 26.9413761,60.4323077 30.2159044,52.1846154 C32.3654327,46.7769231 36.7168478,42.92 41.8536402,41.8692308 C44.5932629,41.3092308 47.4135459,41.5923077 50.0173195,42.6969231 C56.4503384,45.4169231 61.6593006,53.7061538 57.8965648,65.4784615 C54.3064704,76.7061538 43.664961,89.4338462 35.0059987,96.2046154 C34.0083572,96.9846154 33.780527,98.4953846 34.499395,99.58 C34.9338289,100.236923 35.6144893,100.586154 36.3078855,100.586154 C36.7578855,100.586154 37.2121308,100.436923 37.605527,100.130769 C46.8319421,92.9184615 58.2078855,79.2430769 62.099395,67.0661538 C66.8328855,52.2692308 59.9909044,41.7246154 51.6319421,38.1907692 L51.6319421,38.1907692 L51.6319421,38.1907692 Z M54.6588289,29.7338462 C49.8291119,27.6892308 44.5833572,27.1584615 39.4876025,28.1984615 C30.1833572,30.1030769 22.9635459,35.76 19.1526968,44.1323077 L19.0465648,44.3646154 C17.7347723,47.2553846 16.3776968,50.2446154 14.114961,50.9969231 C12.9390176,51.3876923 12.2767534,52.74 12.6376025,54.0184615 C12.9956214,55.2953846 14.2451497,56.0138462 15.4140176,55.6246154 C19.5163761,54.26 21.4692063,49.9615385 23.0385459,46.5061538 L23.1432629,46.2753846 C26.3173195,39.3 32.414961,34.5676923 40.3126025,32.9523077 C44.580527,32.0753846 48.9871308,32.5230769 53.0470365,34.2415385 C63.4111874,38.6246154 71.1135459,51.7861538 65.7814704,68.4584615 C63.3475082,76.0676923 58.1286402,84.7061538 51.0843006,92.78 C50.2394893,93.7507692 50.2762817,95.2815385 51.1663761,96.2 C51.5965648,96.6446154 52.1484516,96.8630769 52.6989233,96.8630769 C53.2876025,96.8630769 53.8762817,96.6107692 54.3135459,96.1092308 C61.7838289,87.5430769 67.3479799,78.2892308 69.9843006,70.0446154 C76.2418478,50.4830769 67.0111874,34.9569231 54.6588289,29.7338462 L54.6588289,29.7338462 L54.6588289,29.7338462 Z M57.689961,21.2784615 C51.3998667,18.6123077 44.5635459,17.9261538 37.9437346,19.28 C28.2319421,21.2692308 20.1121308,27.2846154 14.4644893,36.6784615 C13.7909044,37.7969231 14.0795836,39.2953846 15.1097723,40.0276923 C16.139961,40.76 17.519678,40.4476923 18.1890176,39.3276923 C23.2295836,30.9446154 30.1522251,25.8 38.7659044,24.0369231 C44.580527,22.8461538 50.564961,23.4538462 56.0767534,25.7892308 C69.8215648,31.6015385 80.6597723,49.5784615 73.6677912,71.44 C72.6531685,74.6076923 71.2748667,77.8723077 69.5725082,81.14 C68.9668478,82.3015385 69.3418478,83.7784615 70.4116591,84.4384615 C70.7597723,84.6507692 71.1347723,84.7523077 71.5069421,84.7523077 C72.2824138,84.7523077 73.0338289,84.3107692 73.4456214,83.5261538 C75.2809987,80.0046154 76.769678,76.4753846 77.8720365,73.0307692 C85.7781685,48.3030769 73.3734516,27.9107692 57.689961,21.2784615 L57.689961,21.2784615 L57.689961,21.2784615 Z M62.7135459,13.4507692 C49.6706214,7.52 34.6904327,8.71384615 22.635244,16.6369231 C21.5838289,17.3292308 21.2470365,18.8153846 21.8838289,19.96 C22.5163761,21.1015385 23.880527,21.4676923 24.9390176,20.7784615 C35.7828855,13.6507692 49.2630742,12.5784615 60.9970365,17.9153846 C72.2003384,23.0107692 79.980527,33.14 82.9026968,46.4369231 C83.1460931,47.5476923 84.0588289,48.2938462 85.064961,48.2938462 C85.2361874,48.2938462 85.410244,48.2723077 85.5843006,48.2276923 C86.7800553,47.9169231 87.5159044,46.6123077 87.2314704,45.3123077 C83.969678,30.4738462 75.2611874,19.1584615 62.7135459,13.4507692 L62.7135459,13.4507692 L62.7135459,13.4507692 Z M35.639961,6.20461538 C62.7517534,1.18307692 75.60081,15.6230769 79.8673195,22.0646154 C80.3017534,22.7215385 80.9838289,23.0692308 81.67581,23.0692308 C82.12581,23.0692308 82.5800553,22.9215385 82.9734516,22.6138462 C83.9710931,21.8338462 84.1960931,20.3215385 83.4800553,19.2369231 C78.7239233,12.06 64.4597723,-4.04 34.8942063,1.43538462 C33.6814704,1.66 32.8692063,2.90923077 33.07581,4.22615385 C33.2809987,5.54461538 34.4343006,6.43230769 35.639961,6.20461538 L35.639961,6.20461538 L35.639961,6.20461538 Z" sketch:type="MSShapeGroup"></path>
        </g>
    </g>
</svg>