<?xml version="1.0" encoding="UTF-8" standalone="no"?>
<!-- Generator: Adobe Illustrator 14.0.0, SVG Export Plug-In . SVG Version: 6.00 Build 43363)  -->

<svg
   xmlns:osb="http://www.openswatchbook.org/uri/2009/osb"
   xmlns:dc="http://purl.org/dc/elements/1.1/"
   xmlns:cc="http://creativecommons.org/ns#"
   xmlns:rdf="http://www.w3.org/1999/02/22-rdf-syntax-ns#"
   xmlns:svg="http://www.w3.org/2000/svg"
   xmlns="http://www.w3.org/2000/svg"
   xmlns:xlink="http://www.w3.org/1999/xlink"
   xmlns:sodipodi="http://sodipodi.sourceforge.net/DTD/sodipodi-0.dtd"
   xmlns:inkscape="http://www.inkscape.org/namespaces/inkscape"
   version="1.1"
   id="Layer_1"
   x="0px"
   y="0px"
   width="48px"
   height="48px"
   viewBox="0 0 48 48"
   enable-background="new 0 0 48 48"
   xml:space="preserve"
   inkscape:version="0.48.3.1 r9886"
   sodipodi:docname="ic_action_qr_code.svg"><metadata
   id="metadata231"><rdf:RDF><cc:Work
       rdf:about=""><dc:format>image/svg+xml</dc:format><dc:type
         rdf:resource="http://purl.org/dc/dcmitype/StillImage" /></cc:Work></rdf:RDF></metadata><defs
   id="defs229"><linearGradient
   id="linearGradient4069"
   osb:paint="solid"><stop
     style="stop-color:#000000;stop-opacity:1;"
     offset="0"
     id="stop4071" /></linearGradient>
	
	
	
	
	
	
	
	
	
	
	
	
	
	
	
	
	
	
	
	
	
	
	
	
	
	
	
	
	
	
	
	
	
	
	
	
	
	
	
	
	
	
	
	
	
	
	
	
	
	
	
	
	
	
	
	
	
	
	
	
	
	
	
	
	
	
	
	
	
	
	
	
	
	
	
	
	
	
	
	
	
	
	
	
	
	
	
	
	
	
	
	
	
	
	
	
	
	
	
	
	
	
	
	
	
	
	
	
	
	
	
<clipPath
   id="SVGID_61_"><use
     height="1052.3622"
     width="744.09448"
     y="0"
     x="0"
     style="overflow:visible"
     xlink:href="#SVGID_60_"
     overflow="visible"
     id="use374" /></clipPath><clipPath
   id="clipPath4193"><use
     height="1052.3622"
     width="744.09448"
     y="0"
     x="0"
     style="overflow:visible"
     xlink:href="#SVGID_60_"
     overflow="visible"
     id="use4195" /></clipPath><clipPath
   id="clipPath4197"><use
     height="1052.3622"
     width="744.09448"
     y="0"
     x="0"
     style="overflow:visible"
     xlink:href="#SVGID_60_"
     overflow="visible"
     id="use4199" /></clipPath><defs
   id="defs370"><rect
     height="96"
     width="96"
     y="2723.54"
     x="280.80499"
     id="SVGID_60_" /></defs><clipPath
   id="clipPath4204"><use
     id="use4206"
     overflow="visible"
     xlink:href="#SVGID_60_"
     style="overflow:visible"
     x="0"
     y="0"
     width="744.09448"
     height="1052.3622" /></clipPath></defs><sodipodi:namedview
   pagecolor="#ffffff"
   bordercolor="#666666"
   borderopacity="1"
   objecttolerance="10"
   gridtolerance="10"
   guidetolerance="10"
   inkscape:pageopacity="0"
   inkscape:pageshadow="2"
   inkscape:window-width="2558"
   inkscape:window-height="1419"
   id="namedview227"
   showgrid="false"
   inkscape:zoom="33.823274"
   inkscape:cx="28.208613"
   inkscape:cy="27.105695"
   inkscape:window-x="0"
   inkscape:window-y="19"
   inkscape:window-maximized="1"
   inkscape:current-layer="Layer_1" />

<path
   id="path376"
   d="m 341.16,2774.61 c 0,6.84 -5.543,12.385 -12.379,12.385 -6.84,0 -12.388,-5.545 -12.388,-12.385 0,-6.836 5.548,-12.381 12.388,-12.381 6.836,0 12.379,5.545 12.379,12.381"
   clip-path="url(#SVGID_61_)"
   inkscape:connector-curvature="0"
   style="fill:#333333;opacity:0.6"
   transform="matrix(0.42353916,0,0,0.42353916,-118.77231,-1156.4378)" /><path
   id="path378"
   d="m 362.412,2750.991 h -22.85 v -2.568 -3.051 h -21.309 v 3.051 2.568 c 0,0 -2.291,-0.037 -4.234,0 -1.943,0.032 -4.135,0.76 -4.135,0.76 l -14.708,4.752 c 0,0 0.034,2.062 0,3.537 -0.039,1.473 0,34.598 0,34.598 v 3.08 c 0,0 67.155,-0.01 67.235,0 0.084,0.01 0,-1.379 0,-3.08 v -40.566 -3.081 z m -33.631,41.713 c -9.998,0 -18.097,-8.102 -18.097,-18.092 0,-9.992 8.099,-18.096 18.097,-18.096 9.99,0 18.092,8.104 18.092,18.096 0,9.991 -8.102,18.092 -18.092,18.092"
   clip-path="url(#SVGID_61_)"
   inkscape:connector-curvature="0"
   style="fill:#333333;opacity:0.6"
   transform="matrix(0.42353916,0,0,0.42353916,-118.77231,-1156.4378)" /><polygon
   id="polygon380"
   points="308.727,2747.183 308.727,2748.132 308.727,2749.421 297.969,2753.065 297.969,2748.132 297.969,2747.183 "
   clip-path="url(#SVGID_61_)"
   style="fill:#333333;opacity:0.6"
   transform="matrix(0.42353916,0,0,0.42353916,-118.77231,-1156.4378)" /><rect
   style="fill-opacity:1;stroke:none;opacity:1;fill:#f2f2f2"
   id="rect3233"
   width="21.671467"
   height="21.582771"
   x="20.961897"
   y="21.184147" /><g
   id="g3200"><rect
     x="23.795828"
     y="23.795828"
     width="0.94412446"
     height="2.8319604"
     id="rect25"
     style="opacity:0.6;fill:#333333;fill-opacity:1" /><rect
     x="24.739952"
     y="23.795828"
     width="0.94412446"
     height="2.8319604"
     id="rect39"
     style="opacity:0.6;fill:#333333;fill-opacity:1" /><rect
     x="25.684488"
     y="23.795828"
     width="0.94371146"
     height="2.8319604"
     id="rect55"
     style="opacity:0.6;fill:#333333;fill-opacity:1" /><rect
     x="23.795828"
     y="37.011505"
     width="0.94412446"
     height="2.8319604"
     id="rect33"
     style="opacity:0.6;fill:#333333;fill-opacity:1" /><rect
     x="24.739952"
     y="37.011505"
     width="0.94412446"
     height="2.8319604"
     id="rect49"
     style="opacity:0.6;fill:#333333;fill-opacity:1" /><rect
     x="25.684488"
     y="37.011505"
     width="0.94371146"
     height="2.8319604"
     id="rect61"
     style="opacity:0.6;fill:#333333;fill-opacity:1" /><rect
     width="0.94371146"
     height="6.6080451"
     id="rect5"
     style="opacity:0.6;fill:#333333;fill-opacity:1"
     x="21.907991"
     y="21.907991" /><rect
     x="22.851704"
     width="0.94412446"
     height="0.94371146"
     id="rect13"
     style="opacity:0.6;fill:#333333;fill-opacity:1"
     y="21.907991" /><rect
     x="22.851704"
     y="27.571913"
     width="0.94412446"
     height="0.94412446"
     id="rect15"
     style="opacity:0.6;fill:#333333;fill-opacity:1" /><rect
     x="23.795828"
     width="0.94412446"
     height="0.94371146"
     id="rect23"
     style="opacity:0.6;fill:#333333;fill-opacity:1"
     y="21.907991" /><rect
     x="23.795828"
     y="27.571913"
     width="0.94412446"
     height="0.94412446"
     id="rect27"
     style="opacity:0.6;fill:#333333;fill-opacity:1" /><rect
     x="24.739952"
     width="0.94412446"
     height="0.94371146"
     id="rect37"
     style="opacity:0.6;fill:#333333;fill-opacity:1"
     y="21.907991" /><rect
     x="24.739952"
     y="27.571913"
     width="0.94412446"
     height="0.94412446"
     id="rect41"
     style="opacity:0.6;fill:#333333;fill-opacity:1" /><rect
     x="25.684488"
     width="0.94371146"
     height="0.94371146"
     id="rect53"
     style="opacity:0.6;fill:#333333;fill-opacity:1"
     y="21.907991" /><rect
     x="25.684488"
     y="27.571913"
     width="0.94371146"
     height="0.94412446"
     id="rect57"
     style="opacity:0.6;fill:#333333;fill-opacity:1" /><rect
     x="26.628201"
     width="0.94371146"
     height="0.94371146"
     id="rect65"
     style="opacity:0.6;fill:#333333;fill-opacity:1"
     y="21.907991" /><rect
     x="26.628201"
     y="27.571913"
     width="0.94371146"
     height="0.94412446"
     id="rect67"
     style="opacity:0.6;fill:#333333;fill-opacity:1" /><rect
     x="27.571913"
     width="0.94412446"
     height="6.6080451"
     id="rect75"
     style="opacity:0.6;fill:#333333;fill-opacity:1"
     y="21.907991" /><rect
     y="35.124081"
     width="0.94371146"
     height="6.6080451"
     id="rect11"
     style="opacity:0.6;fill:#333333;fill-opacity:1"
     x="21.907991" /><rect
     x="22.851704"
     y="35.124081"
     width="0.94412446"
     height="0.94371146"
     id="rect19"
     style="opacity:0.6;fill:#333333;fill-opacity:1" /><rect
     x="22.851704"
     y="40.788002"
     width="0.94412446"
     height="0.94412446"
     id="rect21"
     style="opacity:0.6;fill:#333333;fill-opacity:1" /><rect
     x="23.795828"
     y="35.124081"
     width="0.94412446"
     height="0.94371146"
     id="rect31"
     style="opacity:0.6;fill:#333333;fill-opacity:1" /><rect
     x="23.795828"
     y="40.788002"
     width="0.94412446"
     height="0.94412446"
     id="rect35"
     style="opacity:0.6;fill:#333333;fill-opacity:1" /><rect
     x="24.739952"
     y="35.124081"
     width="0.94412446"
     height="0.94371146"
     id="rect47"
     style="opacity:0.6;fill:#333333;fill-opacity:1" /><rect
     x="24.739952"
     y="40.788002"
     width="0.94412446"
     height="0.94412446"
     id="rect51"
     style="opacity:0.6;fill:#333333;fill-opacity:1" /><rect
     x="25.684488"
     y="35.124081"
     width="0.94371146"
     height="0.94371146"
     id="rect59"
     style="opacity:0.6;fill:#333333;fill-opacity:1" /><rect
     x="25.684488"
     y="40.788002"
     width="0.94371146"
     height="0.94412446"
     id="rect63"
     style="opacity:0.6;fill:#333333;fill-opacity:1" /><rect
     x="26.628201"
     y="35.124081"
     width="0.94371146"
     height="0.94371146"
     id="rect71"
     style="opacity:0.6;fill:#333333;fill-opacity:1" /><rect
     x="26.628201"
     y="40.788002"
     width="0.94371146"
     height="0.94412446"
     id="rect73"
     style="opacity:0.6;fill:#333333;fill-opacity:1" /><rect
     x="27.571913"
     y="35.124081"
     width="0.94412446"
     height="6.6080451"
     id="rect83"
     style="opacity:0.6;fill:#333333;fill-opacity:1" /><rect
     x="37.011505"
     y="23.795828"
     width="0.9445374"
     height="2.8319604"
     id="rect163"
     style="opacity:0.6;fill:#333333;fill-opacity:1" /><rect
     x="37.956043"
     y="23.795828"
     width="0.94371146"
     height="2.8319604"
     id="rect177"
     style="opacity:0.6;fill:#333333;fill-opacity:1" /><rect
     x="38.900169"
     y="23.795828"
     width="0.9445374"
     height="2.8319604"
     id="rect191"
     style="opacity:0.6;fill:#333333;fill-opacity:1" /><rect
     x="35.124081"
     width="0.94371146"
     height="6.6080451"
     id="rect141"
     style="opacity:0.6;fill:#333333;fill-opacity:1"
     y="21.907991" /><rect
     x="36.067795"
     width="0.94371146"
     height="0.94371146"
     id="rect151"
     style="opacity:0.6;fill:#333333;fill-opacity:1"
     y="21.907991" /><rect
     x="36.067795"
     y="27.571913"
     width="0.94371146"
     height="0.94412446"
     id="rect153"
     style="opacity:0.6;fill:#333333;fill-opacity:1" /><rect
     x="37.011505"
     width="0.9445374"
     height="0.94371146"
     id="rect161"
     style="opacity:0.6;fill:#333333;fill-opacity:1"
     y="21.907991" /><rect
     x="37.011505"
     y="27.571913"
     width="0.9445374"
     height="0.94412446"
     id="rect165"
     style="opacity:0.6;fill:#333333;fill-opacity:1" /><rect
     x="37.956043"
     width="0.94371146"
     height="0.94371146"
     id="rect175"
     style="opacity:0.6;fill:#333333;fill-opacity:1"
     y="21.907991" /><rect
     x="37.956043"
     y="27.571913"
     width="0.94371146"
     height="0.94412446"
     id="rect179"
     style="opacity:0.6;fill:#333333;fill-opacity:1" /><rect
     x="38.900169"
     width="0.9445374"
     height="0.94371146"
     id="rect189"
     style="opacity:0.6;fill:#333333;fill-opacity:1"
     y="21.907991" /><rect
     x="38.900169"
     y="27.571913"
     width="0.9445374"
     height="0.94412446"
     id="rect193"
     style="opacity:0.6;fill:#333333;fill-opacity:1" /><rect
     x="39.844704"
     width="0.9432984"
     height="0.94371146"
     id="rect203"
     style="opacity:0.6;fill:#333333;fill-opacity:1"
     y="21.907991" /><rect
     x="39.844704"
     y="27.571913"
     width="0.9432984"
     height="0.94412446"
     id="rect205"
     style="opacity:0.6;fill:#333333;fill-opacity:1" /><rect
     x="40.788002"
     width="0.94412446"
     height="6.6080451"
     id="rect217"
     style="opacity:0.6;fill:#333333;fill-opacity:1"
     y="21.907991" /><rect
     y="29.459747"
     width="0.94371146"
     height="1.8882489"
     id="rect7"
     style="opacity:0.6;fill:#333333;fill-opacity:1"
     x="21.907991" /><rect
     x="22.851704"
     y="33.235832"
     width="0.94412446"
     height="0.9445374"
     id="rect17"
     style="opacity:0.6;fill:#333333;fill-opacity:1" /><rect
     x="23.795828"
     y="30.403872"
     width="0.94412446"
     height="2.8315473"
     id="rect29"
     style="opacity:0.6;fill:#333333;fill-opacity:1" /><rect
     x="24.739952"
     y="30.403872"
     width="0.94412446"
     height="0.94412446"
     id="rect43"
     style="opacity:0.6;fill:#333333;fill-opacity:1" /><rect
     x="24.739952"
     y="32.292122"
     width="0.94412446"
     height="1.8882489"
     id="rect45"
     style="opacity:0.6;fill:#333333;fill-opacity:1" /><rect
     x="26.628201"
     y="31.347998"
     width="0.94371146"
     height="0.94412446"
     id="rect69"
     style="opacity:0.6;fill:#333333;fill-opacity:1" /><rect
     x="27.571913"
     y="29.459747"
     width="0.94412446"
     height="0.94412446"
     id="rect77"
     style="opacity:0.6;fill:#333333;fill-opacity:1" /><rect
     x="27.571913"
     y="31.347998"
     width="0.94412446"
     height="0.94412446"
     id="rect79"
     style="opacity:0.6;fill:#333333;fill-opacity:1" /><rect
     x="27.571913"
     y="33.235832"
     width="0.94412446"
     height="0.9445374"
     id="rect81"
     style="opacity:0.6;fill:#333333;fill-opacity:1" /><rect
     x="28.516037"
     y="30.403872"
     width="0.94412446"
     height="1.8882489"
     id="rect85"
     style="opacity:0.6;fill:#333333;fill-opacity:1" /><rect
     x="29.460161"
     y="22.851704"
     width="0.94412446"
     height="2.8319604"
     id="rect87"
     style="opacity:0.6;fill:#333333;fill-opacity:1" /><rect
     x="29.460161"
     y="27.571913"
     width="0.94412446"
     height="7.5521693"
     id="rect89"
     style="opacity:0.6;fill:#333333;fill-opacity:1" /><rect
     x="29.460161"
     y="40.788002"
     width="0.94412446"
     height="0.94412446"
     id="rect91"
     style="opacity:0.6;fill:#333333;fill-opacity:1" /><rect
     x="30.404285"
     width="0.94371146"
     height="0.94371146"
     id="rect93"
     style="opacity:0.6;fill:#333333;fill-opacity:1"
     y="21.907991" /><rect
     x="30.404285"
     y="25.684076"
     width="0.94371146"
     height="0.94412446"
     id="rect95"
     style="opacity:0.6;fill:#333333;fill-opacity:1" /><rect
     x="30.404285"
     y="32.292122"
     width="0.94371146"
     height="2.8319604"
     id="rect97"
     style="opacity:0.6;fill:#333333;fill-opacity:1" /><rect
     x="30.404285"
     y="36.067795"
     width="0.94371146"
     height="0.94371146"
     id="rect99"
     style="opacity:0.6;fill:#333333;fill-opacity:1" /><rect
     x="30.404285"
     y="37.956043"
     width="0.94371146"
     height="3.7760847"
     id="rect101"
     style="opacity:0.6;fill:#333333;fill-opacity:1" /><rect
     x="31.347998"
     y="24.739952"
     width="0.94412446"
     height="0.94371146"
     id="rect103"
     style="opacity:0.6;fill:#333333;fill-opacity:1" /><rect
     x="31.347998"
     y="29.459747"
     width="0.94412446"
     height="2.8319604"
     id="rect107"
     style="opacity:0.6;fill:#333333;fill-opacity:1" /><rect
     x="32.292122"
     width="0.94371146"
     height="0.94371146"
     id="rect113"
     style="opacity:0.6;fill:#333333;fill-opacity:1"
     y="21.907991" /><rect
     x="32.292122"
     y="28.516037"
     width="0.94371146"
     height="0.94371146"
     id="rect117"
     style="opacity:0.6;fill:#333333;fill-opacity:1" /><rect
     x="32.292122"
     y="31.347998"
     width="0.94371146"
     height="0.94412446"
     id="rect119"
     style="opacity:0.6;fill:#333333;fill-opacity:1" /><rect
     x="32.292122"
     y="34.18037"
     width="0.94371146"
     height="0.94371146"
     id="rect121"
     style="opacity:0.6;fill:#333333;fill-opacity:1" /><rect
     x="32.292122"
     y="36.067795"
     width="0.94371146"
     height="0.94371146"
     id="rect123"
     style="opacity:0.6;fill:#333333;fill-opacity:1" /><rect
     x="32.292122"
     y="40.788002"
     width="0.94371146"
     height="0.94412446"
     id="rect125"
     style="opacity:0.6;fill:#333333;fill-opacity:1" /><rect
     x="33.235832"
     y="22.851704"
     width="0.94412446"
     height="1.8882489"
     id="rect127"
     style="opacity:0.6;fill:#333333;fill-opacity:1" /><rect
     x="33.235832"
     y="25.684076"
     width="0.94412446"
     height="5.6643338"
     id="rect129"
     style="opacity:0.6;fill:#333333;fill-opacity:1" /><rect
     x="33.235832"
     y="34.18037"
     width="0.94412446"
     height="4.7197962"
     id="rect131"
     style="opacity:0.6;fill:#333333;fill-opacity:1" /><rect
     x="34.179958"
     y="33.235832"
     width="0.94412446"
     height="1.8882489"
     id="rect135"
     style="opacity:0.6;fill:#333333;fill-opacity:1" /><rect
     x="34.179958"
     y="36.067795"
     width="0.94412446"
     height="0.94371146"
     id="rect137"
     style="opacity:0.6;fill:#333333;fill-opacity:1" /><rect
     x="34.179958"
     y="40.788002"
     width="0.94412446"
     height="0.94412446"
     id="rect139"
     style="opacity:0.6;fill:#333333;fill-opacity:1" /><rect
     x="35.124081"
     y="31.347998"
     width="0.94371146"
     height="0.94412446"
     id="rect145"
     style="opacity:0.6;fill:#333333;fill-opacity:1" /><rect
     x="35.124081"
     y="38.900169"
     width="0.94371146"
     height="0.9445374"
     id="rect149"
     style="opacity:0.6;fill:#333333;fill-opacity:1" /><rect
     x="36.067795"
     y="30.403872"
     width="0.94371146"
     height="2.8315473"
     id="rect155"
     style="opacity:0.6;fill:#333333;fill-opacity:1" /><rect
     x="36.067795"
     y="36.067795"
     width="0.94371146"
     height="1.8882489"
     id="rect157"
     style="opacity:0.6;fill:#333333;fill-opacity:1" /><rect
     x="37.011505"
     y="33.235832"
     width="0.9445374"
     height="0.9445374"
     id="rect169"
     style="opacity:0.6;fill:#333333;fill-opacity:1" /><rect
     x="37.011505"
     y="35.124081"
     width="0.9445374"
     height="1.8874229"
     id="rect171"
     style="opacity:0.6;fill:#333333;fill-opacity:1" /><rect
     x="37.011505"
     y="37.956043"
     width="0.9445374"
     height="3.7760847"
     id="rect173"
     style="opacity:0.6;fill:#333333;fill-opacity:1" /><rect
     x="37.956043"
     y="29.459747"
     width="0.94371146"
     height="0.94412446"
     id="rect181"
     style="opacity:0.6;fill:#333333;fill-opacity:1" /><rect
     x="37.956043"
     y="31.347998"
     width="0.94371146"
     height="1.8874229"
     id="rect183"
     style="opacity:0.6;fill:#333333;fill-opacity:1" /><rect
     x="37.956043"
     y="36.067795"
     width="0.94371146"
     height="0.94371146"
     id="rect185"
     style="opacity:0.6;fill:#333333;fill-opacity:1" /><rect
     x="37.956043"
     y="39.844704"
     width="0.94371146"
     height="0.9432984"
     id="rect187"
     style="opacity:0.6;fill:#333333;fill-opacity:1" /><rect
     x="38.900169"
     y="29.459747"
     width="0.9445374"
     height="3.7760847"
     id="rect195"
     style="opacity:0.6;fill:#333333;fill-opacity:1" /><rect
     x="38.900169"
     y="34.18037"
     width="0.9445374"
     height="0.94371146"
     id="rect197"
     style="opacity:0.6;fill:#333333;fill-opacity:1" /><rect
     x="38.900169"
     y="36.067795"
     width="0.9445374"
     height="0.94371146"
     id="rect199"
     style="opacity:0.6;fill:#333333;fill-opacity:1" /><rect
     x="38.900169"
     y="37.956043"
     width="0.9445374"
     height="2.8311343"
     id="rect201"
     style="opacity:0.6;fill:#333333;fill-opacity:1" /><rect
     x="39.844704"
     y="29.459747"
     width="0.9432984"
     height="0.94412446"
     id="rect207"
     style="opacity:0.6;fill:#333333;fill-opacity:1" /><rect
     x="39.844704"
     y="31.347998"
     width="0.9432984"
     height="2.8319604"
     id="rect209"
     style="opacity:0.6;fill:#333333;fill-opacity:1" /><rect
     x="39.844704"
     y="35.124081"
     width="0.9432984"
     height="0.94371146"
     id="rect211"
     style="opacity:0.6;fill:#333333;fill-opacity:1" /><rect
     x="39.844704"
     y="40.788002"
     width="0.9432984"
     height="0.94412446"
     id="rect215"
     style="opacity:0.6;fill:#333333;fill-opacity:1" /><rect
     x="40.788002"
     y="32.292122"
     width="0.94412446"
     height="0.94371146"
     id="rect219"
     style="opacity:0.6;fill:#333333;fill-opacity:1" /><rect
     x="40.788002"
     y="36.067795"
     width="0.94412446"
     height="1.8882489"
     id="rect223"
     style="opacity:0.6;fill:#333333;fill-opacity:1" /><rect
     x="40.788002"
     y="38.900169"
     width="0.94412446"
     height="0.9445374"
     id="rect225"
     style="opacity:0.6;fill:#333333;fill-opacity:1" /></g></svg>